<svg width="122" height="78" viewBox="0 0 122 78" fill="none" xmlns="http://www.w3.org/2000/svg">
<path fill-rule="evenodd" clip-rule="evenodd" d="M5.55661 77.0554C5.53414 76.73 5.55703 76.4087 5.62556 76.0902L9.48647 69.4715C10.0256 68.6965 10.6922 68.5807 11.4859 69.1267C13.4396 70.3112 15.4161 71.4598 17.4151 72.574C18.2083 72.9035 18.5071 73.4785 18.3114 74.2976C17.8176 75.2394 17.2891 76.1591 16.7257 77.0554C18.1505 77.2388 19.5755 77.2388 21.0003 77.0554C33.9867 54.575 46.9714 32.0989 59.9541 9.62729C60.1617 9.37936 60.1847 9.12647 60.0231 8.86889C59.0675 8.35677 58.1253 7.82824 57.1963 7.28316C55.8529 9.27898 54.6119 11.3473 53.4733 13.4882C53.013 13.8768 52.4845 13.9916 51.8876 13.8329L45.2689 9.97201C44.6016 9.53159 44.4407 8.95701 44.7863 8.24839C45.9767 6.25809 47.1487 4.25869 48.3025 2.25018C47.3055 1.57659 46.2713 0.956088 45.1999 0.388672C45.0935 0.408666 45.0015 0.454583 44.9241 0.526562C30.1564 26.0633 15.4252 51.619 0.730469 77.1933C2.36308 77.3753 4.01776 77.3753 5.6945 77.1933C5.6774 77.1092 5.63149 77.0637 5.55661 77.0554ZM43.0627 15.2118C42.5276 14.8171 41.9302 14.6561 41.2701 14.7292C41.0918 14.9769 40.885 15.2067 40.6496 15.4187C39.4435 17.6015 38.2025 19.7616 36.9266 21.8995C36.6356 22.4687 36.7046 22.9972 37.1334 23.4852L44.0279 27.484C44.7776 27.7122 45.352 27.5054 45.7515 26.8635C46.8658 24.8645 48.0148 22.888 49.1988 20.9343C49.9074 20.0833 49.8384 19.3249 48.9919 18.6591C46.9929 17.5448 45.0164 16.3958 43.0627 15.2118ZM33.4104 28.3803C33.8446 28.3405 34.2582 28.4094 34.6514 28.5871C36.7892 29.863 38.9494 31.104 41.1322 32.3102C41.7994 32.7506 41.9604 33.3252 41.6148 34.0338L37.616 40.9283C37.167 41.1943 36.6844 41.2632 36.1682 41.1351C34.0303 39.8592 31.8701 38.6182 29.6873 37.4121C28.797 36.8754 28.6361 36.1631 29.2047 35.2748C30.4346 33.2289 31.6296 31.1606 32.7899 29.0697C32.9782 28.813 33.185 28.5833 33.4104 28.3803ZM27.2053 42.514C26.7104 42.1512 26.1589 41.9904 25.5506 42.0314C25.2215 42.3641 24.9227 42.7319 24.6543 43.1345C23.4941 45.2253 22.299 47.2937 21.0692 49.3395C20.8702 49.9893 21.031 50.5178 21.5518 50.9253C23.6426 52.0855 25.711 53.2806 27.7569 54.5104C28.7977 55.267 29.602 55.0602 30.1699 53.8899C31.172 52.0158 32.2292 50.1772 33.3414 48.3743C33.7704 47.7921 33.9083 47.1486 33.7551 46.4439C31.6061 45.0819 29.4229 43.772 27.2053 42.514ZM17.6909 55.6825C18.1916 55.6356 18.6512 55.7506 19.0698 56.0272C21.2077 57.3031 23.3678 58.5441 25.5506 59.7502C26.0781 60.3887 26.101 61.0561 25.6196 61.7496C24.5074 63.5532 23.4502 65.3913 22.4481 67.2652C21.9114 68.156 21.1991 68.3159 20.3108 67.7478C18.278 66.4972 16.2097 65.3031 14.1058 64.1627C13.3421 63.5574 13.2273 62.8445 13.7611 62.0254C14.8733 60.2218 15.9305 58.3839 16.9325 56.5098C17.12 56.1619 17.3728 55.8862 17.6909 55.6825ZM67.4691 13.3503C67.7187 13.3491 67.949 13.418 68.1586 13.5572L83.3155 22.3068L98.4943 31.0692C98.6129 31.1642 98.7039 31.279 98.7701 31.4139C94.4335 39.1459 89.9755 46.7988 85.3948 54.3725C83.6243 55.7041 81.7393 55.8881 79.7413 54.9241C71.9037 50.3389 64.0439 45.7885 56.1622 41.273C54.3045 39.6568 53.8219 37.7035 54.7143 35.4127C59.0024 28.0774 63.2538 20.7232 67.4691 13.3503ZM120.001 46.573L118.902 48.5122C118.033 50.1139 117.114 51.6766 116.144 53.2005L112.331 59.8351L112.305 59.8807L112.173 60.1108L111.886 60.6094L111.685 60.959C108.574 66.3723 105.465 71.7838 102.355 77.1933C95.6207 77.3767 88.8641 77.3767 82.0855 77.1933C82.102 77.1092 82.1489 77.0637 82.2234 77.0554C90.1851 63.2016 98.1827 49.3667 106.216 35.5506C107.301 36.1614 108.359 36.805 109.388 37.481C108.147 39.5747 106.929 41.689 105.734 43.824C105.615 44.4378 105.822 44.9205 106.354 45.2718C108.444 46.432 110.513 47.6271 112.559 48.8569C112.978 49.1335 113.437 49.2485 113.938 49.2017C114.211 48.9759 114.487 48.7461 114.765 48.5122C115.841 46.4526 116.991 44.4301 118.213 42.4451C119.276 43.0216 120.286 43.6651 121.246 44.3755L120.416 45.8412L120.001 46.573ZM51.4739 49.7532C52.2829 50.1801 53.0642 50.6397 53.818 51.1321C60.7547 55.1064 67.6953 59.0821 74.6394 63.0596C76.8663 64.2206 77.7157 66.0366 77.1904 68.5062C75.7246 71.4433 74.1389 74.3169 72.4332 77.1243C58.5063 77.2167 44.5794 77.2167 30.6526 77.1243C32.7399 73.5695 34.8083 70.0079 36.8576 66.4379C37.0833 65.9387 37.3591 65.4796 37.6849 65.059C38.2746 63.92 38.9179 62.8169 39.6154 61.7496C39.7394 61.3511 39.9233 60.983 40.167 60.6465C42.0046 57.6157 43.7742 54.5362 45.4757 51.4079C45.6849 51.168 45.8917 50.9382 46.0962 50.7184C47.6466 49.106 49.4392 48.7843 51.4739 49.7532ZM103.458 50.0979C103.093 50.0294 102.726 50.0064 102.355 50.029C102.191 50.1481 102.031 50.286 101.873 50.4427C100.61 52.786 99.2762 55.0842 97.8739 57.3372C97.6574 58.0312 97.8642 58.5598 98.4944 58.9229C100.585 60.0826 102.653 61.2781 104.699 62.508C105.677 63.0996 106.435 62.8927 106.975 61.8875C108.134 59.7971 109.33 57.7284 110.56 55.6825C110.884 55.0967 110.815 54.5682 110.353 54.0968L106.908 52.0988L103.458 50.0979ZM94.4955 63.6801C95.156 63.607 95.7531 63.7683 96.2881 64.1627C98.242 65.3472 100.218 66.4958 102.217 67.6099C102.879 68.247 102.948 68.9585 102.424 69.7472C101.194 71.7935 99.9987 73.8619 98.8391 75.9523C98.4185 76.4528 97.8904 76.6142 97.2533 76.4349L93.8061 74.4355L90.3588 72.4361C89.9038 71.9135 89.8349 71.3385 90.152 70.7125C90.7706 69.6516 91.3896 68.5907 92.0085 67.5299L92.0326 67.4886L92.057 67.4468L92.0817 67.4044C92.7255 66.3009 93.3694 65.1973 94.0129 64.0938C94.1715 63.9366 94.3315 63.7987 94.4955 63.6801Z" fill="white"/>
</svg>
