<svg width="40" height="40" viewBox="0 0 40 40" fill="none" xmlns="http://www.w3.org/2000/svg">
<path fill-rule="evenodd" clip-rule="evenodd" d="M21.3791 5.47762C22.6283 3.95799 24.7611 2.79408 26.5893 2.66992C26.9 4.74865 26.05 6.77483 24.9287 8.20457C23.7648 9.70668 21.7722 10.879 19.8252 10.879H19.679C19.3133 8.89774 20.2457 6.85481 21.3791 5.47762ZM23.4004 11.4889C24.4442 11.0927 25.5914 10.6573 27.2655 10.6573L27.2579 10.6603C29.5789 10.6603 32.0408 11.9309 33.7927 14.1246C28.0532 17.2789 28.9855 25.5062 34.789 27.7091C33.9969 29.4877 33.613 30.2768 32.5801 31.849C31.145 34.0352 29.1257 36.7621 26.612 36.7888H26.5663C25.5623 36.7888 24.8951 36.4823 24.1765 36.1522C23.3382 35.7671 22.4299 35.3499 20.8351 35.3499H20.7894C19.1711 35.3589 18.2358 35.7776 17.3765 36.1622C16.6393 36.4922 15.958 36.7972 14.9493 36.7972H14.9036C12.3899 36.7705 10.4735 34.3094 9.03838 32.1149C5.02641 25.9846 4.60594 18.7886 7.08305 14.9678C8.84719 12.2584 11.6252 10.6679 14.2303 10.6679C15.6253 10.6679 16.7488 11.0677 17.8178 11.4481C18.7883 11.7934 19.714 12.1228 20.7574 12.1228C21.7304 12.1228 22.5294 11.8195 23.4004 11.4889Z" fill="black"/>
</svg>
