<svg width="21" height="21" viewBox="0 0 21 21" fill="none" xmlns="http://www.w3.org/2000/svg">
<path fill-rule="evenodd" clip-rule="evenodd" d="M10.8564 2.0912C6.35402 2.0912 2.70417 5.74105 2.70417 10.2434C2.70417 14.7457 6.35402 18.3955 10.8564 18.3955C12.693 18.3955 14.3854 17.7893 15.7479 16.7656L16.11 16.4936C16.31 16.3433 16.5939 16.3836 16.7441 16.5836L17.2883 17.3078C17.4385 17.5077 17.3981 17.7916 17.1982 17.9419L16.8361 18.2139C15.1706 19.4653 13.0988 20.2071 10.8564 20.2071C5.35351 20.2071 0.892578 15.7462 0.892578 10.2434C0.892578 4.74053 5.35351 0.279602 10.8564 0.279602C16.3592 0.279602 20.8201 4.74053 20.8201 10.2434V11.1492C20.8201 13.1801 19.0968 14.7724 17.1262 14.7724C15.9273 14.7724 14.8643 14.19 14.2048 13.2927C13.3767 14.2019 12.1834 14.7724 10.8564 14.7724C8.35505 14.7724 6.32736 12.7446 6.32736 10.2434C6.32736 7.74208 8.35505 5.71438 10.8564 5.71438C13.3576 5.71438 15.3854 7.74208 15.3854 10.2434C15.3854 10.5067 15.3628 10.7655 15.3192 11.0176C15.3161 11.0609 15.3146 11.1048 15.3146 11.1492C15.3146 12.1497 16.1257 12.9608 17.1262 12.9608C18.1571 12.9608 19.0085 12.1198 19.0085 11.1492V10.2434C19.0085 5.74105 15.3586 2.0912 10.8564 2.0912ZM10.8564 7.52598C9.35555 7.52598 8.13896 8.74255 8.13896 10.2434C8.13896 11.7442 9.35555 12.9608 10.8564 12.9608C12.1876 12.9608 13.297 12.0025 13.529 10.7378C13.5583 10.5782 13.5738 10.4129 13.5738 10.2434C13.5738 8.74255 12.3571 7.52598 10.8564 7.52598Z" fill="#151923"/>
</svg>
