<svg width="376" height="375" viewBox="0 0 376 375" fill="none" xmlns="http://www.w3.org/2000/svg">
<path opacity="0.11" fill-rule="evenodd" clip-rule="evenodd" d="M-101.483 430.21C-101.609 428.384 -101.48 426.582 -101.096 424.794C-97.4904 418.613 -93.8847 412.432 -90.279 406.251C-86.6641 400.054 -83.0493 393.857 -79.4346 387.661C-76.4097 383.313 -72.67 382.663 -68.2171 385.727C-57.2556 392.372 -46.1665 398.816 -34.9513 405.067C-30.5015 406.916 -28.825 410.142 -29.9228 414.737C-32.6931 420.021 -35.6584 425.181 -38.8195 430.21C-30.8256 431.239 -22.831 431.239 -14.8372 430.21C58.0225 304.085 130.872 177.984 203.711 51.9088C204.875 50.5179 205.004 49.099 204.098 47.6539C198.737 44.7807 193.45 41.8154 188.239 38.7573C180.701 49.9547 173.739 61.559 167.351 73.5702C164.768 75.7503 161.803 76.3947 158.454 75.5043C152.25 71.8855 146.046 68.2665 139.843 64.6476L139.486 64.4398C133.431 60.9074 127.376 57.3751 121.32 53.8429C117.577 51.3719 116.674 48.1483 118.613 44.1726C125.291 33.0062 131.867 21.7886 138.34 10.5201C132.747 6.74092 126.944 3.25963 120.933 0.0761719C120.336 0.188347 119.82 0.445963 119.386 0.849794C36.5329 144.122 -46.1155 287.501 -128.56 430.983C-119.4 432.005 -110.116 432.005 -100.709 430.984C-100.805 430.512 -101.063 430.256 -101.483 430.21ZM108.942 83.2409C105.941 81.026 102.588 80.1232 98.8851 80.5332C97.8849 81.9226 96.7244 83.2122 95.4038 84.4013C88.637 96.6477 81.6744 108.767 74.5161 120.762C72.8837 123.955 73.2705 126.92 75.6765 129.658L114.358 152.093C118.564 153.374 121.787 152.213 124.028 148.612C130.279 137.397 136.726 126.308 143.368 115.346C147.344 110.572 146.957 106.317 142.208 102.581C130.993 96.3298 119.904 89.8832 108.942 83.2409ZM54.789 157.122C57.2251 156.898 59.546 157.285 61.7516 158.282C73.7458 165.44 85.8654 172.403 98.1118 179.17C101.855 181.641 102.758 184.864 100.819 188.84L78.3844 227.521C75.8655 229.013 73.1579 229.4 70.2614 228.682C58.2672 221.523 46.1476 214.561 33.9012 207.794C28.9059 204.783 28.0031 200.786 31.1935 195.803C38.0934 184.324 44.7984 172.72 51.3077 160.99C52.3644 159.549 53.5249 158.26 54.789 157.122ZM19.9759 236.418C17.1993 234.382 14.1048 233.48 10.6924 233.71C8.84576 235.577 7.16933 237.64 5.66386 239.899C-0.845398 251.629 -7.55038 263.234 -14.4503 274.712C-15.5666 278.357 -14.6646 281.322 -11.7426 283.608C-0.012207 290.118 11.5921 296.823 23.0703 303.723C28.9096 307.967 33.4222 306.807 36.6087 300.241C42.2306 289.727 48.162 279.412 54.402 269.296C56.8088 266.03 57.5824 262.42 56.7229 258.466C44.666 250.825 32.4173 243.475 19.9759 236.418ZM-33.404 310.299C-30.595 310.036 -28.0165 310.681 -25.6678 312.233C-13.6736 319.391 -1.55402 326.354 10.6924 333.121C13.6515 336.703 13.7799 340.447 11.0792 344.338C4.83919 354.457 -1.09216 364.77 -6.71407 375.283C-9.72501 380.281 -13.7215 381.178 -18.7052 377.991C-30.1099 370.974 -41.7143 364.274 -53.5182 357.877C-57.8025 354.48 -58.4469 350.481 -55.4522 345.885C-49.2122 335.766 -43.2809 325.455 -37.6589 314.941C-36.6068 312.989 -35.1888 311.441 -33.404 310.299ZM245.873 72.7969C247.273 72.7899 248.565 73.1767 249.741 73.9573C277.62 90.0516 305.501 106.146 333.382 122.241L334.955 123.149C363.283 139.502 391.612 155.855 419.938 172.207C420.603 172.74 421.114 173.385 421.485 174.141C397.155 217.521 372.144 260.457 346.444 302.949C336.511 310.42 325.935 311.452 314.726 306.044C270.753 280.319 226.656 254.789 182.436 229.455C172.014 220.388 169.306 209.429 174.313 196.576C198.371 155.422 222.224 114.162 245.873 72.7969ZM511.226 270.071C511.449 270.142 511.668 270.197 511.882 270.236C511.668 270.197 511.449 270.142 511.226 270.07C517.26 258.515 523.712 247.168 530.566 236.031C536.531 239.265 542.202 242.876 547.586 246.862C545.273 250.945 542.962 255.023 540.654 259.095L540.648 259.106L540.486 259.391L537.988 263.799C536.802 265.891 535.618 267.981 534.435 270.07C533.784 269.935 533.134 269.819 532.486 269.722C533.134 269.819 533.784 269.936 534.434 270.071C529.56 279.057 524.4 287.824 518.962 296.374C511.906 308.652 504.851 320.928 497.797 333.202L497.634 333.485C478.95 365.997 460.273 398.496 441.6 430.983C403.816 432.012 365.908 432.012 327.877 430.984C327.97 430.512 328.233 430.256 328.651 430.21C332.17 430.283 335.691 430.35 339.213 430.414C335.691 430.35 332.171 430.282 328.651 430.21C373.32 352.484 418.19 274.864 463.261 197.35C469.35 200.777 475.283 204.387 481.055 208.18C474.092 219.927 467.261 231.789 460.554 243.767C459.888 247.211 461.049 249.919 464.035 251.89C475.763 258.399 487.367 265.104 498.848 272.004C501.2 273.556 503.776 274.201 506.584 273.938L506.585 273.938C508.116 272.672 509.663 271.382 511.226 270.071ZM156.133 277.032C160.672 279.428 165.055 282.006 169.285 284.769C167.491 285.354 165.428 285.87 163.096 286.316C163.071 286.764 163.098 287.2 163.178 287.624C163.099 287.201 163.071 286.765 163.096 286.317C165.428 285.87 167.492 285.354 169.285 284.77C208.203 307.067 247.142 329.373 286.102 351.688C298.596 358.202 303.361 368.39 300.414 382.246C292.19 398.724 283.294 414.846 273.724 430.597C195.588 431.116 117.452 431.116 39.3165 430.597C51.0276 410.653 62.6319 390.671 74.1295 370.642C77.0035 370.781 79.8404 370.526 82.6393 369.868C85.9249 368.259 88.891 366.193 91.536 363.679C91.9955 360.724 92.3823 357.761 92.6964 354.782C92.7126 354.288 92.6963 353.804 92.6481 353.328C92.6962 353.803 92.7121 354.288 92.6959 354.781C92.3818 357.76 91.995 360.723 91.5355 363.678C88.8905 366.192 85.9244 368.258 82.6389 369.867C79.8399 370.525 77.003 370.78 74.129 370.641C75.3954 367.84 76.9427 365.264 78.7707 362.904C78.7594 363.27 78.807 363.608 78.9132 363.917C78.8072 363.608 78.7599 363.271 78.7712 362.905C82.0791 356.515 85.6888 350.326 89.6019 344.338C90.2974 342.103 91.3294 340.037 92.6964 338.149C94.4742 337.523 96.4082 336.749 98.4986 335.829L106.622 343.952C106.974 343.93 107.301 343.882 107.6 343.808C107.301 343.882 106.974 343.93 106.622 343.951L98.4986 335.828C96.4083 336.749 94.4742 337.523 92.6965 338.149C103.007 321.145 112.934 303.868 122.481 286.316C123.654 284.97 124.815 283.682 125.962 282.448L125.962 282.449L125.94 282.535L125.921 282.611C125.905 282.67 125.889 282.728 125.873 282.786C125.904 282.674 125.934 282.562 125.962 282.449C134.661 273.402 144.718 271.597 156.133 277.033L156.133 277.032ZM157.68 295.213C158.83 292.235 160.893 290.301 163.869 289.41L163.87 289.411C160.893 290.302 158.83 292.236 157.681 295.213C156.349 295.785 155.06 296.43 153.813 297.148L153.812 297.147C155.06 296.429 156.349 295.784 157.68 295.213ZM155.746 306.43L159.227 302.949L159.228 302.95L155.747 306.431C150.32 300.876 144.776 295.46 139.114 290.185L139.113 290.184C144.775 295.459 150.32 300.875 155.746 306.43ZM101.98 331.96L101.98 331.96C102.067 331.89 102.152 331.82 102.236 331.748C102.152 331.82 102.067 331.891 101.98 331.96ZM127.51 293.666C128.38 293.859 129.153 294.246 129.83 294.826L129.83 294.827C129.152 294.246 128.379 293.859 127.509 293.666L127.51 293.666ZM106.622 326.932C107.694 328.004 108.766 329.076 109.838 330.148L109.81 330.12C108.747 329.057 107.684 327.995 106.622 326.932C106.205 326.781 105.856 326.684 105.575 326.64C105.856 326.684 106.205 326.781 106.622 326.932ZM109.838 330.148C111.989 332.298 114.14 334.449 116.292 336.602L116.292 336.602C114.161 334.47 112.031 332.341 109.901 330.211L109.838 330.148ZM130.604 311.072C129.309 312.497 128.014 313.921 126.719 315.346L126.716 315.349C128.012 313.923 129.308 312.498 130.604 311.072ZM134.472 311.46C132.323 310.277 130.26 309.246 128.284 308.365L128.283 308.365C130.26 309.245 132.323 310.276 134.472 311.459C135.199 311.557 135.895 311.614 136.559 311.631C135.895 311.614 135.199 311.558 134.472 311.46ZM447.789 278.966C445.739 278.582 443.681 278.453 441.6 278.579C440.68 279.248 439.782 280.021 438.892 280.9C431.806 294.047 424.325 306.941 416.457 319.581C415.243 323.475 416.403 326.441 419.939 328.478C431.667 334.984 443.271 341.691 454.752 348.592C460.237 351.911 464.492 350.751 467.516 345.111C474.023 333.383 480.73 321.776 487.631 310.298C489.449 307.012 489.062 304.046 486.47 301.401C480.014 297.658 473.561 293.914 467.107 290.17L465.355 289.154L455.836 283.633C453.154 282.077 450.472 280.522 447.789 278.966ZM397.503 355.168C401.209 354.758 404.559 355.663 407.561 357.875C418.523 364.521 429.609 370.965 440.826 377.216C444.54 380.79 444.926 384.782 441.987 389.207C435.086 400.687 428.379 412.292 421.872 424.02C419.513 426.828 416.55 427.733 412.976 426.728C406.806 423.149 400.639 419.572 394.471 415.995L393.642 415.514C387.193 411.774 380.745 408.034 374.295 404.293C371.742 401.361 371.355 398.135 373.134 394.622C376.742 388.435 380.352 382.247 383.962 376.06C387.574 369.869 391.186 363.679 394.796 357.488C395.685 356.607 396.583 355.833 397.503 355.168ZM121.32 326.545C121.036 326.488 120.763 326.413 120.501 326.319C120.763 326.413 121.036 326.488 121.32 326.545C121.635 326.548 121.894 326.532 122.096 326.497C121.894 326.532 121.635 326.548 121.32 326.545ZM124.059 325.245C123.434 325.324 122.779 325.37 122.094 325.385L122.094 325.384C122.779 325.37 123.434 325.324 124.059 325.245ZM516.607 268.105C516.5 267.982 516.382 267.864 516.254 267.749C516.235 267.784 516.216 267.818 516.196 267.852C516.216 267.819 516.235 267.784 516.254 267.75C516.382 267.864 516.5 267.982 516.607 268.105Z" fill="white"/>
</svg>
