<svg width="20" height="23" viewBox="0 0 20 23" fill="none" xmlns="http://www.w3.org/2000/svg">
<path d="M11.7993 20.6406C11.6235 20.9437 11.3712 21.1953 11.0676 21.3702C10.7639 21.545 10.4197 21.6371 10.0693 21.6371C9.71896 21.6371 9.37473 21.545 9.07111 21.3702C8.76749 21.1953 8.51515 20.9437 8.33934 20.6406M16.0693 7.64062C16.0693 6.04933 15.4372 4.5232 14.312 3.39798C13.1868 2.27277 11.6606 1.64063 10.0693 1.64062C8.47804 1.64063 6.95191 2.27277 5.8267 3.39798C4.70148 4.5232 4.06934 6.04933 4.06934 7.64062C4.06934 14.6406 1.06934 16.6406 1.06934 16.6406H19.0693C19.0693 16.6406 16.0693 14.6406 16.0693 7.64062Z" stroke="#090A0A" stroke-width="1.5" stroke-linecap="round" stroke-linejoin="round"/>
</svg>
