<svg width="33" height="33" viewBox="0 0 33 33" fill="none" xmlns="http://www.w3.org/2000/svg">
<rect x="0.546875" y="1" width="31" height="31" rx="7.5" fill="white" stroke="#E8E6EA"/>
<path d="M19.8945 14.6934C19.8945 13.6325 19.4731 12.6151 18.723 11.8649C17.9728 11.1148 16.9554 10.6934 15.8945 10.6934C14.8337 10.6934 13.8162 11.1148 13.0661 11.8649C12.316 12.6151 11.8945 13.6325 11.8945 14.6934C11.8945 19.36 9.89453 20.6934 9.89453 20.6934H21.8945C21.8945 20.6934 19.8945 19.36 19.8945 14.6934Z" stroke="black" stroke-width="1.33333" stroke-linecap="round" stroke-linejoin="round"/>
<path d="M17.0469 23.3594C16.9297 23.5614 16.7615 23.7291 16.5591 23.8457C16.3566 23.9623 16.1272 24.0237 15.8936 24.0237C15.66 24.0237 15.4305 23.9623 15.2281 23.8457C15.0257 23.7291 14.8574 23.5614 14.7402 23.3594" stroke="black" stroke-width="1.33333" stroke-linecap="round" stroke-linejoin="round"/>
</svg>
