<svg width="98" height="99" viewBox="0 0 98 99" fill="none" xmlns="http://www.w3.org/2000/svg">
<circle cx="48.9641" cy="49.8504" r="46.3011" fill="#EB545D" stroke="white" stroke-width="5.14456"/>
<path fill-rule="evenodd" clip-rule="evenodd" d="M48.964 47.6519C47.6265 47.6519 46.3712 48.1515 45.404 49.0908C44.4574 50.0101 43.9429 51.2291 43.9635 52.4882V52.5081C43.9635 53.8071 44.478 55.0262 45.4246 55.9455C46.3712 56.8647 47.6265 57.3644 48.964 57.3644C51.7215 57.3644 53.944 55.1861 53.9646 52.5081C53.9646 51.2092 53.4501 49.9901 52.5035 49.0708C51.5569 48.1515 50.3016 47.6519 48.964 47.6519ZM60.5084 47.7918C59.4795 47.7918 58.6563 46.9924 58.6563 45.9932C58.6563 44.994 59.4795 44.1746 60.5084 44.1746C61.5373 44.1746 62.381 44.994 62.381 45.9932C62.381 46.9924 61.5373 47.7918 60.5084 47.7918ZM54.6641 58.0638C53.203 59.4827 51.1864 60.362 48.9639 60.362C46.8032 60.362 44.7865 59.5427 43.2432 58.0638C41.7204 56.565 40.8767 54.6065 40.8767 52.5081C40.8561 50.4298 41.6998 48.4713 43.2226 46.9725C44.7659 45.4736 46.8032 44.6543 48.9639 44.6543C51.1246 44.6543 53.1619 45.4736 54.6847 46.9525C56.2075 48.4513 57.0512 50.4298 57.0512 52.5081C57.0306 54.6864 56.1251 56.6449 54.6641 58.0638ZM60.5701 38.559C60.3849 38.559 60.2409 38.4591 60.1586 38.3192L59.9528 37.8795C59.3972 36.7404 58.7592 35.4215 58.3683 34.662C57.4217 32.8634 55.796 31.8642 53.7999 31.8442H44.1075C42.1114 31.8642 40.5063 32.8634 39.5597 34.662C39.1482 35.4614 38.4485 36.9003 37.8723 38.0794L37.7488 38.3192C37.6871 38.4791 37.5225 38.559 37.3579 38.559C32.3985 38.559 28.3857 42.476 28.3857 47.2722V59.143C28.3857 63.9392 32.3985 67.8562 37.3579 67.8562H60.5701C65.5089 67.8562 69.5423 63.9392 69.5423 59.143V47.2722C69.5423 42.476 65.5089 38.559 60.5701 38.559Z" fill="white"/>
</svg>
