<svg width="41" height="41" viewBox="0 0 41 41" fill="none" xmlns="http://www.w3.org/2000/svg">
<g clip-path="url(#clip0_578_93220)">
<path d="M38.3659 32.2409C38.3659 33.1249 38.0147 33.9728 37.3896 34.5979C36.7645 35.223 35.9166 35.5742 35.0326 35.5742H5.03255C4.1485 35.5742 3.30065 35.223 2.67553 34.5979C2.05041 33.9728 1.69922 33.1249 1.69922 32.2409V13.9076C1.69922 13.0235 2.05041 12.1757 2.67553 11.5505C3.30065 10.9254 4.1485 10.5742 5.03255 10.5742H11.6992L15.0326 5.57422H25.0326L28.3659 10.5742H35.0326C35.9166 10.5742 36.7645 10.9254 37.3896 11.5505C38.0147 12.1757 38.3659 13.0235 38.3659 13.9076V32.2409Z" stroke="white" stroke-width="2" stroke-linecap="round" stroke-linejoin="round"/>
<g clip-path="url(#clip1_578_93220)">
<path d="M10.1562 15.1179V20.4533H15.4917" stroke="white" stroke-width="1.77848" stroke-linecap="round" stroke-linejoin="round"/>
<path d="M29.7192 29.3435V24.0081H24.3838" stroke="white" stroke-width="1.77848" stroke-linecap="round" stroke-linejoin="round"/>
<path d="M27.4875 19.5631C27.0365 18.2886 26.27 17.1491 25.2595 16.251C24.2491 15.3529 23.0276 14.7254 21.709 14.4271C20.3904 14.1287 19.0177 14.1692 17.7191 14.5449C16.4204 14.9205 15.238 15.619 14.2823 16.5752L10.1562 20.4523M29.7195 24.0093L25.5934 27.8863C24.6377 28.8425 23.4554 29.541 22.1567 29.9167C20.858 30.2923 19.4853 30.3328 18.1668 30.0345C16.8482 29.7362 15.6267 29.1086 14.6162 28.2105C13.6057 27.3124 12.8392 26.173 12.3882 24.8985" stroke="white" stroke-width="1.77848" stroke-linecap="round" stroke-linejoin="round"/>
</g>
</g>
<defs>
<clipPath id="clip0_578_93220">
<rect width="40" height="40" fill="white" transform="translate(0.0322266 0.574219)"/>
</clipPath>
<clipPath id="clip1_578_93220">
<rect width="21.3417" height="21.3417" fill="white" transform="translate(9.2666 11.5625)"/>
</clipPath>
</defs>
</svg>
