<svg width="98" height="98" viewBox="0 0 98 98" fill="none" xmlns="http://www.w3.org/2000/svg">
<circle cx="48.9641" cy="49.0769" r="46.3011" fill="#EB545D" stroke="white" stroke-width="5.14456"/>
<path fill-rule="evenodd" clip-rule="evenodd" d="M48.964 46.8785C47.6265 46.8785 46.3712 47.3781 45.404 48.3174C44.4574 49.2367 43.9429 50.4557 43.9635 51.7147V51.7347C43.9635 53.0337 44.478 54.2527 45.4246 55.172C46.3712 56.0913 47.6265 56.5909 48.964 56.5909C51.7215 56.5909 53.944 54.4126 53.9646 51.7347C53.9646 50.4357 53.4501 49.2167 52.5035 48.2974C51.5569 47.3781 50.3016 46.8785 48.964 46.8785ZM60.5084 47.0184C59.4795 47.0184 58.6563 46.219 58.6563 45.2198C58.6563 44.2206 59.4795 43.4012 60.5084 43.4012C61.5373 43.4012 62.381 44.2206 62.381 45.2198C62.381 46.219 61.5373 47.0184 60.5084 47.0184ZM54.6641 57.2904C53.203 58.7093 51.1864 59.5886 48.9639 59.5886C46.8032 59.5886 44.7865 58.7692 43.2432 57.2904C41.7204 55.7915 40.8767 53.8331 40.8767 51.7347C40.8561 49.6563 41.6998 47.6979 43.2226 46.199C44.7659 44.7002 46.8032 43.8808 48.9639 43.8808C51.1246 43.8808 53.1619 44.7002 54.6847 46.179C56.2075 47.6779 57.0512 49.6563 57.0512 51.7347C57.0306 53.913 56.1251 55.8715 54.6641 57.2904ZM60.5701 37.7856C60.3849 37.7856 60.2409 37.6856 60.1586 37.5458L59.9528 37.1061C59.3972 35.967 58.7592 34.648 58.3683 33.8886C57.4217 32.09 55.796 31.0908 53.7999 31.0708H44.1075C42.1114 31.0908 40.5063 32.09 39.5597 33.8886C39.1482 34.688 38.4485 36.1269 37.8723 37.3059L37.7488 37.5458C37.6871 37.7056 37.5225 37.7856 37.3579 37.7856C32.3985 37.7856 28.3857 41.7025 28.3857 46.4988V58.3695C28.3857 63.1658 32.3985 67.0827 37.3579 67.0827H60.5701C65.5089 67.0827 69.5423 63.1658 69.5423 58.3695V46.4988C69.5423 41.7025 65.5089 37.7856 60.5701 37.7856Z" fill="white"/>
</svg>
