<svg width="25" height="25" viewBox="0 0 25 25" fill="none" xmlns="http://www.w3.org/2000/svg">
<path fill-rule="evenodd" clip-rule="evenodd" d="M19.3269 17.9993C21.4081 15.9145 22.6247 13.743 22.6247 11.2145C22.6247 6.08332 17.9272 1.92383 12.1316 1.92383C6.33625 1.92383 1.63867 6.08332 1.63867 11.2146C1.63867 16.3459 6.48823 19.8684 12.2838 19.8684V21.5701C12.2838 22.1092 12.8428 22.4562 13.3169 22.1993C14.7979 21.3968 17.5425 19.7869 19.3269 17.9993ZM7.03452 9.96158C7.86281 9.96158 8.53421 10.6282 8.53421 11.4493C8.53421 12.272 7.86281 12.9385 7.03452 12.9385C6.20765 12.9385 5.5362 12.272 5.5362 11.4493C5.5362 10.6282 6.20765 9.96158 7.03452 9.96158ZM13.6307 11.4493C13.6307 10.6282 12.9596 9.96158 12.1317 9.96158C11.3039 9.96158 10.6327 10.6282 10.6327 11.4493C10.6328 12.272 11.304 12.9385 12.1317 12.9385C12.9596 12.9385 13.6307 12.272 13.6307 11.4493ZM17.2287 9.96158C18.0568 9.96158 18.7273 10.6282 18.7273 11.4493C18.7273 12.272 18.0569 12.9385 17.2287 12.9385C16.4005 12.9385 15.7292 12.272 15.7292 11.4493C15.7292 10.6282 16.4006 9.96158 17.2287 9.96158Z" stroke="black"/>
</svg>
