<svg width="102" height="87" viewBox="0 0 102 87" fill="none" xmlns="http://www.w3.org/2000/svg">
<path d="M43.0174 0.0625C37.8597 0.0625 33.6711 4.25114 33.6711 9.40881V32.7746H10.3053C5.14765 32.7746 0.958984 36.9632 0.958984 42.1209V67.8232C0.958984 72.9809 5.14765 77.1695 10.3053 77.1695H11.4736V85.3476C11.4743 85.5559 11.5308 85.7602 11.6371 85.9394C11.7434 86.1186 11.8956 86.2661 12.0781 86.3666C12.2606 86.4672 12.4666 86.5171 12.6749 86.5113C12.8831 86.5054 13.086 86.444 13.2625 86.3333L28.1582 77.1695H59.3734C64.5311 77.1695 68.7197 72.9809 68.7197 67.8232V44.4575H74.2326L89.1283 53.6212C89.3048 53.7319 89.5077 53.7933 89.7159 53.7992C89.9242 53.805 90.1302 53.7551 90.3127 53.6546C90.4952 53.554 90.6474 53.4065 90.7537 53.2273C90.86 53.0482 90.9165 52.8438 90.9172 52.6355V44.4575H92.0855C97.2431 44.4575 101.432 40.2688 101.432 35.1112V9.40881C101.432 4.25114 97.2431 0.0625 92.0855 0.0625H43.0174ZM43.0174 2.39908H92.0855C95.9891 2.39908 99.0952 5.50518 99.0952 9.40881V35.1112C99.0952 39.0148 95.9891 42.1209 92.0855 42.1209H89.7489C89.4391 42.1209 89.1419 42.244 88.9228 42.4631C88.7038 42.6822 88.5807 42.9793 88.5806 43.2892V50.5545L75.1818 42.3034C74.9962 42.1854 74.7811 42.1221 74.5612 42.1209H68.7197C68.7197 36.9632 64.5311 32.7746 59.3734 32.7746H36.0076V9.40881C36.0076 5.50518 39.1138 2.39908 43.0174 2.39908ZM46.3032 11.7454C45.9933 11.7744 45.7077 11.9254 45.5092 12.165C45.3106 12.4047 45.2154 12.7134 45.2444 13.0232C45.2735 13.3331 45.4244 13.6187 45.6641 13.8172C45.9037 14.0158 46.2124 14.111 46.5222 14.082H88.5806C88.7354 14.0842 88.8891 14.0556 89.0328 13.9978C89.1765 13.9401 89.3072 13.8544 89.4175 13.7457C89.5277 13.637 89.6153 13.5074 89.675 13.3646C89.7348 13.2218 89.7656 13.0685 89.7656 12.9137C89.7656 12.7588 89.7348 12.6056 89.675 12.4627C89.6153 12.3199 89.5277 12.1904 89.4175 12.0817C89.3072 11.973 89.1765 11.8873 89.0328 11.8295C88.8891 11.7718 88.7354 11.7432 88.5806 11.7454H46.5222C46.4494 11.7385 46.376 11.7385 46.3032 11.7454ZM46.3032 21.0917C46.1498 21.1061 46.0007 21.1505 45.8644 21.2225C45.7282 21.2945 45.6075 21.3927 45.5092 21.5113C45.4108 21.63 45.3369 21.7668 45.2914 21.9141C45.246 22.0613 45.23 22.2161 45.2444 22.3695C45.2588 22.5229 45.3033 22.672 45.3753 22.8083C45.4473 22.9445 45.5454 23.0652 45.6641 23.1635C45.7827 23.2619 45.9196 23.3358 46.0668 23.3813C46.2141 23.4267 46.3688 23.4427 46.5222 23.4283H88.5806C88.7354 23.4305 88.8891 23.4019 89.0328 23.3441C89.1765 23.2864 89.3072 23.2007 89.4175 23.092C89.5277 22.9833 89.6153 22.8538 89.675 22.7109C89.7348 22.5681 89.7656 22.4148 89.7656 22.26C89.7656 22.1052 89.7348 21.9519 89.675 21.809C89.6153 21.6662 89.5277 21.5367 89.4175 21.428C89.3072 21.3193 89.1765 21.2336 89.0328 21.1758C88.8891 21.1181 88.7354 21.0895 88.5806 21.0917H46.5222C46.4494 21.0848 46.376 21.0848 46.3032 21.0917ZM74.3421 30.438C74.0323 30.4671 73.7466 30.618 73.5481 30.8576C73.3495 31.0973 73.2543 31.406 73.2833 31.7158C73.3124 32.0257 73.4633 32.3113 73.703 32.5098C73.9426 32.7084 74.2513 32.8036 74.5612 32.7746H88.5806C88.7354 32.7768 88.8891 32.7482 89.0328 32.6904C89.1765 32.6327 89.3072 32.547 89.4175 32.4383C89.5277 32.3296 89.6153 32.2001 89.675 32.0572C89.7348 31.9144 89.7656 31.7611 89.7656 31.6063C89.7656 31.4515 89.7348 31.2982 89.675 31.1553C89.6153 31.0125 89.5277 30.883 89.4175 30.7743C89.3072 30.6656 89.1765 30.5799 89.0328 30.5221C88.8891 30.4644 88.7354 30.4358 88.5806 30.438H74.5612C74.4883 30.4311 74.415 30.4311 74.3421 30.438ZM10.3053 35.1112H59.3734C63.277 35.1112 66.3831 38.2173 66.3831 42.1209V67.8232C66.3831 71.7268 63.277 74.833 59.3734 74.833H27.8296C27.6097 74.8342 27.3945 74.8975 27.209 75.0155L13.8102 83.2666V76.0013C13.8101 75.6914 13.687 75.3943 13.4679 75.1752C13.2489 74.9561 12.9517 74.833 12.6419 74.833H10.3053C6.40169 74.833 3.29556 71.7268 3.29556 67.8232V42.1209C3.29556 38.2173 6.40169 35.1112 10.3053 35.1112ZM13.5911 44.4575C13.2813 44.4865 12.9956 44.6375 12.7971 44.8771C12.5985 45.1167 12.5033 45.4254 12.5323 45.7353C12.5614 46.0451 12.7123 46.3308 12.952 46.5293C13.1916 46.7279 13.5003 46.8231 13.8102 46.794H55.8685C56.0234 46.7962 56.1771 46.7676 56.3207 46.7099C56.4644 46.6522 56.5951 46.5665 56.7054 46.4578C56.8156 46.3491 56.9032 46.2195 56.9629 46.0767C57.0227 45.9339 57.0535 45.7806 57.0535 45.6258C57.0535 45.4709 57.0227 45.3176 56.9629 45.1748C56.9032 45.032 56.8156 44.9025 56.7054 44.7937C56.5951 44.685 56.4644 44.5993 56.3207 44.5416C56.1771 44.4839 56.0234 44.4553 55.8685 44.4575H13.8102C13.7373 44.4506 13.664 44.4506 13.5911 44.4575ZM13.5911 53.8038C13.2813 53.8328 12.9956 53.9838 12.7971 54.2234C12.5985 54.463 12.5033 54.7717 12.5323 55.0816C12.5614 55.3914 12.7123 55.6771 12.952 55.8756C13.1916 56.0742 13.5003 56.1694 13.8102 56.1404H55.8685C56.0234 56.1425 56.1771 56.1139 56.3207 56.0562C56.4644 55.9985 56.5951 55.9128 56.7054 55.8041C56.8156 55.6954 56.9032 55.5658 56.9629 55.423C57.0227 55.2802 57.0535 55.1269 57.0535 54.9721C57.0535 54.8172 57.0227 54.664 56.9629 54.5211C56.9032 54.3783 56.8156 54.2488 56.7054 54.1401C56.5951 54.0314 56.4644 53.9456 56.3207 53.8879C56.1771 53.8302 56.0234 53.8016 55.8685 53.8038H13.8102C13.7373 53.7969 13.664 53.7969 13.5911 53.8038ZM13.5911 63.1501C13.2813 63.1791 12.9956 63.3301 12.7971 63.5697C12.5985 63.8094 12.5033 64.118 12.5323 64.4279C12.5614 64.7377 12.7123 65.0234 12.952 65.2219C13.1916 65.4205 13.5003 65.5157 13.8102 65.4867H32.5028C32.6576 65.4889 32.8113 65.4603 32.955 65.4025C33.0986 65.3448 33.2294 65.2591 33.3396 65.1504C33.4499 65.0417 33.5374 64.9121 33.5972 64.7693C33.6569 64.6265 33.6877 64.4732 33.6877 64.3184C33.6877 64.1635 33.6569 64.0103 33.5972 63.8674C33.5374 63.7246 33.4499 63.5951 33.3396 63.4864C33.2294 63.3777 33.0986 63.292 32.955 63.2342C32.8113 63.1765 32.6576 63.1479 32.5028 63.1501H13.8102C13.7373 63.1432 13.664 63.1432 13.5911 63.1501Z" fill="#ADAFBB"/>
</svg>
