<svg width="22" height="21" viewBox="0 0 22 21" fill="none" xmlns="http://www.w3.org/2000/svg">
<path d="M15.0447 6.58965H6.33545V5.60921H15.0447V6.58965ZM15.4464 8.06031H6.73694V9.04074H15.4464V8.06031ZM15.8484 10.5114H7.13843V11.4918H15.8484V10.5114ZM7.53919 13.9429H16.2494V12.9625H7.53919V13.9429ZM19.8951 17.2874C20.0741 18.3809 19.8385 19.4317 19.2655 20.1062C19.0926 20.3211 18.8745 20.4952 18.6267 20.6161C18.3789 20.7371 18.1075 20.8019 17.8318 20.806H4.0807C2.69068 20.806 1.35998 19.3336 1.05262 17.4539L0.958984 16.8842H5.07437L2.78162 4.22557C2.59926 3.11204 2.825 2.05905 3.38409 1.40069C3.56151 1.18465 3.78445 1.01046 4.03697 0.890548C4.2895 0.770639 4.5654 0.707975 4.84495 0.707031H18.5956C19.9856 0.707031 21.3163 2.1794 21.6236 4.05914L21.7178 4.62878H17.6024L19.8951 17.2874ZM18.5961 1.68747C18.4586 1.6878 18.323 1.71929 18.1995 1.77957C18.0759 1.83986 17.9676 1.92737 17.8828 2.03552C17.5447 2.50132 17.392 3.07619 17.4543 3.64834H20.5182C20.1648 2.53996 19.3615 1.68747 18.5961 1.68747ZM15.9386 19.8255C15.437 19.2655 15.0776 18.5929 14.8907 17.8647H2.15732C2.512 18.9728 3.31522 19.8255 4.0807 19.8255H15.9386ZM18.9289 17.4539L16.533 4.22557C16.3612 3.35934 16.5014 2.46026 16.9288 1.68747H4.84495C4.70756 1.68787 4.57206 1.7194 4.44861 1.77968C4.32516 1.83996 4.21697 1.92743 4.13217 2.03552C3.75691 2.47672 3.61352 3.23386 3.74857 4.0589L6.07074 16.8842H15.7035L15.7707 17.2953C16.0084 18.7434 17.0548 19.8255 17.8318 19.8255C17.9651 19.8202 18.0957 19.7856 18.2142 19.7244C18.3328 19.6632 18.4365 19.5767 18.5181 19.4711C18.9015 19.0199 19.0591 18.247 18.9289 17.4539Z" fill="#ADAFBB"/>
</svg>
