<svg width="33" height="30" viewBox="0 0 33 30" fill="none" xmlns="http://www.w3.org/2000/svg">
<path d="M12.7888 1.82263L14.9944 2.64983L15.8215 2.41983L17.2919 1.82263L18.992 1.40918H21.2435L23.541 1.82263L25.5168 3.43094L26.8034 5.6365L28.7792 6.55549L30.801 8.20966L31.3983 10.0936V11.9315L30.4334 13.6317L28.2738 15.5156L26.8034 15.8832L26.4358 17.5833V20.57L25.0573 23.7405L23.541 25.7622L21.5652 27.4624L18.992 28.5651L16.0513 28.9327L13.2484 28.5651L11.0428 27.784L8.65346 26.0839L7.36661 24.3838C7.12164 23.8324 6.6225 22.6653 6.58574 22.4079C6.5398 22.0863 6.0803 20.6159 6.03436 20.3402C5.9976 20.1197 5.74325 18.778 5.62067 18.1347V17.0778L5.11518 15.8832L4.01259 15.5156L2.26652 14.6425L1.20969 13.2641L0.612305 11.2883V9.22054L1.8988 7.33662L3.69073 6.05005H5.11518L5.62067 4.90132L7.36661 3.15525L10.1237 1.82263H12.7888Z" fill="url(#paint0_linear_578_99303)"/>
<path fill-rule="evenodd" clip-rule="evenodd" d="M15.3663 2.08534C15.3478 2.07104 15.3282 2.05806 15.3075 2.04614C14.0527 1.32343 12.3992 0.848593 10.2933 1.14838C7.72813 1.51358 5.72232 3.191 4.67864 5.23043C4.5886 5.21428 4.49326 5.22037 4.40083 5.25242C0.822744 6.49737 0.0298492 9.02515 0.0552727 10.4703C0.0711624 11.376 0.268989 12.5874 1.04679 13.7325C1.75997 14.7822 2.96467 15.7891 5.00438 16.4244C4.91778 18.7668 5.1405 29.2424 16.0527 29.2448H16.0917C16.6165 29.2432 17.1414 29.2183 17.6634 29.1635C18.567 29.0686 19.4629 28.8849 20.3218 28.5861C20.7002 28.4545 21.0707 28.3009 21.4301 28.124C21.7905 27.9463 22.1395 27.7456 22.4732 27.5221C22.8938 27.2405 23.2899 26.9225 23.6562 26.5732C23.9036 26.3372 24.1371 26.087 24.3564 25.8245C24.5137 25.6362 24.6636 25.4418 24.8058 25.2419C24.9123 25.0925 25.0142 24.9402 25.1125 24.7853C25.8198 23.6667 26.3063 22.4183 26.6241 21.1365C26.6782 20.9183 26.7274 20.6988 26.7719 20.4784C26.8315 20.1847 26.8829 19.8892 26.9266 19.5928C26.9861 19.1866 27.0317 18.7782 27.0632 18.3688C27.0865 18.0666 27.1024 17.7642 27.1106 17.4612C27.1196 17.1196 27.1191 16.7777 27.1072 16.4364L27.1069 16.4242C29.1461 15.7889 30.3569 14.7828 31.0732 13.7335C31.8574 12.585 32.0547 11.3694 32.0547 10.4605C32.0547 8.84851 30.9771 6.86283 27.4777 5.33981C27.4146 5.17429 27.3455 5.01142 27.27 4.85173C26.3151 2.82977 24.3808 1.29986 21.4992 0.871103C18.7415 0.460885 16.7349 1.1595 15.3663 2.08534ZM6.09547 16.7367C6.08355 17.2716 6.0997 17.8074 6.14102 18.3407C6.16909 18.7059 6.20961 19.0703 6.26257 19.4329C6.30124 19.6977 6.34679 19.962 6.39949 20.2245C6.43974 20.4252 6.4845 20.6251 6.53323 20.8238C6.8158 21.9694 7.24694 23.0857 7.87405 24.0883C7.96224 24.2292 8.05387 24.3674 8.14974 24.5033C8.27765 24.685 8.41245 24.8616 8.55413 25.0327C8.74719 25.2657 8.95269 25.4884 9.17012 25.6987C9.48844 26.0064 9.83245 26.2877 10.1974 26.5385C10.7731 26.9336 11.4002 27.2511 12.0552 27.4924C12.7554 27.7501 13.4855 27.9209 14.2241 28.0218C14.651 28.0803 15.0808 28.1153 15.5117 28.1314L15.5202 28.1317C15.5726 27.2668 15.7826 25.525 16.6025 23.5719C14.8862 21.1217 11.7583 18.403 6.09547 16.7359V16.7367ZM26.0158 16.7412C17.8265 19.2901 16.7617 26.1426 16.6261 28.1304C25.6098 27.784 26.072 19.2258 26.0158 16.7412ZM22.5564 11.9915C22.3141 12.4097 22.0124 12.8114 21.6631 13.1983C20.5781 14.3996 19.022 15.4576 17.4481 16.425C17.4163 16.4573 17.38 16.4861 17.3395 16.5105C17.3006 16.5341 17.2603 16.5521 17.219 16.5651C16.937 16.7367 16.6549 16.9056 16.3756 17.0722C15.1486 17.8034 14.2789 18.7772 13.8896 19.2631C15.2765 20.2944 16.3334 21.3844 17.1401 22.4387C18.1904 20.4649 19.9121 18.4104 22.7346 16.907C22.9952 15.6551 22.7937 13.6014 22.5564 11.9915ZM9.05412 10.755C8.8412 12.2833 8.71197 14.5209 9.29406 16.5479L9.32822 16.6C9.35629 16.6427 9.37748 16.6879 9.39231 16.7343C10.7639 17.3114 11.9529 17.953 12.9839 18.6302C13.4105 18.091 14.4007 16.9647 15.8107 16.1244C15.9598 16.0354 16.1099 15.9456 16.2604 15.8556C14.7389 13.8797 11.6966 12.6536 11.6966 12.6536C11.6558 12.6369 11.6182 12.616 11.5838 12.5913C10.4961 12.1726 9.62112 11.5185 9.05412 10.755ZM27.8527 6.73757C28.1143 8.32548 27.8826 10.0802 27.127 11.8003C26.783 12.5834 26.1294 13.4782 25.519 14.3771C25.1226 14.961 24.7404 15.5439 24.5095 16.0971C25.0937 15.871 25.7155 15.6662 26.3773 15.487C26.3831 15.4854 26.3887 15.4838 26.3945 15.4822C30.2735 14.4298 30.9514 11.9565 30.9514 10.4605C30.9514 9.26058 30.1246 7.91182 27.8527 6.73757ZM4.15825 6.53233C1.76156 7.59005 1.13948 9.36625 1.15855 10.451C1.17152 11.1893 1.32565 12.179 1.95965 13.1125C2.60768 14.0664 3.75121 14.9475 5.70564 15.4795C5.71888 15.4827 5.73186 15.4862 5.74457 15.4901C6.41803 15.6729 7.05891 15.8696 7.66854 16.0786C6.0433 13.5926 4.9522 11.9054 4.46201 10.9354C3.78537 9.59586 3.72049 8.02516 4.15825 6.53233ZM19.5032 12.4573C19.2383 12.5998 18.911 12.72 18.5204 12.8106C17.6258 13.0185 16.3554 13.1024 14.7768 13.0905C15.6473 13.6747 16.5562 14.416 17.2055 15.2793C17.9651 14.8066 18.7119 14.3116 19.3874 13.7857C19.3768 13.724 19.3766 13.6594 19.3882 13.5945C19.4407 13.3016 19.4775 12.8906 19.5032 12.4573ZM23.9316 14.8143C24.0323 14.6406 24.14 14.4655 24.2523 14.2905C24.9057 13.2741 25.7274 12.2431 26.1167 11.3564C27.0468 9.2394 27.0942 7.06278 26.2722 5.32286C25.4589 3.60095 23.791 2.32766 21.3368 1.96272C18.1785 1.49292 16.1497 2.67591 15.0432 3.77918C16.8877 3.63511 18.679 4.02335 20.1038 4.8075C21.9192 5.80643 23.1446 7.43883 23.2232 9.42451C23.295 9.77806 23.8318 12.4782 23.9316 14.8143ZM14.4357 2.82951C13.4018 2.31097 12.0832 2.00827 10.4487 2.24106C7.96833 2.59407 6.10659 4.39146 5.35051 6.44043C4.8574 7.77596 4.8333 9.22324 5.4469 10.4377C5.84441 11.2243 6.64578 12.4891 7.81129 14.2793C7.64392 11.6093 8.20641 9.16842 8.3232 8.69703C8.31208 7.616 8.85868 6.49234 10.1876 5.5432C11.1992 4.82075 12.2922 4.33293 13.3994 4.05063C13.6338 3.69311 13.9762 3.26117 14.4357 2.82951ZM20.5882 12.7298C20.6764 12.6403 20.7619 12.55 20.8443 12.4586C21.6123 11.6083 22.1236 10.6801 22.1236 9.62896C22.1236 7.95631 21.0823 6.60542 19.572 5.77439C18.0371 4.92959 16.0207 4.61339 14.0252 5.03526C13.9185 5.10385 13.7906 5.13404 13.664 5.12C12.6865 5.37132 11.7217 5.80326 10.829 6.44123C9.64495 7.28682 9.25248 8.28999 9.50168 9.22113C9.70613 9.98542 10.294 10.6734 11.137 11.1711C10.9932 10.5773 11.11 9.93669 11.4212 9.36493C11.8536 8.57044 12.6018 8.06038 13.392 7.74948C14.4884 7.31834 15.651 7.27438 15.9622 7.27438C18.8837 7.27438 20.8858 8.80905 20.6644 10.6361C20.6581 11.1041 20.6401 11.9658 20.5882 12.7298ZM17.9786 11.7963C17.964 11.7465 17.956 11.6938 17.956 11.6393C17.956 11.2987 17.6933 11.0654 17.3562 10.9102C16.669 10.5943 15.6505 10.6075 14.8501 11.0476C14.6886 11.1366 14.5657 11.2243 14.481 11.3154C14.4352 11.3646 14.396 11.4028 14.3997 11.4491C14.4042 11.5024 14.4481 11.5431 14.4924 11.5863C14.5554 11.6477 14.6343 11.7015 14.7214 11.7481C14.9346 11.862 15.196 11.9314 15.4431 11.9314C15.527 11.9314 15.6065 11.9502 15.6777 11.9838C16.5885 11.9671 17.3618 11.9091 17.9786 11.7963ZM19.0508 11.4629C19.1348 11.4099 19.2018 11.3495 19.25 11.2788C19.7386 10.5593 19.6229 9.87207 19.0951 9.36572C18.4518 8.74894 17.3136 8.37791 15.9622 8.37791C15.7 8.37791 14.7199 8.41314 13.7959 8.77648C13.2392 8.99549 12.6947 9.33288 12.3902 9.89273C12.1886 10.263 12.1034 10.6827 12.2556 11.0551C12.4058 11.4224 12.7747 11.715 13.3912 11.9036C13.3732 11.8623 13.3581 11.8204 13.3454 11.7783C13.1944 11.2765 13.3356 10.6215 14.3184 10.0808C15.4354 9.46636 16.8581 9.46662 17.8173 9.90782C18.5191 10.2304 18.9828 10.7767 19.0508 11.4629Z" fill="black"/>
<defs>
<linearGradient id="paint0_linear_578_99303" x1="0.612305" y1="13.2973" x2="31.3983" y2="13.2973" gradientUnits="userSpaceOnUse">
<stop stop-color="#AA54EA"/>
<stop offset="0.362283" stop-color="#FF4340"/>
<stop offset="0.665012" stop-color="#FD6717"/>
<stop offset="1" stop-color="#FDCB02"/>
</linearGradient>
</defs>
</svg>
