<svg width="25" height="25" viewBox="0 0 25 25" fill="none" xmlns="http://www.w3.org/2000/svg">
<path fill-rule="evenodd" clip-rule="evenodd" d="M19.1815 17.9609C21.2483 15.8905 22.4564 13.7341 22.4564 11.2231C22.4564 6.12765 17.7915 1.99707 12.0363 1.99707C6.28114 1.99707 1.61621 6.12765 1.61621 11.2233C1.61621 16.3189 6.43206 19.8169 12.1873 19.8169V21.5068C12.1873 22.0422 12.7425 22.3867 13.2132 22.1317C14.684 21.3347 17.4095 19.736 19.1815 17.9609ZM6.97456 9.97896C7.79709 9.97896 8.46383 10.6409 8.46383 11.4563C8.46383 12.2733 7.79709 12.9352 6.97456 12.9352C6.15343 12.9352 5.48665 12.2733 5.48665 11.4563C5.48665 10.6409 6.15343 9.97896 6.97456 9.97896ZM13.5249 11.4563C13.5249 10.6409 12.8584 9.97896 12.0363 9.97896C11.2143 9.97896 10.5477 10.6409 10.5477 11.4563C10.5478 12.2733 11.2143 12.9352 12.0363 12.9352C12.8584 12.9352 13.5249 12.2733 13.5249 11.4563ZM17.0979 9.97896C17.9202 9.97896 18.586 10.6409 18.586 11.4563C18.586 12.2733 17.9203 12.9352 17.0979 12.9352C16.2755 12.9352 15.6088 12.2733 15.6088 11.4563C15.6088 10.6409 16.2755 9.97896 17.0979 9.97896Z" stroke="black" stroke-width="0.99305"/>
</svg>
