<svg width="25" height="25" viewBox="0 0 25 25" fill="none" xmlns="http://www.w3.org/2000/svg">
<rect x="0.724609" y="0.589844" width="23.25" height="23.25" rx="5.625" fill="white" stroke="black" stroke-width="0.75"/>
<path fill-rule="evenodd" clip-rule="evenodd" d="M8.80658 15.0349C9.48931 15.2111 10.1105 15.5689 10.6046 16.0732L16.1247 6.51226L16.1253 6.51261C16.2353 6.32059 16.1684 6.06569 15.9753 5.95707L14.8819 5.32567L14.8823 5.32515C14.6901 5.21495 14.4387 5.28135 14.3267 5.47511L14.3262 5.47476L8.80658 15.0349ZM5.73229 19.0624C5.28064 19.0624 5.28064 18.3763 5.73229 18.3763C7.09319 18.3763 11.7973 16.7709 12.982 17.434C13.362 17.6467 13.4818 17.985 13.2404 18.492C14.3076 18.5268 17.6302 17.5044 19.0897 18.0841C19.5081 18.2502 19.2556 18.8853 18.8378 18.7194C17.438 18.1633 13.5682 19.5216 12.744 19.0601C12.1016 18.7004 12.7861 18.1095 12.647 18.0317C11.7924 17.5538 7.07953 19.0624 5.73229 19.0624ZM10.2009 16.6414L8.76138 17.1891L8.51611 15.6696C9.16117 15.807 9.75911 16.1531 10.2009 16.6414Z" fill="black"/>
</svg>
