<svg width="11" height="6" viewBox="0 0 11 6" fill="none" xmlns="http://www.w3.org/2000/svg">
<path d="M7.73809 0.787634C7.91157 0.614154 7.91157 0.332887 7.73809 0.159407C7.56461 -0.0140731 7.28335 -0.0140731 7.10987 0.159407L2.98175 4.28753L1.07474 2.38052C0.901263 2.20704 0.619996 2.20704 0.446516 2.38052C0.273036 2.554 0.273036 2.83527 0.446516 3.00875L2.66763 5.22987C2.84111 5.40335 3.12238 5.40335 3.29586 5.22987L7.73809 0.787634Z" fill="#E94057"/>
<path d="M9.95921 0.787634C10.1327 0.614154 10.1327 0.332887 9.95921 0.159407C9.78573 -0.0140731 9.50447 -0.0140731 9.33098 0.159407L5.20077 4.28962C5.0264 4.1514 4.77225 4.16286 4.61111 4.324C4.43763 4.49748 4.43763 4.77875 4.61111 4.95223L4.88875 5.22987C5.06223 5.40335 5.3435 5.40335 5.51698 5.22987L9.95921 0.787634Z" fill="#E94057"/>
<path d="M3.5735 2.65816L3.29586 2.38052C3.12238 2.20704 2.84111 2.20704 2.66763 2.38052C2.49415 2.554 2.49415 2.83527 2.66763 3.00875L2.94527 3.28639C3.11875 3.45987 3.40002 3.45987 3.5735 3.28639C3.74698 3.11291 3.74698 2.83164 3.5735 2.65816Z" fill="#E94057"/>
</svg>
