<svg width="25" height="25" viewBox="0 0 25 25" fill="none" xmlns="http://www.w3.org/2000/svg">
<path d="M11.3887 4.36328H4.38867C3.85824 4.36328 3.34953 4.57399 2.97446 4.94907C2.59939 5.32414 2.38867 5.83285 2.38867 6.36328V20.3633C2.38867 20.8937 2.59939 21.4024 2.97446 21.7775C3.34953 22.1526 3.85824 22.3633 4.38867 22.3633H18.3887C18.9191 22.3633 19.4278 22.1526 19.8029 21.7775C20.178 21.4024 20.3887 20.8937 20.3887 20.3633V13.3633" stroke="black" stroke-width="1.25" stroke-linecap="round" stroke-linejoin="round"/>
<path d="M18.8887 2.86351C19.2865 2.46568 19.8261 2.24219 20.3887 2.24219C20.9513 2.24219 21.4908 2.46568 21.8887 2.86351C22.2865 3.26133 22.51 3.8009 22.51 4.36351C22.51 4.92612 22.2865 5.46568 21.8887 5.86351L12.3887 15.3635L8.38867 16.3635L9.38867 12.3635L18.8887 2.86351Z" stroke="black" stroke-width="1.25" stroke-linecap="round" stroke-linejoin="round"/>
</svg>
