<svg width="105" height="96" viewBox="0 0 105 96" fill="none" xmlns="http://www.w3.org/2000/svg">
<path d="M72.7127 49.909H72.7243H101.224C101.883 49.9089 102.516 50.1683 102.986 50.6311C103.455 51.0931 103.724 51.7208 103.735 52.379V77.968C103.731 82.5299 101.917 86.9038 98.691 90.1296C95.4652 93.3553 91.0913 95.1693 86.5294 95.1731H18.6622C14.1079 95.1693 9.74054 93.3614 6.51604 90.1451C3.29175 86.9291 1.47273 82.5667 1.45703 78.0127V52.42C1.45703 51.7541 1.72158 51.1154 2.19249 50.6445C2.66339 50.1736 3.30208 49.909 3.96804 49.909H32.407V49.9092L32.4186 49.9089C33.0008 49.8953 33.5696 50.0845 34.0277 50.4441C34.4858 50.8037 34.8046 51.3113 34.9297 51.88L34.9299 51.8811L37.7602 64.6177L37.8473 65.0092H38.2483H66.883H67.2841L67.3711 64.6177L70.2014 51.8811L70.2017 51.88C70.3267 51.3113 70.6456 50.8037 71.1036 50.4441C71.5617 50.0845 72.1305 49.8953 72.7127 49.9089V49.909ZM98.7125 78.0142V78.0136V55.431V54.931H98.2125H75.1783H74.7763L74.69 55.3237L71.8898 68.0602C71.7647 68.629 71.4459 69.1366 70.9878 69.4962C70.5297 69.8558 69.9609 70.0449 69.3787 70.0314V70.0312H69.3671H35.8546V70.0311L35.8429 70.0314C35.2607 70.0449 34.6919 69.8558 34.2339 69.4962C33.7758 69.1366 33.457 68.629 33.3319 68.0602L33.3317 68.0591L30.5013 55.3226L30.4143 54.931H30.0132H6.97904H6.47904V55.431L6.47904 78.0136L6.47904 78.0142C6.4832 81.2438 7.768 84.34 10.0517 86.6237C12.3354 88.9073 15.4315 90.1921 18.6611 90.1963H18.6617H86.5298H86.5305C89.7601 90.1921 92.8562 88.9073 95.1399 86.6237C97.4236 84.34 98.7084 81.2438 98.7125 78.0142Z" fill="#ADAFBB" stroke="white"/>
<path d="M54.3725 39.111C53.9016 39.5819 53.2629 39.8464 52.5969 39.8464C51.931 39.8464 51.2923 39.5819 50.8214 39.111C50.3505 38.6401 50.0859 38.0014 50.0859 37.3354V3.80788C50.0859 3.14192 50.3505 2.50324 50.8214 2.03233C51.2923 1.56143 51.931 1.29688 52.5969 1.29688C53.2629 1.29688 53.9016 1.56143 54.3725 2.03233C54.8434 2.50324 55.1079 3.14192 55.1079 3.80788V37.3354C55.1079 38.0014 54.8434 38.6401 54.3725 39.111Z" fill="#ADAFBB" stroke="white"/>
<path d="M68.8999 39.0059C69.2516 39.1364 69.6238 39.2027 69.9989 39.2016C70.6037 39.201 71.1943 39.0182 71.6938 38.6772C72.1932 38.3362 72.5784 37.8526 72.7992 37.2896M68.8999 39.0059L69.0808 38.5397C69.0797 38.5393 69.0786 38.5389 69.0774 38.5384M68.8999 39.0059C68.5311 38.8627 68.1941 38.6482 67.9082 38.3747C67.6222 38.1012 67.3931 37.7741 67.2337 37.4119C67.0743 37.0498 66.9878 36.6598 66.9792 36.2642C66.9706 35.8687 67.0401 35.4753 67.1836 35.1066M68.8999 39.0059L69.0739 38.5371C69.0751 38.5375 69.0763 38.538 69.0774 38.5384M69.0774 38.5384C69.3719 38.6472 69.6835 38.7025 69.9974 38.7016L69.9984 38.7016C70.5028 38.7011 70.9953 38.5487 71.4118 38.2643C71.8282 37.98 72.1493 37.577 72.3334 37.1077L72.3332 37.1082L72.7992 37.2896M69.0774 38.5384C68.7712 38.419 68.4913 38.2406 68.2538 38.0134L67.9098 38.373L68.2538 38.0134C68.0154 37.7853 67.8242 37.5125 67.6913 37.2105C67.5584 36.9085 67.4863 36.5833 67.4791 36.2534C67.4719 35.9235 67.5299 35.5955 67.6496 35.288L67.1836 35.1066M72.7992 37.2896L72.3337 37.1071L84.4825 5.89934M72.7992 37.2896L84.9486 6.08051C85.238 5.33584 85.2199 4.50668 84.898 3.77543C84.5761 3.04418 83.977 2.47073 83.2323 2.18125C82.4876 1.89177 81.6585 1.90997 80.9272 2.23183C80.196 2.55369 79.6225 3.15286 79.333 3.89753L67.1836 35.1066M67.1836 35.1066L67.6496 35.288L79.799 4.07891L79.7991 4.07869C80.0405 3.45762 80.5188 2.9579 81.1286 2.68946C81.7385 2.42102 82.4301 2.40585 83.0511 2.64728C83.6722 2.88871 84.1719 3.36698 84.4404 3.97686C84.7088 4.58674 84.724 5.27828 84.4825 5.89934M84.4825 5.89934L84.4826 5.89912L84.9484 6.08042L84.4825 5.89934Z" fill="#ADAFBB" stroke="white"/>
<path d="M35.1934 38.7031H35.1924C34.688 38.7026 34.1955 38.5502 33.779 38.2658C33.3626 37.9815 33.0414 37.5784 32.8573 37.1091C32.8573 37.1089 32.8572 37.1088 32.8572 37.1086L20.7082 5.90066L20.7082 5.90066L20.707 5.89764C20.4604 5.27624 20.4708 4.58234 20.7359 3.96859C21.0009 3.35484 21.4989 2.87153 22.1203 2.62497C22.7417 2.3784 23.4356 2.38879 24.0494 2.65384C24.6626 2.91867 25.1456 3.41607 25.3924 4.03675C25.3926 4.03727 25.3928 4.03779 25.393 4.03831L37.5412 35.2893L37.5412 35.2895C37.6609 35.597 37.7189 35.9251 37.7117 36.2549C37.7045 36.5848 37.6324 36.91 37.4995 37.212C37.3666 37.514 37.1755 37.7869 36.937 38.0149C36.6995 38.2422 36.4196 38.4206 36.1133 38.54C35.8188 38.6488 35.5073 38.704 35.1934 38.7031Z" fill="#ADAFBB" stroke="white"/>
</svg>
