<svg width="97" height="83" viewBox="0 0 97 83" fill="none" xmlns="http://www.w3.org/2000/svg">
<path d="M93.2422 51.4347L73.8122 33.9487H23.3482L3.91819 51.4347L1.24219 48.4627L21.8122 29.9487H75.3482L95.9182 48.4627L93.2422 51.4347Z" fill="black"/>
<path d="M90.5801 82.9487H6.58008C3.27108 82.9487 0.580078 80.2577 0.580078 76.9487V47.9487H32.5801V49.9487C32.5801 54.9117 36.6171 58.9487 41.5801 58.9487H55.5801C60.5431 58.9487 64.5801 54.9117 64.5801 49.9487V47.9487H96.5801V76.9487C96.5801 80.2577 93.8891 82.9487 90.5801 82.9487ZM4.58008 51.9487V76.9487C4.58008 78.0517 5.47708 78.9487 6.58008 78.9487H90.5801C91.6831 78.9487 92.5801 78.0517 92.5801 76.9487V51.9487H68.4271C67.4621 58.1717 62.0681 62.9487 55.5801 62.9487H41.5801C35.0921 62.9487 29.6981 58.1717 28.7331 51.9487H4.58008Z" fill="black"/>
<path d="M36.2675 13.8766L29.2674 2.87646L25.8926 5.02407L32.8927 16.0242L36.2675 13.8766Z" fill="black"/>
<path d="M72.2681 5.02074L68.8933 2.87354L61.8945 13.8737L65.2693 16.0209L72.2681 5.02074Z" fill="black"/>
<path d="M50.5801 0.94873H46.5801V13.9487H50.5801V0.94873Z" fill="black"/>
</svg>
