<svg width="137" height="139" viewBox="0 0 137 139" fill="none" xmlns="http://www.w3.org/2000/svg">
<path fill-rule="evenodd" clip-rule="evenodd" d="M68.7814 67.5589C68.7814 68.64 67.9079 69.5198 66.8247 69.5198C65.7466 69.5198 64.8701 68.6537 64.8701 67.5589C64.8701 66.4798 65.7476 65.6022 66.8247 65.6022C67.9079 65.6022 68.7814 66.4798 68.7814 67.5589ZM54.9343 25.8943C57.9517 22.4906 62.2864 20.5399 66.8247 20.5399C75.5889 20.5399 82.7169 27.6681 82.7169 36.4302C82.7169 43.2068 78.4171 49.2454 72.0145 51.455C70.0187 52.1415 68.7814 53.8803 68.7814 55.9892V59.5881C68.7814 60.6714 67.9079 61.5449 66.8247 61.5449C65.7476 61.5449 64.8701 60.6714 64.8701 59.5881V55.9892C64.8701 52.2176 67.1721 48.9885 70.7382 47.7595C75.5642 46.0905 78.8055 41.5378 78.8055 36.4302C78.8055 29.8262 73.4328 24.4515 66.8247 24.4515C63.4025 24.4515 60.1365 25.9251 57.8632 28.4861C57.1439 29.298 55.9086 29.3699 55.1008 28.6547C54.291 27.9353 54.219 26.702 54.9343 25.8943ZM45.3686 3.50911C44.83 2.5739 45.1486 1.37769 46.0838 0.839129C47.0211 0.294527 48.2173 0.617147 48.7558 1.55445L53.2736 9.37522C54.0331 10.6897 53.0623 12.3082 51.5799 12.3082C50.9037 12.3082 50.2481 11.9588 49.8842 11.3298L45.3686 3.50911ZM29.6182 17.3049C30.1567 16.3676 31.353 16.049 32.2902 16.5895L40.1108 21.1053C41.8431 22.104 41.1181 24.7535 39.1325 24.7535C38.7996 24.7535 38.4646 24.6692 38.1542 24.4905L30.3335 19.9747C29.3982 19.4363 29.0796 18.2401 29.6182 17.3049ZM23.5918 39.7989C23.5918 38.7199 24.4653 37.8422 25.5465 37.8422H34.5779C35.659 37.8422 36.5345 38.7199 36.5345 39.7989C36.5345 40.878 35.659 41.7536 34.5779 41.7536H25.5465C24.4653 41.7536 23.5918 40.878 23.5918 39.7989ZM102.58 37.8422H111.616C112.693 37.8422 113.57 38.7199 113.57 39.7989C113.57 40.878 112.693 41.7536 111.616 41.7536H102.58C101.503 41.7536 100.626 40.878 100.626 39.7989C100.626 38.7199 101.503 37.8422 102.58 37.8422ZM96.3338 23.7752C95.7912 22.84 96.1119 21.6437 97.0492 21.1053L104.87 16.5895C105.805 16.049 107.001 16.3676 107.54 17.3049C108.082 18.2401 107.762 19.4363 106.825 19.9747L99.0038 24.4905C98.0796 25.0271 96.8736 24.7187 96.3338 23.7752ZM83.8885 9.37522L88.4041 1.55445C88.9427 0.617147 90.1389 0.294527 91.0741 0.839129C92.0114 1.37769 92.3319 2.5739 91.7894 3.50911L87.2737 11.3298C86.7281 12.2739 85.5306 12.582 84.6038 12.0451C83.6665 11.5065 83.3459 10.3104 83.8885 9.37522ZM86.7579 100.429L72.2488 78.8389H115.767L130.609 100.429H86.7579ZM114.838 133.465V104.342H85.7157C85.0642 104.342 84.4538 104.015 84.092 103.475L70.5367 83.3012V134.698H113.607C114.275 134.698 114.838 134.133 114.838 133.465ZM23.5528 134.698C22.8848 134.698 22.3196 134.133 22.3196 133.465V104.342H51.4463C52.0979 104.342 52.7042 104.015 53.0701 103.475L66.6254 83.3012V134.698H23.5528ZM21.3926 78.8389L6.54858 100.429H50.4001L64.9091 78.8389H21.3926ZM135.941 101.277L118.407 75.7743C118.041 75.242 117.44 74.9274 116.795 74.9274H20.3627C19.7215 74.9274 19.1173 75.242 18.7514 75.7743L1.22103 101.277C0.330683 102.567 1.26261 104.342 2.83034 104.342H18.4081V133.465C18.4081 136.301 20.7163 138.609 23.5528 138.609H113.607C116.444 138.609 118.75 136.301 118.75 133.465V104.342H134.33C135.894 104.342 136.829 102.565 135.941 101.277Z" fill="#ADAFBB"/>
</svg>
