<svg width="40" height="40" viewBox="0 0 40 40" fill="none" xmlns="http://www.w3.org/2000/svg">
<g clip-path="url(#clip0_270_7682)">
<path d="M39.595 19.7324C39.595 8.96172 30.8657 0.232422 20.095 0.232422C9.32427 0.232422 0.594971 8.96172 0.594971 19.7324C0.594971 29.4664 7.72161 37.5338 17.0496 38.9971V25.3737H12.1023V19.7324H17.0496V15.4371C17.0496 10.5537 19.9556 7.85113 24.4116 7.85113C26.5483 7.85113 28.7816 8.2358 28.7816 8.2358V13.0331H26.3243C23.899 13.0331 23.151 14.5398 23.151 16.0785V19.7324H28.5577L27.6924 25.3737H23.151V38.9971C32.4683 37.5338 39.595 29.4664 39.595 19.7324Z" fill="#1877F2"/>
<path d="M27.6809 25.3741L28.547 19.7329H23.1403V16.0789C23.1403 14.5402 23.899 13.0335 26.3136 13.0335H28.7709V8.23623C28.7709 8.23623 26.5375 7.85156 24.4009 7.85156C19.9456 7.85156 17.0389 10.5549 17.0389 15.4375V19.7329H12.0916V25.3741H17.0389V38.9975C18.033 39.1574 19.0476 39.2329 20.0843 39.2329C21.121 39.2329 22.1356 39.1475 23.1296 38.9975V25.3741H27.6809Z" fill="white"/>
</g>
<defs>
<clipPath id="clip0_270_7682">
<rect width="39" height="39" fill="white" transform="translate(0.594971 0.232422)"/>
</clipPath>
</defs>
</svg>
