<svg width="20" height="18" viewBox="0 0 20 18" fill="none" xmlns="http://www.w3.org/2000/svg">
<path d="M2.86719 9.0918V1.0918M16.8672 17.0918V14.0918M2.86719 17.0918V13.0918M16.8672 10.0918V1.0918M9.86719 4.0918V1.0918M9.86719 17.0918V8.0918" stroke="black" stroke-linecap="round"/>
<path d="M2.86719 13.0918C3.97176 13.0918 4.86719 12.1964 4.86719 11.0918C4.86719 9.98723 3.97176 9.0918 2.86719 9.0918C1.76262 9.0918 0.867188 9.98723 0.867188 11.0918C0.867188 12.1964 1.76262 13.0918 2.86719 13.0918Z" stroke="black" stroke-linecap="round"/>
<path d="M9.86719 8.0918C10.9718 8.0918 11.8672 7.19637 11.8672 6.0918C11.8672 4.98723 10.9718 4.0918 9.86719 4.0918C8.76262 4.0918 7.86719 4.98723 7.86719 6.0918C7.86719 7.19637 8.76262 8.0918 9.86719 8.0918Z" stroke="black" stroke-linecap="round"/>
<path d="M16.8672 14.0918C17.9718 14.0918 18.8672 13.1964 18.8672 12.0918C18.8672 10.9872 17.9718 10.0918 16.8672 10.0918C15.7626 10.0918 14.8672 10.9872 14.8672 12.0918C14.8672 13.1964 15.7626 14.0918 16.8672 14.0918Z" stroke="black" stroke-linecap="round"/>
</svg>
