<svg width="25" height="25" viewBox="0 0 25 25" fill="none" xmlns="http://www.w3.org/2000/svg">
<path d="M4.18822 19.6038C4.10046 19.6038 4.01269 19.5853 3.92925 19.5469C3.67894 19.4314 3.53555 19.1644 3.57758 18.8918L3.59056 18.8083C3.76176 17.6915 4.21603 14.7248 5.5597 13.0387C8.23776 9.67649 12.3374 9.28588 14.0778 9.28402V6.62451C14.0778 6.37976 14.2218 6.15849 14.4456 6.05898C14.6693 5.95947 14.9301 6.00212 15.1118 6.16714L21.9105 12.3478C22.0434 12.4683 22.1169 12.6413 22.1126 12.8212C22.1083 13.001 22.0255 13.1698 21.8864 13.2835L15.0877 18.846C14.9023 18.9975 14.6471 19.0278 14.4313 18.9264C14.2156 18.8238 14.0778 18.6062 14.0778 18.3677V15.3194C12.6662 15.2508 11.2774 15.4344 9.94113 15.8658C7.37433 16.6946 5.65055 18.2397 4.65671 19.3899C4.53619 19.529 4.36375 19.6038 4.18822 19.6038ZM14.1446 10.522C12.7218 10.522 8.9065 10.8193 6.52573 13.8082C5.83783 14.6717 5.41322 16.0104 5.14931 17.1618C6.24266 16.2286 7.70066 15.2897 9.56041 14.6896C11.2341 14.15 12.9814 13.9609 14.7534 14.129C15.0704 14.1593 15.3127 14.4257 15.3127 14.7446V17.0636L20.5477 12.7804L15.3127 8.02194V9.92001C15.3127 10.0912 15.2416 10.2544 15.1168 10.3712C14.9919 10.488 14.8269 10.548 14.6532 10.5368C14.5729 10.5313 14.3961 10.522 14.1446 10.522Z" fill="white"/>
</svg>
