<svg width="55" height="55" viewBox="0 0 55 55" fill="none" xmlns="http://www.w3.org/2000/svg">
<rect x="0.296875" y="0.861328" width="54" height="54" rx="3" fill="#F3F2F6"/>
<path fill-rule="evenodd" clip-rule="evenodd" d="M19.7965 19.8613C21.7295 19.8613 23.2965 18.2943 23.2965 16.3613C23.2965 14.4283 21.7295 12.8613 19.7965 12.8613C17.8635 12.8613 16.2965 14.4283 16.2965 16.3613C16.2965 18.2943 17.8635 19.8613 19.7965 19.8613ZM12.475 37.767L18.9785 28.9681C19.3823 28.4219 20.2016 28.4285 20.5964 28.9813L24.0087 33.7585C24.4 34.3064 25.2099 34.3188 25.6179 33.7834L31.9254 25.5048C32.3476 24.9507 33.1929 24.9872 33.5656 25.5758L41.3243 37.8264C41.746 38.4922 41.2676 39.3614 40.4795 39.3614H13.2791C12.4583 39.3614 11.9871 38.4271 12.475 37.767Z" fill="white"/>
</svg>
