<svg width="40" height="41" viewBox="0 0 40 41" fill="none" xmlns="http://www.w3.org/2000/svg">
<path d="M33.6306 35.7909C38.3243 31.41 40.4105 24.1086 39.1588 17.1201H20.488V24.8388H31.1272C30.71 27.3421 29.2497 29.4282 27.1636 30.7842L33.6306 35.7909Z" fill="#4285F4"/>
<path d="M2.7561 29.6364C4.12825 32.3393 6.09608 34.6956 8.51128 36.5274C10.9265 38.3593 13.726 39.6189 16.6988 40.2115C19.6716 40.8041 22.7402 40.714 25.6732 39.9482C28.6061 39.1824 31.327 37.7607 33.6306 35.7904L27.1637 30.7837C21.6355 34.4344 12.4565 33.0785 9.32737 24.5254L2.7561 29.6364Z" fill="#34A853"/>
<path d="M9.32738 24.5261C8.49294 21.9184 8.49294 19.5194 9.32738 16.9118L2.75611 11.8008C0.35708 16.5989 -0.373061 23.3787 2.75611 29.6371L9.32738 24.5261Z" fill="#FBBC02"/>
<path d="M9.32737 16.9114C11.6221 9.71434 21.4269 5.54211 27.9981 11.6962L33.7349 6.06364C25.5991 -1.7593 9.7446 -1.44638 2.7561 11.8005L9.32737 16.9114Z" fill="#EA4335"/>
</svg>
