<svg width="18" height="17" viewBox="0 0 18 17" fill="none" xmlns="http://www.w3.org/2000/svg">
<rect x="0.607422" y="0.591797" width="17" height="16" rx="8" fill="#EB545D"/>
<g clip-path="url(#clip0_578_87536)">
<path d="M7.70703 5.54948H6.95703V3.88281H11.457V5.54948H10.707V4.71615H7.70703V5.54948ZM4.70703 6.38281V8.57448C5.82868 8.94026 6.98311 9.16802 8.14953 9.25365C8.25078 9.25365 8.35578 9.25365 8.45703 9.25365V10.5495H9.95703V9.27031C10.0583 9.27031 10.1633 9.27031 10.2645 9.27031C11.4315 9.17925 12.586 8.94591 13.707 8.57448V6.38281H4.70703ZM10.707 11.3828H7.70703V10.0495C6.69238 9.94688 5.68823 9.74187 4.70703 9.43698V13.0495H13.707V9.43698C12.7258 9.74187 11.7217 9.94688 10.707 10.0495V11.3828Z" fill="white"/>
</g>
<defs>
<clipPath id="clip0_578_87536">
<rect width="9" height="10" fill="white" transform="translate(4.60742 3.5918)"/>
</clipPath>
</defs>
</svg>
