<svg width="14" height="16" viewBox="0 0 14 16" fill="none" xmlns="http://www.w3.org/2000/svg">
<path fill-rule="evenodd" clip-rule="evenodd" d="M8.85926 0.717037C8.87913 0.439023 9.11043 0.223633 9.38923 0.223633H9.91772C10.2261 0.223633 10.4696 0.485209 10.4476 0.792729L10.1847 4.47363H12.6133C12.9066 4.47363 13.1445 4.71153 13.1445 5.00488V5.53613C13.1445 5.82949 12.9066 6.06738 12.6133 6.06738H10.0708L9.88117 8.72363H12.6133C12.9066 8.72363 13.1445 8.96153 13.1445 9.25488V9.78613C13.1445 10.0795 12.9066 10.3174 12.6133 10.3174H9.76727L9.46106 14.6052C9.44119 14.8833 9.20988 15.0986 8.93108 15.0986H8.40259C8.09426 15.0986 7.85073 14.837 7.87272 14.5296L8.17352 10.3174H5.51727L5.21106 14.6052C5.19119 14.8833 4.95988 15.0986 4.68108 15.0986H4.15259C3.84426 15.0986 3.60073 14.837 3.62272 14.5296L3.92352 10.3174H0.925781C0.632425 10.3174 0.394531 10.0795 0.394531 9.78613V9.25488C0.394531 8.96153 0.632425 8.72363 0.925781 8.72363H4.03742L4.22707 6.06738H0.925781C0.632425 6.06738 0.394531 5.82949 0.394531 5.53613V5.00488C0.394531 4.71153 0.632425 4.47363 0.925781 4.47363H4.34098L4.60926 0.717037C4.62912 0.439023 4.86043 0.223633 5.13923 0.223633H5.66772C5.97606 0.223633 6.21958 0.485209 6.19759 0.792729L5.93473 4.47363H8.59097L8.85926 0.717037ZM5.82082 6.06738L5.63117 8.72363H8.28742L8.47707 6.06738H5.82082Z" fill="#161823"/>
</svg>
