<svg width="19" height="18" viewBox="0 0 19 18" fill="none" xmlns="http://www.w3.org/2000/svg">
<path fill-rule="evenodd" clip-rule="evenodd" d="M9.50693 3.40632C11.3706 1.43944 14.1805 1.43695 15.9684 3.23607C17.7946 5.07382 17.7946 8.05147 15.9684 9.88918L10.036 15.8588C9.89598 15.9997 9.70552 16.079 9.50693 16.079C9.30831 16.079 9.1179 15.9997 8.9779 15.8588L3.04549 9.88918C1.21921 8.05147 1.21921 5.07382 3.04549 3.23607C4.83338 1.43695 7.64331 1.43944 9.50693 3.40632ZM14.9103 4.28752C13.6901 3.0596 11.75 3.05388 10.4416 4.59767L10.4224 4.62021L9.50693 5.54147L8.59143 4.62021L8.57232 4.59767C7.26384 3.05388 5.3238 3.0596 4.10354 4.28752C2.85539 5.5435 2.85539 7.58178 4.10354 8.83777L9.50693 14.2751L14.9103 8.83777C16.1585 7.58178 16.1585 5.5435 14.9103 4.28752Z" fill="#161823" fill-opacity="0.5"/>
</svg>
