<svg width="25" height="25" viewBox="0 0 25 25" fill="none" xmlns="http://www.w3.org/2000/svg">
<path d="M9.15934 9.64062C9.39444 8.97229 9.85849 8.40873 10.4693 8.04976C11.0801 7.69078 11.7982 7.55956 12.4965 7.67934C13.1948 7.79911 13.8282 8.16215 14.2844 8.70415C14.7407 9.24616 14.9904 9.93215 14.9893 10.6406C14.9893 12.6406 11.9893 13.6406 11.9893 13.6406M12.0693 17.6406H12.0793M22.0693 12.6406C22.0693 18.1635 17.5922 22.6406 12.0693 22.6406C6.54649 22.6406 2.06934 18.1635 2.06934 12.6406C2.06934 7.11778 6.54649 2.64062 12.0693 2.64062C17.5922 2.64062 22.0693 7.11778 22.0693 12.6406Z" stroke="#090A0A" stroke-width="1.5" stroke-linecap="round" stroke-linejoin="round"/>
</svg>
