<svg width="23" height="24" viewBox="0 0 23 24" fill="none" xmlns="http://www.w3.org/2000/svg">
<path d="M20.6696 6.75067L13.9056 1.73902C12.3988 0.620846 10.3714 0.620846 8.8646 1.73902L2.10053 6.75067C1.02634 7.54256 0.384766 8.81471 0.384766 10.1529V19.3696C0.384766 21.7049 2.28384 23.604 4.61918 23.604H18.1473C20.4827 23.604 22.3817 21.7049 22.3817 19.3696V10.1529C22.3817 8.81471 21.7402 7.54256 20.6696 6.75067ZM14.1989 18.838H8.56764C7.95905 18.838 7.46779 18.3467 7.46779 17.7381C7.46779 17.1296 7.95905 16.6383 8.56764 16.6383H14.2025C14.8111 16.6383 15.3024 17.1296 15.3024 17.7381C15.3024 18.3467 14.8074 18.838 14.1989 18.838Z" fill="black"/>
</svg>
