<svg width="91" height="91" viewBox="0 0 91 91" fill="none" xmlns="http://www.w3.org/2000/svg">
<path fill-rule="evenodd" clip-rule="evenodd" d="M21.3389 8.92773C21.4053 7.99414 21.9385 7.19531 22.9385 6.52734C23.8721 6.12891 24.7715 6.12891 25.6387 6.52734L36.3389 12.8281L42.5381 1.82812C43.1387 1.02734 44.0381 0.628906 45.2383 0.628906C46.1719 0.628906 46.9717 1.02734 47.6387 1.82812L53.7383 12.6289L64.8389 6.12891V6.22852C65.8389 5.69531 66.8047 5.76172 67.7383 6.42773C68.6719 6.82812 69.1387 7.62891 69.1387 8.82812V21.1289H81.7383V21.2285C82.8047 21.3613 83.6055 21.8945 84.1387 22.8281C84.6719 23.6953 84.7383 24.6621 84.3389 25.7285L77.9385 36.4277L88.9385 42.6289C89.8047 43.2285 90.2383 44.1289 90.2383 45.3281C90.2383 46.2617 89.8047 47.0605 88.9385 47.7285L77.8389 54.2285L84.0381 64.6289C84.5713 65.6953 84.5049 66.6621 83.8389 67.5273C83.3047 68.3281 82.5713 68.8613 81.6387 69.1289H69.1387V81.7285C69.0713 82.6621 68.5381 83.3945 67.5381 83.9277C66.7383 84.4609 65.8047 84.5273 64.7383 84.1289L54.1387 78.0273L47.9385 88.7285H47.8389C47.1719 89.5957 46.3721 90.0273 45.4385 90.0273C44.3721 90.0273 43.5049 89.5957 42.8389 88.7285L36.6387 78.0273L25.6387 84.4277C24.6387 84.8281 23.7383 84.7617 22.9385 84.2285C21.9385 83.6953 21.3389 82.8945 21.1387 81.8281V69.4277H8.73828C7.67188 69.2949 6.87207 68.7617 6.33887 67.8281C5.80469 66.8281 5.73828 65.8613 6.13867 64.9277L12.3389 54.2285L1.53809 47.9277C0.671875 47.1289 0.238281 46.2617 0.238281 45.3281C0.238281 44.3945 0.671875 43.5273 1.53809 42.7285L12.5381 36.4277L6.33887 25.8281V25.7285C6.00488 24.8613 6.10547 23.9609 6.63867 23.0273C7.03809 22.1621 7.77148 21.6621 8.83887 21.5273H21.3389V8.92773ZM40.9385 24.8281V51.3789H49.4385V24.8281H40.9385ZM49.5381 57.2285H40.9883V65.8281H49.5381V57.2285Z" fill="#EB545D"/>
</svg>
