<svg width="41" height="41" viewBox="0 0 41 41" fill="none" xmlns="http://www.w3.org/2000/svg">
<circle cx="20.6035" cy="20.8848" r="20" fill="url(#paint0_linear_578_91099)"/>
<path fill-rule="evenodd" clip-rule="evenodd" d="M24.1264 12.167H17.079C14.2149 12.167 11.8848 14.4971 11.8848 17.3612V24.4086C11.8848 27.2728 14.2149 29.6029 17.079 29.6029H24.1264C26.9905 29.6029 29.3207 27.2728 29.3207 24.4086V17.3612C29.3206 14.4971 26.9905 12.167 24.1264 12.167ZM27.5666 24.4087C27.5666 26.3086 26.0263 27.8489 24.1264 27.8489H17.079C15.179 27.8489 13.6388 26.3086 13.6388 24.4087V17.3613C13.6388 15.4613 15.179 13.9211 17.079 13.9211H24.1264C26.0263 13.9211 27.5666 15.4613 27.5666 17.3613V24.4087ZM16.0931 20.8849C16.0931 18.3984 18.1161 16.3754 20.6027 16.3754C23.0892 16.3754 25.1122 18.3984 25.1122 20.8849C25.1122 23.3715 23.0892 25.3945 20.6027 25.3945C18.1161 25.3945 16.0931 23.3715 16.0931 20.8849ZM20.6027 23.6404C19.0809 23.6404 17.8472 22.4068 17.8472 20.885C17.8472 19.3631 19.0809 18.1295 20.6027 18.1295C22.1245 18.1295 23.3582 19.3631 23.3582 20.885C23.3582 22.4068 22.1245 23.6404 20.6027 23.6404ZM25.1209 17.4898C25.7177 17.4898 26.2015 17.0061 26.2015 16.4093C26.2015 15.8125 25.7177 15.3287 25.1209 15.3287C24.5241 15.3287 24.0403 15.8125 24.0403 16.4093C24.0403 17.0061 24.5241 17.4898 25.1209 17.4898Z" fill="white"/>
<defs>
<linearGradient id="paint0_linear_578_91099" x1="0.737157" y1="0.817945" x2="0.603516" y2="40.8179" gradientUnits="userSpaceOnUse">
<stop stop-color="#7024C4"/>
<stop offset="0.415461" stop-color="#C21975"/>
<stop offset="0.702206" stop-color="#C74C4D"/>
<stop offset="1" stop-color="#E09B3D"/>
</linearGradient>
</defs>
</svg>
