<svg width="31" height="27" viewBox="0 0 31 27" fill="none" xmlns="http://www.w3.org/2000/svg">
<path fill-rule="evenodd" clip-rule="evenodd" d="M5.43406 16.6322C5.39275 16.0989 5.3766 15.5631 5.38851 15.0282V15.0274C11.0513 16.6945 14.1792 19.4132 15.8956 21.8634C15.0757 23.8165 14.8656 25.5583 14.8132 26.4232L14.8047 26.4229C14.3739 26.4068 13.944 26.3718 13.5171 26.3133C12.7785 26.2124 12.0484 26.0416 11.3482 25.7839C10.6933 25.5426 10.0662 25.2251 9.49043 24.83C9.1255 24.5792 8.78149 24.2979 8.46317 23.9902C8.24574 23.7799 8.04024 23.5572 7.84718 23.3242C7.70549 23.1531 7.5707 22.9765 7.44278 22.7948C7.34692 22.6589 7.25529 22.5207 7.1671 22.3798C6.53999 21.3772 6.10885 20.2609 5.82627 19.1153C5.77755 18.9166 5.73279 18.7167 5.69254 18.516C5.63984 18.2535 5.59429 17.9892 5.55562 17.7244C5.50266 17.3618 5.46214 16.9974 5.43406 16.6322ZM25.3089 15.0327C17.1196 17.5816 16.0547 24.4341 15.9191 26.4219C24.9029 26.0755 25.365 17.5173 25.3089 15.0327ZM20.9562 11.4898C21.3055 11.1029 21.6071 10.7012 21.8494 10.283C22.0867 11.8929 22.2882 13.9466 22.0276 15.1985C19.2051 16.7019 17.4835 18.7564 16.4332 20.7302C15.6265 19.6759 14.5696 18.5859 13.1827 17.5546C13.572 17.0687 14.4417 16.0949 15.6686 15.3637C15.948 15.1971 16.23 15.0282 16.5121 14.8566C16.5534 14.8436 16.5936 14.8256 16.6326 14.802C16.6731 14.7776 16.7094 14.7488 16.7412 14.7165C18.315 13.7491 19.8712 12.6911 20.9562 11.4898ZM8.5871 14.8394C8.00501 12.8124 8.13425 10.5748 8.34717 9.04651C8.91417 9.81001 9.78916 10.4641 10.8768 10.8828C10.9112 10.9075 10.9488 10.9284 10.9896 10.9451C10.9896 10.9451 14.032 12.1712 15.5534 14.1471C15.403 14.2371 15.2528 14.3269 15.1037 14.4159C13.6938 15.2562 12.7036 16.3825 12.277 16.9217C11.246 16.2445 10.0569 15.6029 8.68536 15.0258C8.67053 14.9794 8.64934 14.9342 8.62127 14.8915L8.5871 14.8394ZM26.4201 10.0918C27.1756 8.37173 27.4074 6.61698 27.1457 5.02907C29.4177 6.20332 30.2445 7.55208 30.2445 8.75202C30.2445 10.248 29.5665 12.7213 25.6876 13.7737L25.6704 13.7785C25.0086 13.9577 24.3867 14.1625 23.8025 14.3886C24.0335 13.8354 24.4156 13.2525 24.812 12.6686C24.9126 12.5205 25.0143 12.3726 25.1156 12.2252C25.6294 11.478 26.1327 10.7459 26.4201 10.0918ZM0.451594 8.74249C0.432526 7.65775 1.05461 5.88155 3.4513 4.82383C3.01354 6.31666 3.07842 7.88736 3.75506 9.22686C4.24525 10.1969 5.33634 11.8841 6.96159 14.3701C6.35196 14.1611 5.71107 13.9644 5.03762 13.7816C5.02491 13.7777 5.01193 13.7742 4.99869 13.771C3.04426 13.239 1.90073 12.3579 1.2527 11.404C0.6187 10.4705 0.46457 9.48083 0.451594 8.74249ZM17.8134 11.1021C18.2041 11.0115 18.5314 10.8913 18.7962 10.7488C18.7705 11.1821 18.7337 11.5931 18.6813 11.886C18.6696 11.9509 18.6699 12.0155 18.6805 12.0772C18.0049 12.6031 17.2581 13.0981 16.4986 13.5708C15.8492 12.7075 14.9403 11.9662 14.0698 11.382C15.6485 11.3939 16.9189 11.31 17.8134 11.1021ZM23.5454 12.582C23.4331 12.757 23.3253 12.9321 23.2247 13.1058C23.1248 10.7697 22.588 8.06956 22.5163 7.71601C22.4376 5.73033 21.2122 4.09793 19.3969 3.099C17.9721 2.31485 16.1808 1.92661 14.3363 2.07068C15.4427 0.967405 17.4715 -0.215581 20.6299 0.254224C23.084 0.619157 24.7519 1.89245 25.5652 3.61436C26.3872 5.35428 26.3398 7.5309 25.4098 9.64793C25.1461 10.2485 24.6839 10.9153 24.2101 11.599C23.9845 11.9246 23.7562 12.254 23.5454 12.582ZM9.74175 0.532558C11.3763 0.299774 12.6948 0.602472 13.7287 1.12101C13.2693 1.55267 12.9268 1.98461 12.6925 2.34213C11.5852 2.62443 10.4923 3.11225 9.48063 3.8347C8.15173 4.78384 7.60512 5.9075 7.61625 6.98853C7.49946 7.45992 6.93696 9.90084 7.10433 12.5708C5.93883 10.7806 5.13746 9.51578 4.73995 8.72924C4.12634 7.51474 4.15044 6.06746 4.64355 4.73193C5.39964 2.68296 7.26138 0.885573 9.74175 0.532558ZM20.1373 10.7501C20.0549 10.8415 19.9694 10.9318 19.8812 11.0213C19.9331 10.2573 19.9511 9.39555 19.9575 8.9276C20.1789 7.10055 18.1768 5.56588 15.2552 5.56588C14.944 5.56588 13.7814 5.60984 12.6851 6.04098C11.8948 6.35188 11.1467 6.86194 10.7142 7.65643C10.403 8.22819 10.2862 8.86881 10.43 9.46255C9.5871 8.96494 8.99918 8.27692 8.79473 7.51263C8.54553 6.58149 8.938 5.57832 10.122 4.73273C11.0148 4.09476 11.9795 3.66282 12.957 3.4115C13.0836 3.42554 13.2115 3.39535 13.3183 3.32676C15.3137 2.90489 17.3301 3.22109 18.8651 4.06589C20.3754 4.89692 21.4167 6.24781 21.4167 7.92046C21.4167 8.97156 20.9053 9.89978 20.1373 10.7501ZM17.2491 9.93077C17.2491 9.98532 17.257 10.038 17.2716 10.0878C16.6548 10.2006 15.8815 10.2586 14.9708 10.2753C14.8995 10.2417 14.8201 10.2229 14.7361 10.2229C14.4891 10.2229 14.2277 10.1535 14.0145 10.0396C13.9274 9.993 13.8484 9.93924 13.7854 9.8778L13.7801 9.87263C13.7377 9.83135 13.697 9.79172 13.6927 9.74062C13.6893 9.6975 13.723 9.66149 13.7646 9.61701C13.7677 9.61368 13.7708 9.61031 13.774 9.60688C13.8588 9.51578 13.9816 9.42812 14.1432 9.33914C14.9435 8.899 15.962 8.88576 16.6493 9.2017C16.9864 9.35689 17.2491 9.5902 17.2491 9.93077ZM18.543 9.57034C18.4948 9.64105 18.4278 9.70143 18.3439 9.75439C18.2758 9.06822 17.8121 8.52188 17.1103 8.19932C16.1511 7.75812 14.7285 7.75786 13.6114 8.37226C12.6286 8.91303 12.4875 9.56795 12.6384 10.0698C12.6512 10.1119 12.6662 10.1538 12.6843 10.1951C12.0677 10.0065 11.6988 9.71387 11.5487 9.34656C11.3964 8.97421 11.4817 8.55446 11.6832 8.18423C11.9878 7.62438 12.5322 7.28699 13.0889 7.06798C14.0129 6.70464 14.993 6.66941 15.2552 6.66941C16.6066 6.66941 17.7449 7.04044 18.3881 7.65722C18.9159 8.16357 19.0317 8.8508 18.543 9.57034Z" fill="#E8E6EA"/>
</svg>
