<svg width="119" height="106" viewBox="0 0 119 106" fill="none" xmlns="http://www.w3.org/2000/svg">
<path d="M47.1996 4.46284L55.3667 7.52588L58.4296 6.67423L63.8742 4.46284L70.1696 2.93188H78.5067L87.014 4.46284L94.3302 10.4183L99.0943 18.5852L106.411 21.9881L113.897 28.1134L116.109 35.0893V41.8951L112.536 48.1905L104.539 55.1665L99.0943 56.5276L97.7331 62.823V73.8824L92.6288 85.6225L87.014 93.1089L79.6977 99.4042L70.1696 103.488L59.2803 104.849L48.9015 103.488L40.7345 100.595L31.8869 94.2999L27.1219 88.0045C26.2148 85.9628 24.3665 81.6411 24.2304 80.6883C24.0602 79.4972 22.3588 74.0526 22.1886 73.0317C22.0525 72.215 21.1107 67.2468 20.6568 64.8647V60.9514L18.785 56.5276L14.7023 55.1665L8.23674 51.9337L4.32339 46.8294L2.11133 39.5131V31.8566L6.87509 24.8806L13.5104 20.1166H18.785L20.6568 15.8629L27.1219 9.3974L37.331 4.46284H47.1996Z" fill="url(#paint0_linear_578_79699)"/>
<path fill-rule="evenodd" clip-rule="evenodd" d="M56.7443 5.43564C56.6756 5.38269 56.603 5.33464 56.5266 5.29051C51.8803 2.61436 45.7573 0.856093 37.9593 1.96617C28.4609 3.31846 21.0336 9.52978 17.1689 17.0816C16.8355 17.0218 16.4825 17.0444 16.1402 17.163C2.89091 21.773 -0.0450986 31.1331 0.049042 36.4844C0.10788 39.8382 0.840412 44.3236 3.72053 48.5638C6.36137 52.451 10.8223 56.1794 18.3751 58.5319C18.0544 67.2056 18.8791 105.995 59.286 106.004H59.4302C61.3738 105.998 63.3174 105.906 65.2503 105.703C68.5962 105.352 71.9136 104.672 75.0938 103.565C76.4952 103.078 77.8671 102.509 79.1978 101.854C80.5324 101.196 81.8249 100.453 83.0605 99.6253C84.6177 98.5829 86.0847 97.4051 87.441 96.1117C88.3569 95.2379 89.2218 94.3112 90.0338 93.3394C90.6162 92.6422 91.1713 91.9224 91.6979 91.1821C92.0921 90.629 92.4696 90.0651 92.8335 89.4914C95.4527 85.3493 97.2541 80.7266 98.4309 75.9803C98.631 75.1723 98.8133 74.3593 98.9781 73.5434C99.1987 72.4559 99.389 71.3615 99.5508 70.2642C99.7714 68.7599 99.9401 67.2478 100.057 65.7317C100.143 64.6128 100.202 63.4929 100.232 62.3711C100.266 61.1061 100.264 59.8401 100.22 58.5761L100.219 58.531C107.769 56.1784 112.253 52.453 114.906 48.5677C117.809 44.3147 118.54 39.8136 118.54 36.4481C118.54 30.479 114.55 23.1262 101.591 17.4866C101.358 16.8737 101.102 16.2706 100.823 15.6793C97.2865 8.1922 90.124 2.52709 79.4537 0.939447C69.2424 -0.579551 61.8122 2.00735 56.7443 5.43564ZM22.4153 59.6881C22.3712 61.669 22.431 63.6528 22.584 65.6278C22.6879 66.9801 22.8379 68.3294 23.0341 69.6719C23.1772 70.6525 23.3459 71.6312 23.541 72.603C23.6901 73.3463 23.8558 74.0867 24.0363 74.8222C25.0826 79.0644 26.6791 83.1978 29.0012 86.9104C29.3278 87.4321 29.6671 87.944 30.022 88.4471C30.4957 89.1198 30.9948 89.7739 31.5195 90.4074C32.2343 91.2703 32.9953 92.095 33.8004 92.8736C34.9791 94.0131 36.253 95.0546 37.6043 95.9832C39.7362 97.4463 42.0583 98.6221 44.4834 99.5155C47.0762 100.47 49.7798 101.102 52.5148 101.476C54.0956 101.692 55.6871 101.822 57.2826 101.882L57.314 101.883C57.5082 98.68 58.2858 92.2303 61.3218 84.9982C54.9664 75.9254 43.3841 65.8582 22.4153 59.6852V59.6881ZM96.1784 59.7048C65.8543 69.1433 61.9112 94.5172 61.4091 101.878C94.6751 100.595 96.3863 68.9051 96.1784 59.7048ZM83.3684 42.1171C82.4711 43.6656 81.3542 45.1532 80.0607 46.5859C76.0431 51.034 70.2809 54.9516 64.453 58.5339C64.3353 58.6535 64.201 58.7604 64.0509 58.8506C63.9068 58.9379 63.7577 59.0046 63.6048 59.0526C62.5604 59.6881 61.516 60.3137 60.4814 60.9306C55.9382 63.6381 52.7178 67.2439 51.2762 69.0433C56.4118 72.8619 60.3255 76.8982 63.3125 80.8021C67.2017 73.4934 73.5768 65.8857 84.0284 60.3186C84.9933 55.6832 84.247 48.0784 83.3684 42.1171ZM33.3709 37.5386C32.5825 43.1978 32.1039 51.4831 34.2593 58.9889L34.3859 59.1821C34.4898 59.34 34.5682 59.5077 34.6232 59.6793C39.7019 61.8161 44.1049 64.1921 47.9225 66.6996C49.5023 64.703 53.1689 60.5324 58.3898 57.4209C58.9418 57.0914 59.4979 56.7589 60.0549 56.4255C54.4211 49.109 43.1556 44.5687 43.1556 44.5687C43.0046 44.5069 42.8654 44.4295 42.7379 44.3383C38.7104 42.7879 35.4704 40.3657 33.3709 37.5386ZM102.98 22.6624C103.949 28.5423 103.091 35.0399 100.293 41.4091C99.0193 44.3088 96.5991 47.6224 94.3387 50.9507C92.8707 53.113 91.4557 55.2713 90.6006 57.3199C92.7638 56.4824 95.0664 55.7244 97.5169 55.0605C97.5385 55.0546 97.5591 55.0487 97.5807 55.0428C111.944 51.1458 114.454 41.9877 114.454 36.4481C114.454 32.0049 111.393 27.0105 102.98 22.6624ZM15.242 21.9024C6.36725 25.819 4.06375 32.3961 4.13435 36.4128C4.1824 39.1468 4.75313 42.8114 7.10076 46.2682C9.50037 49.8004 13.7347 53.0629 20.9718 55.033C21.0208 55.0448 21.0689 55.0576 21.1159 55.0723C23.6097 55.7489 25.9828 56.4775 28.2402 57.2512C22.2221 48.046 18.1819 41.7984 16.3667 38.2064C13.8612 33.2463 13.621 27.4302 15.242 21.9024ZM72.0627 43.8421C71.0821 44.3696 69.87 44.8149 68.4236 45.1502C65.111 45.92 60.4069 46.2309 54.5614 46.1868C57.7847 48.35 61.1502 51.0948 63.5547 54.2917C66.3672 52.5412 69.1326 50.7085 71.6342 48.7609C71.5949 48.5324 71.5939 48.2932 71.6371 48.0529C71.8313 46.9683 71.9676 45.4464 72.0627 43.8421ZM88.4608 52.5697C88.8335 51.9264 89.2326 51.2782 89.6484 50.63C92.0676 46.8663 95.1105 43.0487 96.552 39.7656C99.996 31.9264 100.172 23.8666 97.1276 17.4239C94.1161 11.0478 87.9401 6.33292 78.8526 4.98161C67.1576 3.24197 59.645 7.62245 55.5479 11.7078C62.378 11.1743 69.011 12.6119 74.2868 15.5156C81.009 19.2145 85.5464 25.2591 85.8376 32.6119C86.1034 33.921 88.0911 43.9195 88.4608 52.5697ZM53.2983 8.19122C49.4699 6.27114 44.5874 5.15028 38.5349 6.01225C29.3503 7.31943 22.4565 13.975 19.6568 21.5621C17.8308 26.5075 17.7416 31.8666 20.0137 36.3638C21.4856 39.2762 24.453 43.9597 28.7688 50.5888C28.149 40.7021 30.2319 31.6636 30.6644 29.9181C30.6232 25.9151 32.6472 21.7543 37.568 18.2397C41.314 15.5646 45.3611 13.7583 49.4611 12.7129C50.329 11.3891 51.5969 9.78964 53.2983 8.19122ZM76.0804 44.8511C76.4069 44.5197 76.7236 44.1853 77.0286 43.847C79.8724 40.6982 81.7661 37.2611 81.7661 33.3689C81.7661 27.1753 77.9102 22.1731 72.3177 19.0958C66.6339 15.9676 59.1674 14.7967 51.7783 16.3589C51.3831 16.6129 50.9095 16.7247 50.4408 16.6727C46.8212 17.6033 43.2488 19.2027 39.9431 21.5651C35.5587 24.6962 34.1054 28.4109 35.0282 31.8588C35.7852 34.6889 37.9622 37.2365 41.0836 39.0791C40.5511 36.8806 40.9835 34.5084 42.1358 32.3912C43.7372 29.4493 46.5074 27.5606 49.4336 26.4094C53.4935 24.8129 57.7984 24.6501 58.9507 24.6501C69.769 24.6501 77.1826 30.3329 76.3628 37.0983C76.3392 38.831 76.2726 42.022 76.0804 44.8511ZM66.4172 41.3944C66.3633 41.2101 66.3338 41.0149 66.3338 40.8129C66.3338 39.5518 65.3611 38.6879 64.1127 38.1132C61.568 36.9433 57.7965 36.9924 54.833 38.6222C54.2348 38.9517 53.7798 39.2762 53.466 39.6136C53.2963 39.796 53.1512 39.9372 53.1649 40.1088C53.1816 40.3059 53.3444 40.4569 53.5082 40.6168C53.7416 40.8443 54.0338 41.0433 54.3564 41.2159C55.1458 41.6376 56.1137 41.8945 57.0286 41.8945C57.3395 41.8945 57.6337 41.9642 57.8975 42.0887C61.2699 42.0269 64.1333 41.8122 66.4172 41.3944ZM70.3878 40.1598C70.6986 39.9637 70.9467 39.7401 71.1252 39.4783C72.9345 36.8139 72.5059 34.2691 70.5515 32.3942C68.1696 30.1103 63.9548 28.7364 58.9507 28.7364C57.9798 28.7364 54.3505 28.8668 50.9291 30.2123C48.8678 31.0233 46.8516 32.2726 45.7239 34.3456C44.9776 35.7166 44.6619 37.2709 45.2258 38.6496C45.7818 40.0098 47.1478 41.0934 49.4307 41.7916C49.364 41.6386 49.3081 41.4837 49.2611 41.3277C48.7021 39.4694 49.2248 37.0443 52.8639 35.0419C57.0002 32.7668 62.2682 32.7678 65.82 34.4015C68.4187 35.5959 70.1358 37.619 70.3878 40.1598Z" fill="black"/>
<defs>
<linearGradient id="paint0_linear_578_79699" x1="2.11133" y1="46.9524" x2="116.109" y2="46.9524" gradientUnits="userSpaceOnUse">
<stop stop-color="#AA54EA"/>
<stop offset="0.362283" stop-color="#FF4340"/>
<stop offset="0.665012" stop-color="#FD6717"/>
<stop offset="1" stop-color="#FDCB02"/>
</linearGradient>
</defs>
</svg>
