<svg width="33" height="30" viewBox="0 0 33 30" fill="none" xmlns="http://www.w3.org/2000/svg">
<path d="M12.9714 1.8507L15.177 2.6779L16.0041 2.44791L17.4745 1.8507L19.1746 1.43726H21.4261L23.7236 1.8507L25.6994 3.45902L26.986 5.66458L28.9618 6.58356L30.9836 8.23773L31.5809 10.1216V11.9596L30.616 13.6597L28.4564 15.5436L26.986 15.9112L26.6184 17.6114V20.5981L25.2399 23.7686L23.7236 25.7903L21.7478 27.4904L19.1746 28.5932L16.2339 28.9608L13.431 28.5932L11.2254 27.8121L8.83607 26.112L7.54923 24.4118C7.30426 23.8604 6.80512 22.6933 6.76836 22.436C6.72241 22.1144 6.26292 20.644 6.21697 20.3683C6.18021 20.1478 5.92587 18.806 5.80329 18.1628V17.1059L5.2978 15.9112L4.19521 15.5436L2.44914 14.6706L1.39231 13.2921L0.794922 11.3163V9.24861L2.08142 7.3647L3.87335 6.07812H5.2978L5.80329 4.92939L7.54923 3.18332L10.3063 1.8507H12.9714Z" fill="url(#paint0_linear_578_79687)"/>
<path fill-rule="evenodd" clip-rule="evenodd" d="M15.5499 2.11342C15.5314 2.09911 15.5118 2.08614 15.4911 2.07422C14.2363 1.35151 12.5828 0.876669 10.4768 1.17645C7.91172 1.54165 5.90592 3.21907 4.86223 5.25851C4.77219 5.24236 4.67685 5.24845 4.58443 5.28049C1.00634 6.52545 0.213443 9.05323 0.238866 10.4984C0.254756 11.4041 0.452583 12.6154 1.23038 13.7605C1.94356 14.8103 3.14827 15.8172 5.18797 16.4525C5.10137 18.7949 5.32409 29.2705 16.2363 29.2728H16.2753C16.8001 29.2712 17.325 29.2464 17.847 29.1915C18.7506 29.0967 19.6465 28.9129 20.5053 28.6142C20.8838 28.4826 21.2543 28.329 21.6137 28.1521C21.9741 27.9744 22.3231 27.7736 22.6568 27.5501C23.0774 27.2686 23.4735 26.9506 23.8398 26.6013C24.0871 26.3653 24.3207 26.115 24.54 25.8526C24.6973 25.6643 24.8472 25.4699 24.9894 25.27C25.0959 25.1206 25.1978 24.9683 25.2961 24.8134C26.0034 23.6948 26.4899 22.4464 26.8077 21.1646C26.8617 20.9464 26.911 20.7268 26.9555 20.5065C27.0151 20.2128 27.0665 19.9173 27.1102 19.6209C27.1697 19.2147 27.2153 18.8063 27.2468 18.3969C27.2701 18.0947 27.286 17.7923 27.2942 17.4893C27.3032 17.1477 27.3027 16.8058 27.2908 16.4644L27.2905 16.4523C29.3297 15.8169 30.5405 14.8109 31.2568 13.7616C32.041 12.613 32.2383 11.3975 32.2383 10.4886C32.2383 8.87659 31.1607 6.89091 27.6613 5.36788C27.5982 5.20237 27.5291 5.0395 27.4536 4.87981C26.4987 2.85785 24.5644 1.32794 21.6828 0.89918C18.9251 0.488961 16.9185 1.18758 15.5499 2.11342ZM6.27906 16.7648C6.26714 17.2997 6.2833 17.8355 6.32461 18.3688C6.35268 18.734 6.3932 19.0984 6.44617 19.461C6.48483 19.7258 6.53038 19.9901 6.58308 20.2525C6.62334 20.4533 6.66809 20.6532 6.71682 20.8518C6.99939 21.9975 7.43053 23.1137 8.05764 24.1164C8.14583 24.2573 8.23746 24.3955 8.33333 24.5314C8.46124 24.713 8.59604 24.8897 8.73772 25.0607C8.93078 25.2938 9.13629 25.5165 9.35371 25.7268C9.67203 26.0345 10.016 26.3158 10.381 26.5666C10.9567 26.9617 11.5838 27.2792 12.2387 27.5205C12.939 27.7781 13.6691 27.949 14.4077 28.0499C14.8346 28.1084 15.2644 28.1433 15.6953 28.1595L15.7038 28.1598C15.7562 27.2948 15.9662 25.5531 16.7861 23.6C15.0698 21.1498 11.9419 18.431 6.27906 16.764V16.7648ZM26.1994 16.7693C18.0101 19.3182 16.9453 26.1706 16.8097 28.1584C25.7934 27.812 26.2556 19.2539 26.1994 16.7693ZM22.74 12.0196C22.4976 12.4377 22.196 12.8395 21.8467 13.2264C20.7617 14.4276 19.2056 15.4856 17.6317 16.453C17.5999 16.4854 17.5636 16.5142 17.5231 16.5386C17.4842 16.5622 17.4439 16.5802 17.4026 16.5931C17.1206 16.7648 16.8385 16.9337 16.5591 17.1003C15.3322 17.8315 14.4625 18.8052 14.0732 19.2912C15.4601 20.3224 16.517 21.4125 17.3237 22.4668C18.374 20.493 20.0957 18.4385 22.9182 16.935C23.1788 15.6832 22.9773 13.6295 22.74 12.0196ZM9.23772 10.7831C9.0248 12.3114 8.89556 14.5489 9.47765 16.5759L9.51181 16.6281C9.53988 16.6707 9.56107 16.716 9.5759 16.7624C10.9474 17.3394 12.1365 17.9811 13.1675 18.6583C13.5941 18.1191 14.5843 16.9928 15.9943 16.1525C16.1434 16.0635 16.2935 15.9737 16.4439 15.8837C14.9225 13.9078 11.8802 12.6816 11.8802 12.6816C11.8394 12.665 11.8018 12.644 11.7674 12.6194C10.6797 12.2007 9.80471 11.5466 9.23772 10.7831ZM28.0363 6.76565C28.2979 8.35355 28.0662 10.1083 27.3106 11.8284C26.9666 12.6115 26.313 13.5063 25.7026 14.4051C25.3061 14.9891 24.924 15.572 24.6931 16.1252C25.2773 15.899 25.8991 15.6943 26.5609 15.515C26.5667 15.5134 26.5723 15.5118 26.5781 15.5103C30.457 14.4578 31.135 11.9846 31.135 10.4886C31.135 9.28866 30.3082 7.93989 28.0363 6.76565ZM4.34184 6.5604C1.94515 7.61813 1.32307 9.39433 1.34214 10.4791C1.35512 11.2174 1.50925 12.2071 2.14324 13.1406C2.79128 14.0945 3.9348 14.9756 5.88923 15.5076C5.90247 15.5108 5.91545 15.5142 5.92816 15.5182C6.60162 15.7009 7.2425 15.8977 7.85214 16.1067C6.22689 13.6207 5.1358 11.9335 4.6456 10.9634C3.96897 9.62393 3.90408 8.05324 4.34184 6.5604ZM19.6868 12.4854C19.4219 12.6279 19.0946 12.7481 18.704 12.8387C17.8094 13.0466 16.539 13.1305 14.9604 13.1186C15.8309 13.7028 16.7398 14.4441 17.3891 15.3074C18.1486 14.8347 18.8955 14.3397 19.571 13.8138C19.5604 13.7521 19.5602 13.6875 19.5718 13.6226C19.6243 13.3297 19.6611 12.9187 19.6868 12.4854ZM24.1152 14.8424C24.2159 14.6686 24.3236 14.4936 24.4359 14.3185C25.0893 13.3021 25.911 12.2712 26.3003 11.3845C27.2304 9.26748 27.2778 7.09085 26.4558 5.35094C25.6425 3.62902 23.9746 2.35573 21.5204 1.9908C18.3621 1.521 16.3332 2.70398 15.2268 3.80725C17.0713 3.66319 18.8626 4.05142 20.2874 4.83558C22.1028 5.83451 23.3281 7.46691 23.4068 9.45259C23.4786 9.80613 24.0154 12.5063 24.1152 14.8424ZM14.6193 2.85758C13.5854 2.33905 12.2668 2.03635 10.6323 2.26913C8.15192 2.62215 6.29018 4.41954 5.5341 6.46851C5.04099 7.80404 5.01689 9.25132 5.6305 10.4658C6.028 11.2524 6.82937 12.5172 7.99488 14.3074C7.82751 11.6374 8.39 9.1965 8.50679 8.72511C8.49567 7.64408 9.04227 6.52041 10.3712 5.57127C11.3828 4.84882 12.4758 4.36101 13.583 4.0787C13.8174 3.72119 14.1598 3.28925 14.6193 2.85758ZM20.7718 12.7579C20.86 12.6684 20.9455 12.5781 21.0279 12.4867C21.7959 11.6364 22.3072 10.7081 22.3072 9.65704C22.3072 7.98438 21.2659 6.6335 19.7556 5.80247C18.2207 4.95767 16.2043 4.64146 14.2088 5.06333C14.1021 5.13192 13.9742 5.16211 13.8476 5.14808C12.8701 5.3994 11.9053 5.83133 11.0126 6.4693C9.82855 7.3149 9.43607 8.31807 9.68528 9.2492C9.88972 10.0135 10.4776 10.7015 11.3206 11.1991C11.1768 10.6054 11.2936 9.96477 11.6047 9.393C12.0372 8.59852 12.7854 8.08846 13.5756 7.77755C14.672 7.34641 15.8346 7.30245 16.1458 7.30245C19.0673 7.30245 21.0694 8.83713 20.848 10.6642C20.8417 11.1321 20.8237 11.9939 20.7718 12.7579ZM18.1622 11.8244C18.1476 11.7746 18.1396 11.7219 18.1396 11.6673C18.1396 11.3268 17.8769 11.0935 17.5398 10.9383C16.8526 10.6223 15.834 10.6356 15.0337 11.0757C14.8722 11.1647 14.7493 11.2524 14.6646 11.3435C14.6188 11.3927 14.5796 11.4309 14.5833 11.4772C14.5878 11.5304 14.6317 11.5712 14.676 11.6144C14.739 11.6758 14.8179 11.7296 14.905 11.7762C15.1182 11.8901 15.3796 11.9594 15.6267 11.9594C15.7106 11.9594 15.7901 11.9783 15.8613 12.0119C16.7721 11.9952 17.5454 11.9372 18.1622 11.8244ZM19.2344 11.491C19.3184 11.438 19.3854 11.3776 19.4336 11.3069C19.9222 10.5874 19.8065 9.90015 19.2787 9.3938C18.6354 8.77701 17.4972 8.40599 16.1458 8.40599C15.8836 8.40599 14.9034 8.44121 13.9795 8.80456C13.4228 9.02357 12.8783 9.36096 12.5738 9.9208C12.3722 10.291 12.2869 10.7108 12.4392 11.0831C12.5894 11.4505 12.9583 11.7431 13.5748 11.9316C13.5568 11.8903 13.5417 11.8485 13.529 11.8064C13.378 11.3045 13.5192 10.6496 14.502 10.1088C15.619 9.49443 17.0417 9.4947 18.0009 9.9359C18.7027 10.2585 19.1664 10.8048 19.2344 11.491Z" fill="black"/>
<defs>
<linearGradient id="paint0_linear_578_79687" x1="0.794922" y1="13.3254" x2="31.5809" y2="13.3254" gradientUnits="userSpaceOnUse">
<stop stop-color="#AA54EA"/>
<stop offset="0.362283" stop-color="#FF4340"/>
<stop offset="0.665012" stop-color="#FD6717"/>
<stop offset="1" stop-color="#FDCB02"/>
</linearGradient>
</defs>
</svg>
