<svg width="42" height="42" viewBox="0 0 42 42" fill="none" xmlns="http://www.w3.org/2000/svg">
<circle cx="20.6035" cy="20.8848" r="20" fill="white" stroke="black"/>
<g clip-path="url(#clip0_578_91072)">
<path d="M18.8535 22.0093C19.1219 22.3681 19.4644 22.665 19.8576 22.8798C20.2509 23.0947 20.6857 23.2225 21.1327 23.2545C21.5796 23.2865 22.0283 23.222 22.4481 23.0654C22.868 22.9088 23.2492 22.6637 23.566 22.3468L25.441 20.4718C26.0103 19.8824 26.3252 19.093 26.3181 18.2736C26.311 17.4543 25.9824 16.6705 25.4029 16.0911C24.8235 15.5117 24.0398 15.183 23.2204 15.1759C22.401 15.1688 21.6116 15.4838 21.0223 16.053L19.9473 17.1218" stroke="black" stroke-width="1.5" stroke-linecap="round" stroke-linejoin="round"/>
<path d="M21.3534 20.7591C21.085 20.4002 20.7425 20.1033 20.3493 19.8885C19.9561 19.6736 19.5212 19.5459 19.0742 19.5138C18.6273 19.4818 18.1787 19.5463 17.7588 19.7029C17.339 19.8596 16.9577 20.1046 16.6409 20.4216L14.7659 22.2966C14.1967 22.8859 13.8817 23.6753 13.8888 24.4947C13.8959 25.314 14.2246 26.0978 14.804 26.6772C15.3834 27.2566 16.1672 27.5853 16.9865 27.5924C17.8059 27.5995 18.5953 27.2845 19.1846 26.7153L20.2534 25.6466" stroke="black" stroke-width="1.5" stroke-linecap="round" stroke-linejoin="round"/>
</g>
<defs>
<clipPath id="clip0_578_91072">
<rect width="15" height="15" fill="white" transform="translate(12.6035 13.8848)"/>
</clipPath>
</defs>
</svg>
