<svg width="137" height="106" viewBox="0 0 137 106" fill="none" xmlns="http://www.w3.org/2000/svg">
<path d="M3.13518 100.426H2.12718V90.4018H3.14918L8.66518 98.7458V90.4018H9.65918V100.426H8.66518L3.13518 92.0818V100.426ZM21.0396 95.4138C21.0396 98.4518 19.0656 100.594 16.2656 100.594C13.4516 100.594 11.4916 98.4518 11.4916 95.4138C11.4916 92.3758 13.4656 90.2198 16.2656 90.2198C19.0796 90.2198 21.0396 92.3618 21.0396 95.4138ZM20.0036 95.4138C20.0036 92.9078 18.4776 91.1998 16.2656 91.1998C14.0536 91.1998 12.5416 92.9078 12.5416 95.4138C12.5416 97.9198 14.0536 99.6278 16.2656 99.6278C18.4776 99.6278 20.0036 97.9058 20.0036 95.4138ZM23.8754 90.4018V99.5018H28.4814V100.426H22.8674V90.4018H23.8754ZM30.9985 90.4018V99.5018H35.6045V100.426H29.9905V90.4018H30.9985ZM38.4805 96.2398L35.0785 90.4018H36.2125L38.6905 94.7278C38.8025 94.9378 38.8865 95.1058 38.9845 95.3298C39.1105 95.0778 39.1105 95.0778 39.2925 94.7278L41.7425 90.4018H42.8485L39.4885 96.2398V100.426H38.4805V96.2398ZM46.1832 100.426L43.2012 90.4018H44.2512L46.2812 97.2898C46.4212 97.7798 46.5472 98.2838 46.6732 98.9418C46.8412 98.2138 46.9812 97.7798 47.1352 97.2898L49.3192 90.4018H50.3692L52.5532 97.2898C52.7072 97.7938 52.8472 98.2978 53.0012 98.9418C53.1552 98.1718 53.2812 97.6818 53.3932 97.3038L55.4652 90.4018H56.4872L53.4772 100.426H52.5252L49.8372 91.9138L47.1492 100.426H46.1832ZM66.526 95.4138C66.526 98.4518 64.552 100.594 61.752 100.594C58.938 100.594 56.978 98.4518 56.978 95.4138C56.978 92.3758 58.952 90.2198 61.752 90.2198C64.566 90.2198 66.526 92.3618 66.526 95.4138ZM65.49 95.4138C65.49 92.9078 63.964 91.1998 61.752 91.1998C59.54 91.1998 58.028 92.9078 58.028 95.4138C58.028 97.9198 59.54 99.6278 61.752 99.6278C63.964 99.6278 65.49 97.9058 65.49 95.4138ZM77.2857 95.4138C77.2857 98.4518 75.3117 100.594 72.5117 100.594C69.6977 100.594 67.7377 98.4518 67.7377 95.4138C67.7377 92.3758 69.7117 90.2198 72.5117 90.2198C75.3257 90.2198 77.2857 92.3618 77.2857 95.4138ZM76.2497 95.4138C76.2497 92.9078 74.7237 91.1998 72.5117 91.1998C70.2997 91.1998 68.7877 92.9078 68.7877 95.4138C68.7877 97.9198 70.2997 99.6278 72.5117 99.6278C74.7237 99.6278 76.2497 97.9058 76.2497 95.4138ZM82.1655 100.426H79.1135V90.4018H82.1375C85.1615 90.4018 87.1775 92.4178 87.1775 95.4138C87.1775 98.4098 85.1755 100.426 82.1655 100.426ZM82.0955 91.3258H80.1215V99.5018H82.1235C84.5735 99.5018 86.1415 97.9058 86.1415 95.4138C86.1415 92.9078 84.5735 91.3258 82.0955 91.3258ZM92.8811 100.426H91.8591L95.5411 90.4018H96.7871L100.511 100.426H99.4611L98.4811 97.7658H93.8611L92.8811 100.426ZM96.0311 91.8158L94.1691 96.8838H98.1591L96.2831 91.8158C96.2411 91.6758 96.1711 91.5078 96.1571 91.4098C96.1431 91.4938 96.0871 91.6758 96.0311 91.8158ZM105.596 100.58C102.796 100.58 100.892 98.4938 100.892 95.4138C100.892 92.3338 102.824 90.2338 105.652 90.2338C107.808 90.2338 109.502 91.5358 109.908 93.5238H108.83C108.41 92.0818 107.178 91.1998 105.61 91.1998C103.412 91.1998 101.942 92.8798 101.942 95.4138C101.942 97.9338 103.412 99.6138 105.61 99.6138C107.192 99.6138 108.452 98.7598 108.886 97.4158H109.964C109.502 99.3058 107.752 100.58 105.596 100.58ZM110.097 91.3258V90.4018H117.279V91.3258H114.185V100.426H113.177V91.3258H110.097ZM127.229 95.4138C127.229 98.4518 125.255 100.594 122.455 100.594C119.641 100.594 117.681 98.4518 117.681 95.4138C117.681 92.3758 119.655 90.2198 122.455 90.2198C125.269 90.2198 127.229 92.3618 127.229 95.4138ZM126.193 95.4138C126.193 92.9078 124.667 91.1998 122.455 91.1998C120.243 91.1998 118.731 92.9078 118.731 95.4138C118.731 97.9198 120.243 99.6278 122.455 99.6278C124.667 99.6278 126.193 97.9058 126.193 95.4138ZM130.065 100.426H129.057V90.4018H132.795C134.825 90.4018 136.057 91.5218 136.057 93.2998C136.057 94.7418 135.301 95.7498 134.013 96.0998L136.155 100.426H135.035L132.991 96.2678H130.065V100.426ZM130.065 91.3118V95.3578H132.823C134.209 95.3578 135.021 94.6018 135.021 93.3278C135.021 92.0258 134.167 91.3118 132.795 91.3118H130.065Z" fill="white"/>
<path fill-rule="evenodd" clip-rule="evenodd" d="M18.1875 77.405C18.165 77.0796 18.1879 76.7583 18.2564 76.4398L22.1173 69.8211C22.6565 69.0461 23.323 68.9303 24.1167 69.4763C26.0705 70.6608 28.047 71.8094 30.046 72.9236C30.8391 73.2532 31.1379 73.8281 30.9423 74.6472C30.4485 75.589 29.92 76.5087 29.3565 77.405C30.7814 77.5884 32.2063 77.5884 33.6311 77.405C46.6176 54.9246 59.6023 32.4485 72.585 9.9769C72.7925 9.72897 72.8156 9.47608 72.6539 9.2185C71.6984 8.70638 70.7562 8.17785 69.8272 7.63277C68.4837 9.62859 67.2427 11.6969 66.1042 13.8378C65.6439 14.2264 65.1154 14.3412 64.5184 14.1825L57.8997 10.3216C57.2325 9.8812 57.0716 9.30662 57.4171 8.598C58.6075 6.6077 59.7796 4.6083 60.9333 2.59979C59.9364 1.9262 58.9022 1.3057 57.8308 0.738281C57.7243 0.758275 57.6324 0.804193 57.555 0.876171C42.7873 26.413 28.0561 51.9686 13.3613 77.5429C14.9939 77.7249 16.6486 77.7249 18.3254 77.5429C18.3083 77.4588 18.2623 77.4133 18.1875 77.405ZM55.6935 15.5614C55.1585 15.1667 54.561 15.0057 53.9009 15.0788C53.7227 15.3265 53.5158 15.5563 53.2804 15.7683C52.0743 17.9511 50.8333 20.1113 49.5574 22.2491C49.2665 22.8183 49.3354 23.3468 49.7643 23.8348L56.6587 27.8336C57.4085 28.0618 57.9829 27.855 58.3824 27.2131C59.4967 25.2141 60.6457 23.2376 61.8296 21.2839C62.5382 20.4329 62.4693 19.6746 61.6228 19.0087C59.6238 17.8944 57.6473 16.7454 55.6935 15.5614ZM46.0412 28.7299C46.4754 28.6901 46.8891 28.759 47.2822 28.9367C49.4201 30.2126 51.5802 31.4536 53.763 32.6598C54.4303 33.1002 54.5912 33.6748 54.2457 34.3834L50.2469 41.2779C49.7979 41.5439 49.3153 41.6128 48.799 41.4847C46.6612 40.2088 44.501 38.9678 42.3182 37.7617C41.4278 37.225 41.2669 36.5127 41.8356 35.6244C43.0654 33.5785 44.2605 31.5102 45.4207 29.4194C45.6091 29.1626 45.8159 28.9329 46.0412 28.7299ZM39.8362 42.8636C39.3413 42.5008 38.7897 42.34 38.1815 42.381C37.8523 42.7137 37.5535 43.0815 37.2852 43.4841C36.125 45.5749 34.9299 47.6433 33.7001 49.6892C33.5011 50.3389 33.6619 50.8674 34.1827 51.2749C36.2735 52.4351 38.3419 53.6302 40.3877 54.86C41.4285 55.6166 42.2328 55.4098 42.8008 54.2395C43.8028 52.3655 44.86 50.5268 45.9723 48.7239C46.4012 48.1418 46.5391 47.4982 46.3859 46.7935C44.2369 45.4315 42.0537 44.1216 39.8362 42.8636ZM30.3218 56.0321C30.8225 55.9852 31.282 56.1002 31.7007 56.3768C33.8385 57.6527 35.9987 58.8937 38.1815 60.0998C38.7089 60.7383 38.7318 61.4057 38.2504 62.0992C37.1382 63.9028 36.081 65.7409 35.079 67.6148C34.5423 68.5056 33.83 68.6656 32.9417 68.0975C30.9089 66.8468 28.8406 65.6527 26.7366 64.5123C25.973 63.907 25.8581 63.1941 26.3919 62.375C27.5041 60.5714 28.5613 58.7335 29.5634 56.8594C29.7509 56.5115 30.0037 56.2358 30.3218 56.0321ZM80.1 13.6999C80.3496 13.6987 80.5798 13.7676 80.7894 13.9068L95.9463 22.6564L111.125 31.4188C111.244 31.5138 111.335 31.6286 111.401 31.7635C107.064 39.4955 102.606 47.1484 98.0257 54.7222C96.2552 56.0538 94.3702 56.2377 92.3722 55.2737C84.5345 50.6885 76.6748 46.1381 68.793 41.6226C66.9354 40.0064 66.4528 38.0531 67.3452 35.7623C71.6333 28.427 75.8847 21.0728 80.1 13.6999ZM132.632 46.9226L131.533 48.8618C130.664 50.4635 129.744 52.0263 128.775 53.5501L124.962 60.1847L124.936 60.2304L124.804 60.4604L124.517 60.959L124.316 61.3086C121.205 66.7219 118.095 72.1334 114.986 77.5429C108.252 77.7263 101.495 77.7263 94.7163 77.5429C94.7329 77.4588 94.7797 77.4133 94.8542 77.405C102.816 63.5512 110.814 49.7163 118.847 35.9002C119.932 36.511 120.99 37.1546 122.019 37.8306C120.777 39.9244 119.56 42.0386 118.364 44.1736C118.246 44.7875 118.453 45.2701 118.985 45.6214C121.075 46.7816 123.144 47.9767 125.19 49.2065C125.609 49.4832 126.068 49.5982 126.569 49.5513C126.842 49.3255 127.118 49.0957 127.396 48.8618C128.472 46.8022 129.622 44.7797 130.843 42.7947C131.907 43.3712 132.917 44.0147 133.877 44.7251L133.047 46.1908L132.632 46.9226ZM64.1048 50.1028C64.9138 50.5297 65.695 50.9893 66.4489 51.4817C73.3856 55.456 80.3261 59.4318 87.2703 63.4092C89.4972 64.5702 90.3466 66.3862 89.8212 68.8558C88.3555 71.7929 86.7697 74.6665 85.064 77.474C71.1372 77.5663 57.2103 77.5663 43.2834 77.474C45.3708 73.9192 47.4391 70.3575 49.4885 66.7875C49.7142 66.2883 49.99 65.8292 50.3158 65.4086C50.9054 64.2696 51.5488 63.1665 52.2463 62.0992C52.3702 61.7007 52.5542 61.3326 52.7978 60.9961C54.6355 57.9653 56.405 54.8858 58.1066 51.7575C58.3158 51.5176 58.5226 51.2878 58.7271 51.0681C60.2775 49.4556 62.0701 49.1339 64.1048 50.1028ZM116.089 50.4476C115.724 50.379 115.357 50.356 114.986 50.3786C114.822 50.4977 114.662 50.6356 114.504 50.7923C113.24 53.1356 111.907 55.4338 110.505 57.6868C110.288 58.3808 110.495 58.9094 111.125 59.2725C113.216 60.4322 115.284 61.6277 117.33 62.8576C118.308 63.4492 119.066 63.2424 119.605 62.2371C120.765 60.1467 121.961 58.078 123.191 56.0321C123.515 55.4463 123.446 54.9178 122.984 54.4464L119.539 52.4484L116.089 50.4476ZM107.126 64.0297C107.787 63.9566 108.384 64.1179 108.919 64.5123C110.873 65.6968 112.849 66.8454 114.848 67.9596C115.51 68.5966 115.579 69.3081 115.055 70.0968C113.825 72.1431 112.63 74.2115 111.47 76.3019C111.049 76.8024 110.521 76.9638 109.884 76.7845L106.437 74.7851L102.99 72.7857C102.535 72.2631 102.466 71.6881 102.783 71.0621C103.401 70.0012 104.02 68.9403 104.639 67.8795L104.663 67.8382L104.688 67.7964L104.713 67.7541C105.356 66.6505 106 65.5469 106.644 64.4434C106.802 64.2862 106.962 64.1483 107.126 64.0297Z" fill="white"/>
</svg>
