<svg width="24" height="24" viewBox="0 0 24 24" fill="none" xmlns="http://www.w3.org/2000/svg">
<g clip-path="url(#clip0_2515_16)">
<path d="M8.03581 5.44271H6.11914V1.60938H17.6191V5.44271H15.7025V3.52604H8.03581V5.44271ZM0.369141 7.35937V12.4002C3.23559 13.2415 6.18578 13.7653 9.16664 13.9623C9.42539 13.9623 9.69372 13.9623 9.95247 13.9623V16.9427H13.7858V14.0006C14.0446 14.0006 14.3129 14.0006 14.5716 14.0006C17.5539 13.7912 20.5042 13.2545 23.3691 12.4002V7.35937H0.369141ZM15.7025 18.8594H8.03581V15.7927C5.4428 15.5567 2.87666 15.0852 0.369141 14.384V22.6927H23.3691V14.384C20.8616 15.0852 18.2955 15.5567 15.7025 15.7927V18.8594Z" fill="#ADAFBB"/>
</g>
<defs>
<clipPath id="clip0_2515_16">
<rect width="23" height="23" fill="white" transform="translate(0.113281 0.941406)"/>
</clipPath>
</defs>
</svg>
