<svg width="27" height="27" viewBox="0 0 27 27" fill="none" xmlns="http://www.w3.org/2000/svg">
<path d="M26.7097 3.8336C26.6461 3.79035 26.5731 3.76291 26.4967 3.75357C26.4203 3.74423 26.3428 3.75326 26.2706 3.7799L22.0188 5.40673L24.1542 1.35072C24.1913 1.27782 24.2094 1.19669 24.2066 1.11492C24.2038 1.03315 24.1804 0.953424 24.1384 0.883204C24.0964 0.8136 24.037 0.756066 23.9662 0.716208C23.8953 0.676349 23.8153 0.655525 23.734 0.655764H3.8773C3.796 0.655525 3.71602 0.676349 3.64516 0.716208C3.5743 0.756066 3.51497 0.8136 3.47296 0.883204C3.43097 0.953424 3.4075 1.03315 3.40473 1.11492C3.40197 1.19669 3.42001 1.27782 3.45717 1.35072L5.59257 5.40673L1.34071 3.7799C1.26853 3.75326 1.19104 3.74423 1.11467 3.75357C1.03829 3.76291 0.965257 3.79035 0.901627 3.8336C0.838376 3.87678 0.786614 3.93473 0.750833 4.00244C0.715052 4.07015 0.696333 4.14556 0.6963 4.22215V18.712C0.69588 18.7743 0.707849 18.8361 0.731513 18.8938C0.755177 18.9515 0.790063 19.0039 0.834146 19.0479C0.87823 19.092 0.930631 19.1269 0.988309 19.1506C1.04599 19.1742 1.10779 19.1862 1.17013 19.1858C1.22847 19.1861 1.28634 19.1753 1.34071 19.1542L5.78526 17.4516L4.25636 21.6434C4.23113 21.7148 4.22336 21.7911 4.23371 21.8661C4.24406 21.9411 4.27222 22.0125 4.31583 22.0744C4.35944 22.1362 4.41724 22.1867 4.48439 22.2217C4.55154 22.2566 4.62607 22.275 4.70177 22.2752H11.7524V26.4007C11.7524 26.5263 11.8023 26.6469 11.8912 26.7357C11.98 26.8246 12.1006 26.8745 12.2262 26.8745H15.3851C15.5108 26.8745 15.6313 26.8246 15.7202 26.7357C15.809 26.6469 15.8589 26.5263 15.8589 26.4007V22.2941H22.9096C22.9853 22.2939 23.0598 22.2756 23.127 22.2406C23.1941 22.2057 23.2519 22.1552 23.2955 22.0933C23.3391 22.0315 23.3673 21.96 23.3776 21.8851C23.388 21.8101 23.3802 21.7337 23.355 21.6624L21.8261 17.4516L26.2706 19.1542C26.325 19.1753 26.3829 19.1861 26.4412 19.1858C26.5036 19.1862 26.5654 19.1742 26.623 19.1506C26.6807 19.1269 26.7331 19.092 26.7772 19.0479C26.8213 19.0039 26.8562 18.9515 26.8798 18.8938C26.9035 18.8361 26.9155 18.7743 26.915 18.712V4.22215C26.915 4.14556 26.8963 4.07015 26.8605 4.00244C26.8247 3.93473 26.773 3.87678 26.7097 3.8336ZM25.9674 18.0233L21.5007 16.3112V6.62606L25.9674 4.92026V18.0233ZM12.7001 25.9205V22.2941H14.9113V25.9268L12.7001 25.9205ZM5.37777 21.3465L6.91615 17.1262H20.6952L22.2336 21.3465H5.37777ZM1.64397 4.92026L6.11063 6.62606V16.3112L1.64397 18.0233V4.92026ZM22.9664 1.60343L20.7552 5.8237H6.87192L4.6607 1.60343H22.9664ZM7.05829 16.1627V6.77137H20.5531V16.1627H7.05829Z" fill="white"/>
</svg>
