<svg width="27" height="28" viewBox="0 0 27 28" fill="none" xmlns="http://www.w3.org/2000/svg">
<path d="M20.9545 16.8029L17.8554 15.551L17.5544 16.2964L20.6535 17.5483L20.9545 16.8029ZM20.9854 15.5219C22.4439 13.4607 23.5311 11.1797 24.2154 8.78274C24.8263 6.64344 25.1167 4.41079 25.0652 2.16039C23.4647 3.74384 22.1234 5.5509 21.077 7.51485C19.9063 9.71236 19.1041 12.109 18.7222 14.6079L20.9854 15.5219ZM17.5778 14.173C17.9953 11.6327 18.8255 9.19448 20.0206 6.95119C21.324 4.50485 23.0615 2.28889 25.1688 0.4229C25.2672 0.322449 25.4006 0.255718 25.5515 0.244004C25.8819 0.218448 26.1716 0.465495 26.1971 0.795956C26.424 3.61641 26.1357 6.43224 25.3705 9.11143C24.673 11.5535 23.5769 13.8845 22.1109 16.0042C22.3108 16.165 22.3917 16.4437 22.2916 16.6943L22.2391 16.8249C22.7459 17.3509 23.0867 18.0168 23.2194 18.7317C23.3717 19.5509 23.2507 20.4344 22.7935 21.2433C22.1109 22.4527 21.215 23.5463 20.1367 24.461C19.0977 25.3423 17.8884 26.06 16.536 26.5559L16.5211 26.5612C13.4398 27.6875 10.1927 27.461 7.43259 26.1832C4.66715 24.9029 2.38978 22.567 1.25712 19.4814L1.2518 19.4665C0.125536 16.3848 0.352705 13.1373 1.63053 10.3772C2.91085 7.61246 5.24679 5.33438 8.33239 4.20208C9.62016 3.72964 10.9413 3.49395 12.2457 3.47336C13.5953 3.45242 14.9253 3.66255 16.18 4.07997C16.623 4.22728 17.0152 4.44487 17.35 4.71356C17.9516 5.19701 18.3733 5.84728 18.5831 6.55896C18.7921 7.26887 18.7904 8.04373 18.5472 8.77635C18.4109 9.18668 18.2001 9.5828 17.9097 9.94414C17.7117 10.1908 17.5328 10.4347 17.3744 10.6732C16.7685 11.5865 16.4945 12.3805 16.5215 13.0475C16.5414 13.5395 16.7373 13.9771 17.0933 14.353C17.2183 14.2245 17.3975 14.1567 17.5778 14.173ZM16.579 15.5087C15.7942 14.862 15.3629 14.0527 15.3239 13.0943C15.2866 12.1754 15.6238 11.1418 16.3742 10.0109C16.5492 9.74715 16.7501 9.47383 16.9755 9.19306C17.1753 8.9446 17.3194 8.67554 17.4107 8.40081C17.5746 7.90672 17.575 7.38103 17.4323 6.89688C17.2903 6.4145 17.0049 5.974 16.5989 5.6478C16.3706 5.46429 16.1037 5.31592 15.8045 5.21653C14.6761 4.84135 13.4788 4.65216 12.2642 4.67097C11.0975 4.68907 9.90944 4.9024 8.74555 5.32941C5.97089 6.34741 3.87064 8.39513 2.72024 10.8798C1.57339 13.357 1.36787 16.2712 2.3738 19.038L2.39617 19.0994C3.41843 21.8581 5.45941 23.947 7.9352 25.0935C10.4124 26.2404 13.3266 26.4452 16.0927 25.4392L16.1559 25.4162C17.3606 24.9703 18.4368 24.3297 19.3615 23.5452C20.3312 22.7228 21.1366 21.7392 21.7507 20.6538C22.0619 20.1039 22.1447 19.5037 22.041 18.9475C21.9856 18.6501 21.8774 18.3647 21.7215 18.1063L21.5416 18.5517C21.4791 18.7076 21.3584 18.8229 21.2147 18.8826C21.2417 20.3127 20.252 20.9413 19.2663 21.5667C18.6739 21.9426 18.0822 22.3185 17.9402 22.8758C17.9143 22.972 17.8657 23.0639 17.7922 23.1409C17.5643 23.3805 17.1842 23.3901 16.9446 23.1622C16.6077 22.8421 16.3298 22.4906 16.1083 22.1229C15.5823 21.2458 15.364 20.2637 15.4133 19.3575C15.4623 18.4563 15.7761 17.6193 16.316 17.0152C16.1779 16.8508 16.1321 16.6176 16.2173 16.405L16.579 15.5087ZM19.9802 18.5695L17.4884 17.5632C17.4011 17.6257 17.3205 17.6963 17.2474 17.7737C16.8683 18.1726 16.6464 18.7644 16.6109 19.4185C16.574 20.1008 16.7387 20.8422 17.1359 21.5039L17.2357 21.6586C17.6041 21.1993 18.1135 20.876 18.6232 20.5523C19.3714 20.0777 20.1228 19.5999 19.9802 18.5695ZM10.2729 17.8315C11.1351 17.8315 11.9174 18.1826 12.4853 18.7494L12.4885 18.7526C13.055 19.3206 13.4054 20.1025 13.4054 20.964C13.4054 21.8262 13.0543 22.6085 12.4875 23.1764L12.4843 23.1796C11.9163 23.7461 11.1344 24.0965 10.2729 24.0965C9.41074 24.0965 8.62842 23.7454 8.0605 23.1785L8.0573 23.1754C7.4908 22.6074 7.14046 21.8255 7.14046 20.964C7.14046 20.1018 7.49151 19.3195 8.05837 18.7516L8.06156 18.7484C8.62949 18.1819 9.41145 17.8315 10.2729 17.8315ZM11.6388 19.5981C11.2906 19.2496 10.8075 19.0341 10.2729 19.0341C9.73836 19.0341 9.25527 19.2496 8.90812 19.5971C8.5585 19.9463 8.34304 20.4294 8.34304 20.964C8.34304 21.4986 8.55849 21.9816 8.90599 22.3288C9.25527 22.6784 9.73836 22.8939 10.2729 22.8939C10.8075 22.8939 11.2906 22.6784 11.6377 22.3309C11.9873 21.9816 12.2028 21.4986 12.2028 20.964C12.2028 20.4294 11.9873 19.9463 11.6388 19.5981ZM6.2726 12.1218C7.06237 12.1218 7.77866 12.4427 8.29654 12.9605C8.81442 13.4784 9.13529 14.1947 9.13529 14.9845C9.13529 15.7742 8.81442 16.4902 8.29654 17.0081C7.77866 17.5259 7.06237 17.8468 6.2726 17.8468C5.48283 17.8468 4.76654 17.5259 4.24866 17.0081L4.21565 16.9722C3.7173 16.4568 3.40991 15.7551 3.40991 14.9845C3.40991 14.1947 3.73079 13.4784 4.24866 12.9605C4.76654 12.4427 5.48248 12.1218 6.2726 12.1218ZM7.44678 13.8103C7.14685 13.5104 6.7312 13.3244 6.2726 13.3244C5.81365 13.3244 5.39835 13.5104 5.09842 13.8103C4.79848 14.1102 4.61249 14.5259 4.61249 14.9845C4.61249 15.4317 4.78784 15.8371 5.07215 16.1334L5.09842 16.1583C5.39835 16.4582 5.814 16.6442 6.2726 16.6442C6.7312 16.6442 7.14685 16.4582 7.44678 16.1583C7.74672 15.8584 7.93271 15.4431 7.93271 14.9845C7.93271 14.5259 7.74672 14.1102 7.44678 13.8103ZM10.0032 6.98917C10.6932 6.98917 11.3193 7.26958 11.7719 7.72214C12.2244 8.17471 12.5049 8.80049 12.5049 9.49087C12.5049 10.1809 12.2244 10.807 11.7719 11.2596C11.3193 11.7122 10.6932 11.9926 10.0032 11.9926C9.31277 11.9926 8.68699 11.7122 8.23442 11.2596C7.78186 10.807 7.50145 10.1809 7.50145 9.49087C7.50145 8.80049 7.78186 8.17471 8.23442 7.72214C8.68699 7.26958 9.31277 6.98917 10.0032 6.98917ZM10.9221 8.5719C10.6875 8.33727 10.362 8.19174 10.0032 8.19174C9.64394 8.19174 9.3188 8.33727 9.08418 8.5719C8.84956 8.80652 8.70403 9.13166 8.70403 9.49087C8.70403 9.84973 8.84956 10.1752 9.08418 10.4098C9.3188 10.6445 9.64394 10.79 10.0032 10.79C10.362 10.79 10.6875 10.6445 10.9221 10.4098C11.1567 10.1752 11.3023 9.84973 11.3023 9.49087C11.3023 9.13166 11.1567 8.80652 10.9221 8.5719Z" fill="white"/>
</svg>
