<svg width="27" height="26" viewBox="0 0 27 26" fill="none" xmlns="http://www.w3.org/2000/svg">
<path d="M19.9793 4.23359V3.14331C19.9793 1.7532 18.9708 0.499374 17.6079 0.335831C15.9453 0.117775 14.5006 1.42611 14.5006 3.06154V4.26085H0.953887C0.572288 4.26085 0.272461 4.56067 0.272461 4.94227C0.272461 5.32387 0.572288 5.6237 0.953887 5.6237H14.5006V6.71398C14.5006 8.10409 15.5091 9.35791 16.872 9.52145C18.5347 9.73951 19.9793 8.43117 19.9793 6.79575V5.59644H25.4852C25.8668 5.59644 26.1667 5.29661 26.1667 4.91501C26.1667 4.53342 25.8668 4.23359 25.4852 4.23359H19.9793ZM18.5892 6.82301C18.5892 7.55895 17.9895 8.1586 17.2536 8.1586C16.5177 8.1586 15.918 7.55895 15.918 6.82301V3.03428C15.918 2.29834 16.5177 1.69868 17.2536 1.69868C17.9895 1.69868 18.5892 2.29834 18.5892 3.03428V6.82301Z" fill="white"/>
<path d="M11.9385 10.9108C11.9385 9.27541 10.5211 7.99433 8.83117 8.18513C7.44106 8.34867 6.45981 9.60249 6.45981 10.9926V12.0829H0.953887C0.572288 12.0829 0.272461 12.3827 0.272461 12.7643C0.272461 13.1459 0.572288 13.4457 0.953887 13.4457H6.45981V14.536C6.45981 15.9261 7.46832 17.1799 8.83117 17.3435C10.4939 17.5615 11.9385 16.2532 11.9385 14.6178V13.4185H25.4852C25.8668 13.4185 26.1667 13.1187 26.1667 12.7371C26.1667 12.3555 25.8668 12.0556 25.4852 12.0556H11.9385V10.9108ZM10.5484 14.6723C10.5484 15.4082 9.94871 16.0079 9.21277 16.0079C8.47683 16.0079 7.87718 15.4082 7.87718 14.6723V10.9108C7.87718 10.1749 8.47683 9.57524 9.21277 9.57524C9.94871 9.57524 10.5484 10.1749 10.5484 10.9108V14.6723Z" fill="white"/>
<path d="M19.9793 18.7617C19.9793 17.1262 18.5619 15.8452 16.872 16.036C15.4819 16.1995 14.5006 17.4533 14.5006 18.8434V19.9337H0.953887C0.572288 19.9337 0.272461 20.2335 0.272461 20.6151C0.272461 20.9967 0.572288 21.2966 0.953887 21.2966H14.5006V22.3868C14.5006 23.777 15.5091 25.0308 16.872 25.1943C18.5347 25.4124 19.9793 24.104 19.9793 22.4686V21.2693H25.4852C25.8668 21.2693 26.1667 20.9695 26.1667 20.5879C26.1667 20.2063 25.8668 19.9065 25.4852 19.9065H19.9793V18.7617ZM18.5892 22.5504C18.5892 23.2863 17.9895 23.886 17.2536 23.886C16.5177 23.886 15.918 23.2863 15.918 22.5504V18.7617C15.918 18.0257 16.5177 17.4261 17.2536 17.4261C17.9895 17.4261 18.5892 18.0257 18.5892 18.7617V22.5504Z" fill="white"/>
</svg>
