<svg width="25" height="25" viewBox="0 0 25 25" fill="none" xmlns="http://www.w3.org/2000/svg">
<path fill-rule="evenodd" clip-rule="evenodd" d="M5.62667 2.38711C4.86913 2.38711 4.1101 2.42134 3.35851 2.49129C2.96709 2.53296 2.47893 3.01963 2.43725 3.42147C2.30033 4.91423 2.30033 6.43824 2.43874 7.94142C2.47893 8.33284 2.96709 8.821 3.36893 8.86268C4.85722 8.9996 6.38123 8.9996 7.88143 8.86268C8.29071 8.81654 8.76697 8.3388 8.81013 7.92803C8.94556 6.43824 8.94556 4.91423 8.80864 3.40957C8.76697 3.02112 8.27881 2.53296 7.87548 2.4898C7.13282 2.42134 6.37974 2.38711 5.62667 2.38711ZM16.1089 24.2577C14.6355 24.1029 13.3228 22.7918 13.1725 21.3317C13.0192 19.6812 13.0192 18.0188 13.171 16.3787C13.3258 14.9068 14.6369 13.5956 16.0955 13.4438C17.7475 13.289 19.4099 13.289 21.05 13.4423C22.5204 13.5941 23.8331 14.9053 23.9864 16.3653C24.1397 18.0188 24.1397 19.6812 23.9879 21.3213C23.8331 22.7947 22.5204 24.1059 21.0619 24.2562C20.23 24.3336 19.4054 24.3708 18.5794 24.3708C17.7534 24.3708 16.9289 24.3336 16.1089 24.2577ZM5.62369 11.1978C4.79769 11.1978 3.97168 11.1606 3.15163 11.0832C1.67971 10.9314 0.368526 9.61873 0.21672 8.15871C0.0634256 6.50819 0.0634257 4.84428 0.215232 3.20418C0.367038 1.73375 1.67822 0.422562 3.13824 0.269268C4.79025 0.115973 6.45416 0.115973 8.09426 0.269268C9.56618 0.422562 10.8774 1.73375 11.0307 3.19228C11.1825 4.84428 11.1825 6.50819 11.0321 8.14681C10.8774 9.62022 9.56469 10.9314 8.10616 11.0832H8.09426C7.27421 11.1606 6.44969 11.1978 5.62369 11.1978ZM18.5794 11.1978C17.7534 11.1978 16.9289 11.1606 16.1089 11.0832C14.6355 10.9314 13.3243 9.61873 13.1725 8.15871C13.0192 6.50819 13.0192 4.84428 13.171 3.20418C13.3258 1.73375 14.6369 0.422562 16.0955 0.269268C17.7475 0.115973 19.4099 0.115973 21.05 0.269268C22.5219 0.422562 23.8331 1.73375 23.9864 3.19228C24.1397 4.84428 24.1397 6.50819 23.9879 8.14829C23.8331 9.62022 22.5204 10.9314 21.0619 11.0832H21.05C20.23 11.1606 19.4054 11.1978 18.5794 11.1978ZM5.62369 24.3708C4.79769 24.3708 3.97317 24.3336 3.15163 24.2577C1.67822 24.1044 0.367037 22.7918 0.21672 21.3317C0.0634256 19.6812 0.0634257 18.0188 0.215232 16.3787C0.367038 14.9083 1.67822 13.5956 3.13824 13.4438C4.79025 13.289 6.45416 13.289 8.09426 13.4423C9.56618 13.5956 10.8774 14.9053 11.0307 16.3653C11.1825 18.0188 11.1825 19.6812 11.0321 21.3213C10.8774 22.7947 9.56469 24.1059 8.10616 24.2562C8.1017 24.2562 8.09872 24.2577 8.09426 24.2577C7.27421 24.3336 6.44969 24.3708 5.62369 24.3708ZM18.5824 2.38711C17.8264 2.38711 17.0673 2.42134 16.3157 2.49129C15.9169 2.53296 15.4362 3.01219 15.393 3.42445C15.2561 4.91423 15.2561 6.43824 15.3945 7.94142C15.4347 8.33284 15.9243 8.821 16.3262 8.86268C17.8145 8.9996 19.337 8.9996 20.8372 8.86268C21.2465 8.81654 21.7227 8.3388 21.7659 7.92803C21.9028 6.43824 21.9028 4.91423 21.7644 3.41105C21.7227 3.01219 21.242 2.53296 20.8312 2.4898C20.0886 2.42134 19.337 2.38711 18.5824 2.38711ZM18.5824 15.5601C17.8264 15.5601 17.0673 15.5944 16.3157 15.6643C15.9169 15.7075 15.4362 16.1867 15.393 16.5975C15.2561 18.0873 15.2561 19.6128 15.3945 21.1145C15.4347 21.5059 15.9243 21.994 16.3276 22.0357C17.8159 22.1741 19.337 22.1741 20.8372 22.0357C21.2465 21.9896 21.7227 21.5118 21.7659 21.1026C21.9028 19.6128 21.9028 18.0873 21.7644 16.5841C21.7227 16.1867 21.242 15.706 20.8327 15.6643C20.0886 15.5944 19.337 15.5601 18.5824 15.5601ZM5.62667 15.5601C4.86913 15.5601 4.1101 15.5944 3.35851 15.6643C2.96709 15.706 2.47893 16.1942 2.43725 16.596C2.30033 18.0873 2.30033 19.6128 2.43874 21.1145C2.47893 21.5059 2.96709 21.994 3.37041 22.0357C4.85722 22.1741 6.38272 22.1741 7.88143 22.0357C8.29071 21.9896 8.76697 21.5118 8.81013 21.1026C8.94556 19.6128 8.94556 18.0873 8.80864 16.5841C8.76697 16.1942 8.27881 15.706 7.87697 15.6643C7.13282 15.5944 6.37974 15.5601 5.62667 15.5601Z" fill="white"/>
</svg>
