<svg width="25" height="25" viewBox="0 0 25 25" fill="none" xmlns="http://www.w3.org/2000/svg">
<path d="M7.06934 11.6406V7.64062C7.06934 6.31454 7.59612 5.04277 8.5338 4.10509C9.47148 3.16741 10.7433 2.64063 12.0693 2.64062C13.3954 2.64062 14.6672 3.16741 15.6049 4.10509C16.5426 5.04277 17.0693 6.31454 17.0693 7.64062V11.6406M5.06934 11.6406H19.0693C20.1739 11.6406 21.0693 12.5361 21.0693 13.6406V20.6406C21.0693 21.7452 20.1739 22.6406 19.0693 22.6406H5.06934C3.96477 22.6406 3.06934 21.7452 3.06934 20.6406V13.6406C3.06934 12.5361 3.96477 11.6406 5.06934 11.6406Z" stroke="#090A0A" stroke-width="1.5" stroke-linecap="round" stroke-linejoin="round"/>
</svg>
