<svg width="25" height="25" viewBox="0 0 25 25" fill="none" xmlns="http://www.w3.org/2000/svg">
<path d="M12.377 10.8965C14.31 10.8965 15.877 9.32948 15.877 7.39648C15.877 5.46349 14.31 3.89648 12.377 3.89648C10.444 3.89648 8.87695 5.46349 8.87695 7.39648C8.87695 9.32948 10.444 10.8965 12.377 10.8965Z" fill="#ADAFBB" stroke="#ADAFBB" stroke-width="2" stroke-linecap="round" stroke-linejoin="round"/>
<path d="M3.37695 21.2965V21.8965H21.377V21.2965C21.377 19.0563 21.377 17.9362 20.941 17.0805C20.5575 16.3279 19.9456 15.7159 19.1929 15.3324C18.3373 14.8965 17.2172 14.8965 14.977 14.8965H9.77695C7.53675 14.8965 6.41665 14.8965 5.561 15.3324C4.80834 15.7159 4.19642 16.3279 3.81293 17.0805C3.37695 17.9362 3.37695 19.0563 3.37695 21.2965Z" fill="#ADAFBB" stroke="#ADAFBB" stroke-width="2" stroke-linecap="round" stroke-linejoin="round"/>
</svg>
