<svg width="26" height="22" viewBox="0 0 26 22" fill="none" xmlns="http://www.w3.org/2000/svg">
<path fill-rule="evenodd" clip-rule="evenodd" d="M12.5008 1.18929C12.4866 1.17834 12.4716 1.16841 12.4558 1.15929C11.4954 0.606124 10.2297 0.242684 8.61784 0.47214C6.6545 0.751662 5.11926 2.03556 4.32042 3.59654C4.2515 3.58418 4.17853 3.58884 4.10779 3.61337C1.36912 4.56626 0.762239 6.50102 0.781698 7.60715C0.79386 8.30038 0.945276 9.22753 1.5406 10.104C2.08647 10.9075 3.00855 11.6782 4.56974 12.1644C4.50346 13.9573 4.67393 21.9753 13.0261 21.9771H13.0559C13.4577 21.9759 13.8594 21.9568 14.259 21.9149C14.9506 21.8423 15.6363 21.7016 16.2937 21.473C16.5833 21.3722 16.8669 21.2547 17.142 21.1193C17.4178 20.9833 17.685 20.8296 17.9404 20.6585C18.2623 20.4431 18.5655 20.1996 18.8458 19.9323C19.0352 19.7517 19.2139 19.5601 19.3818 19.3592C19.5022 19.2151 19.6169 19.0663 19.7258 18.9133C19.8072 18.799 19.8853 18.6824 19.9605 18.5639C20.5019 17.7077 20.8743 16.7521 21.1175 15.7711C21.1588 15.604 21.1965 15.436 21.2306 15.2674C21.2762 15.0426 21.3155 14.8164 21.349 14.5895C21.3946 14.2786 21.4294 13.966 21.4536 13.6527C21.4714 13.4214 21.4836 13.1899 21.4899 12.958C21.4967 12.6965 21.4963 12.4348 21.4872 12.1736L21.487 12.1642C23.0478 11.678 23.9745 10.9079 24.5228 10.1048C25.123 9.2257 25.274 8.29531 25.274 7.59965C25.274 6.36582 24.4493 4.84598 21.7708 3.68026C21.7226 3.55357 21.6696 3.42891 21.6119 3.30669C20.8809 1.75908 19.4004 0.588084 17.1949 0.259914C15.0842 -0.0540672 13.5483 0.480653 12.5008 1.18929ZM5.40486 12.4034C5.39574 12.8129 5.4081 13.2229 5.43972 13.6312C5.46121 13.9107 5.49222 14.1896 5.53276 14.4671C5.56236 14.6698 5.59722 14.8721 5.63756 15.073C5.66837 15.2266 5.70263 15.3797 5.73992 15.5317C5.9562 16.4086 6.2862 17.2629 6.76619 18.0303C6.83369 18.1382 6.90382 18.244 6.9772 18.348C7.0751 18.487 7.17828 18.6222 7.28672 18.7532C7.43449 18.9315 7.59178 19.102 7.7582 19.263C8.00184 19.4985 8.26515 19.7138 8.54447 19.9057C8.98514 20.2081 9.46513 20.4512 9.9664 20.6358C10.5023 20.8331 11.0612 20.9638 11.6265 21.041C11.9533 21.0858 12.2822 21.1126 12.612 21.125L12.6185 21.1252C12.6587 20.4631 12.8194 19.13 13.4469 17.6351C12.1333 15.7597 9.73918 13.6788 5.40486 12.4028V12.4034ZM20.6519 12.4069C14.3838 14.3578 13.5688 19.6027 13.465 21.1241C20.3412 20.859 20.6949 14.3086 20.6519 12.4069ZM18.004 8.77145C17.8186 9.09152 17.5877 9.39901 17.3203 9.69516C16.4899 10.6146 15.2988 11.4244 14.0942 12.1648C14.0698 12.1896 14.0421 12.2117 14.0111 12.2303C13.9813 12.2484 13.9505 12.2621 13.9188 12.2721C13.703 12.4034 13.4871 12.5327 13.2732 12.6602C12.3341 13.2199 11.6685 13.9652 11.3705 14.3372C12.432 15.1265 13.241 15.9608 13.8584 16.7677C14.6623 15.257 15.9801 13.6845 18.1404 12.5338C18.3399 11.5756 18.1857 10.0037 18.004 8.77145ZM7.66942 7.82505C7.50645 8.99483 7.40753 10.7074 7.85306 12.2589L7.87921 12.2988C7.9007 12.3315 7.91691 12.3661 7.92826 12.4016C8.97804 12.8433 9.88816 13.3344 10.6773 13.8527C11.0038 13.44 11.7617 12.5779 12.8409 11.9348C12.955 11.8667 13.0699 11.798 13.1851 11.729C12.0206 10.2167 9.69195 9.2782 9.69195 9.2782C9.66073 9.26543 9.63195 9.24942 9.6056 9.23057C8.77311 8.9101 8.10339 8.40944 7.66942 7.82505ZM22.0578 4.75011C22.2581 5.96549 22.0807 7.30858 21.5024 8.62511C21.2391 9.22449 20.7389 9.90941 20.2716 10.5974C19.9682 11.0443 19.6757 11.4905 19.4989 11.9139C19.9461 11.7408 20.422 11.5841 20.9286 11.4469C20.933 11.4457 20.9373 11.4444 20.9418 11.4432C23.9107 10.6377 24.4296 8.7447 24.4296 7.59965C24.4296 6.68122 23.7968 5.64887 22.0578 4.75011ZM3.92212 4.59301C2.08769 5.4026 1.61155 6.7621 1.62614 7.59235C1.63607 8.15748 1.75405 8.91497 2.23931 9.62948C2.73531 10.3596 3.61057 11.034 5.10649 11.4412C5.11662 11.4436 5.12655 11.4463 5.13628 11.4493C5.65175 11.5892 6.14228 11.7398 6.60889 11.8997C5.36493 9.99697 4.52981 8.70558 4.15461 7.96309C3.63672 6.93784 3.58705 5.73563 3.92212 4.59301ZM15.6671 9.128C15.4644 9.23705 15.2139 9.32908 14.9149 9.3984C14.2302 9.55752 13.2578 9.62178 12.0495 9.61266C12.7158 10.0598 13.4115 10.6272 13.9085 11.288C14.4898 10.9261 15.0615 10.5473 15.5785 10.1447C15.5704 10.0975 15.5702 10.0481 15.5791 9.99839C15.6193 9.77421 15.6475 9.45962 15.6671 9.128ZM19.0567 10.932C19.1337 10.7991 19.2162 10.6651 19.3021 10.5311C19.8022 9.75313 20.4312 8.96402 20.7291 8.28538C21.441 6.66501 21.4773 4.99902 20.8481 3.66729C20.2256 2.34934 18.949 1.37476 17.0706 1.09544C14.6532 0.735852 13.1003 1.64131 12.2535 2.48575C13.6653 2.37549 15.0363 2.67264 16.1268 3.27283C17.5163 4.03742 18.4542 5.28685 18.5144 6.80669C18.5694 7.0773 18.9802 9.14402 19.0567 10.932ZM11.7885 1.75887C10.9971 1.36199 9.98789 1.1303 8.73683 1.30848C6.83835 1.57867 5.41337 2.95439 4.83467 4.52268C4.45724 5.54489 4.4388 6.65264 4.90845 7.58222C5.2127 8.18424 5.82607 9.15233 6.71815 10.5226C6.59004 8.47896 7.02058 6.61068 7.10997 6.24988C7.10145 5.42246 7.51982 4.56241 8.53697 3.83593C9.31128 3.28297 10.1478 2.9096 10.9953 2.69352C11.1747 2.41988 11.4368 2.08927 11.7885 1.75887ZM16.4976 9.33658C16.5651 9.26807 16.6305 9.19895 16.6936 9.12902C17.2814 8.47815 17.6728 7.76769 17.6728 6.96318C17.6728 5.68293 16.8758 4.64896 15.7198 4.01289C14.545 3.36628 13.0016 3.12426 11.4743 3.44716C11.3926 3.49965 11.2947 3.52276 11.1978 3.51202C10.4496 3.70438 9.7112 4.03498 9.02791 4.52329C8.12164 5.1705 7.82124 5.93833 8.01198 6.65102C8.16846 7.23601 8.61845 7.76262 9.26365 8.14349C9.15358 7.68904 9.24297 7.19871 9.48114 6.76109C9.81215 6.15299 10.3848 5.76259 10.9896 5.52462C11.8288 5.19462 12.7187 5.16098 12.9568 5.16098C15.193 5.16098 16.7254 6.33562 16.556 7.73404C16.5511 8.09221 16.5373 8.75179 16.4976 9.33658ZM14.5002 8.62207C14.489 8.58396 14.4829 8.54362 14.4829 8.50187C14.4829 8.24119 14.2819 8.06262 14.0238 7.94383C13.4978 7.70201 12.7182 7.71215 12.1057 8.04904C11.982 8.11714 11.888 8.18424 11.8231 8.25396C11.7881 8.29167 11.7581 8.32085 11.7609 8.35633C11.7643 8.39707 11.798 8.42829 11.8318 8.46133C11.8801 8.50835 11.9405 8.5495 12.0072 8.58517C12.1704 8.67234 12.3704 8.72544 12.5595 8.72544C12.6238 8.72544 12.6846 8.73983 12.7391 8.76558C13.4362 8.75281 14.0281 8.70842 14.5002 8.62207ZM15.3209 8.36687C15.3852 8.32633 15.4364 8.28011 15.4733 8.22599C15.8473 7.67526 15.7587 7.14925 15.3548 6.76169C14.8624 6.28961 13.9912 6.00562 12.9568 6.00562C12.7562 6.00562 12.006 6.03258 11.2987 6.31069C10.8727 6.47832 10.4559 6.73656 10.2228 7.16506C10.0686 7.44844 10.0033 7.76972 10.1198 8.05471C10.2348 8.33585 10.5171 8.55984 10.989 8.70416C10.9752 8.67254 10.9637 8.64051 10.954 8.60828C10.8384 8.22417 10.9465 7.72289 11.6987 7.30898C12.5537 6.83872 13.6426 6.83892 14.3767 7.17662C14.9139 7.42351 15.2688 7.84167 15.3209 8.36687Z" fill="#ADAFBB"/>
</svg>
