<svg width="25" height="25" viewBox="0 0 25 25" fill="none" xmlns="http://www.w3.org/2000/svg">
<path d="M16.0447 7.58965H7.33545V6.60921H16.0447V7.58965ZM16.4464 9.06031H7.73694V10.0407H16.4464V9.06031ZM16.8484 11.5114H8.13843V12.4918H16.8484V11.5114ZM8.53919 14.9429H17.2494V13.9625H8.53919V14.9429ZM20.8951 18.2874C21.0741 19.3809 20.8385 20.4317 20.2655 21.1062C20.0926 21.3211 19.8745 21.4952 19.6267 21.6161C19.3789 21.7371 19.1075 21.8019 18.8318 21.806H5.0807C3.69068 21.806 2.35998 20.3336 2.05262 18.4539L1.95898 17.8842H6.07437L3.78162 5.22557C3.59926 4.11204 3.825 3.05905 4.38409 2.40069C4.56151 2.18465 4.78445 2.01046 5.03697 1.89055C5.2895 1.77064 5.5654 1.70797 5.84495 1.70703H19.5956C20.9856 1.70703 22.3163 3.1794 22.6236 5.05914L22.7178 5.62878H18.6024L20.8951 18.2874ZM19.5961 2.68747C19.4586 2.6878 19.323 2.71929 19.1995 2.77957C19.0759 2.83986 18.9676 2.92737 18.8828 3.03552C18.5447 3.50132 18.392 4.07619 18.4543 4.64834H21.5182C21.1648 3.53996 20.3615 2.68747 19.5961 2.68747ZM16.9386 20.8255C16.437 20.2655 16.0776 19.5929 15.8907 18.8647H3.15732C3.512 19.9728 4.31522 20.8255 5.0807 20.8255H16.9386ZM19.9289 18.4539L17.533 5.22557C17.3612 4.35934 17.5014 3.46026 17.9288 2.68747H5.84495C5.70756 2.68787 5.57206 2.7194 5.44861 2.77968C5.32516 2.83996 5.21697 2.92743 5.13217 3.03552C4.75691 3.47672 4.61352 4.23386 4.74857 5.0589L7.07074 17.8842H16.7035L16.7707 18.2953C17.0084 19.7434 18.0548 20.8255 18.8318 20.8255C18.9651 20.8202 19.0957 20.7856 19.2142 20.7244C19.3328 20.6632 19.4365 20.5767 19.5181 20.4711C19.9015 20.0199 20.0591 19.247 19.9289 18.4539Z" fill="#ADAFBB"/>
</svg>
