<svg width="203" height="199" viewBox="0 0 203 199" fill="none" xmlns="http://www.w3.org/2000/svg">
<path fill-rule="evenodd" clip-rule="evenodd" d="M146.927 81.4499C146.727 81.4198 146.574 81.4962 146.469 81.6792C147.218 81.9056 147.983 81.982 148.762 81.9086C149.908 82.195 150.711 82.8831 151.171 83.9728C151.708 86.0838 151.861 88.2243 151.629 90.3947C150.983 95.1596 149.913 99.8233 148.418 104.385C148.072 107.006 147.613 109.605 147.042 112.183C145.877 114.886 143.927 115.651 141.194 114.477C141.01 117.021 140.666 119.544 140.161 122.046C138.456 126.171 136.622 130.223 134.657 134.202C132.389 142.488 131.777 150.898 132.822 159.431C133.334 162.059 134.404 164.429 136.033 166.541C139.036 169.547 142.515 171.802 146.469 173.307C156.96 176.672 167.281 180.418 177.432 184.545C183.906 188.012 190.481 191.376 197.156 194.637C199.161 195.79 201.072 197.051 202.89 198.421C135.536 198.421 68.1822 198.421 0.828125 198.421C4.77927 195.219 8.98411 192.352 13.4427 189.82C22.1079 185.868 30.5941 181.664 38.9011 177.206C44.3538 175.092 49.7053 172.722 54.956 170.096C57.5204 168.6 59.2406 166.421 60.1165 163.559C60.5775 160.935 61.1126 158.336 61.722 155.761C62.9242 150.441 62.7713 145.166 61.2632 139.935C59.4619 134.622 57.2447 129.5 54.6119 124.569C53.0484 121.296 52.1693 117.856 51.9744 114.248C51.1604 114.234 50.3959 114.425 49.6808 114.821C48.9164 114.974 48.1517 114.974 47.3872 114.821C46.6143 114.08 46.0409 113.2 45.6671 112.183C44.3506 107.255 42.8981 102.362 41.3093 97.5047C40.0382 92.7644 39.5795 87.948 39.9332 83.0554C40.4394 79.4607 42.2362 78.6199 45.3231 80.5324C45.582 78.8104 45.3909 77.1286 44.7497 75.4866C43.5513 72.9373 42.4809 70.3381 41.5387 67.6886C40.6479 58.7593 40.4949 49.8144 41.08 40.854C41.3887 37.7724 41.8474 34.7144 42.4561 31.6798C43.6414 26.7872 45.7439 22.353 48.7634 18.3772C51.7526 14.971 55.1929 12.1041 59.0844 9.77634C66.6884 5.81468 74.6392 2.75655 82.9373 0.602125C92.9232 -0.331282 102.862 0.0509847 112.754 1.7489C116.805 2.47236 120.551 3.92493 123.992 6.10665C125.038 6.86215 125.841 7.81764 126.4 8.97359C126.623 10.2401 126.814 11.5015 126.974 12.758C130.949 12.758 134.925 12.758 138.9 12.758C141.175 13.4557 142.972 14.7935 144.29 16.7717C145.95 19.7095 147.556 22.6911 149.106 25.7165C149.84 27.6872 150.528 29.6747 151.171 31.6798C152.369 38.4396 153.21 45.2436 153.693 52.0924C154.291 58.0875 154.062 64.0507 153.005 69.9821C152.169 74.5027 150.143 78.3254 146.927 81.4499Z" fill="white"/>
</svg>
