<svg width="27" height="26" viewBox="0 0 27 26" fill="none" xmlns="http://www.w3.org/2000/svg">
<path d="M13.472 24.8684C19.892 24.8684 25.0964 19.664 25.0964 13.244C25.0964 6.82403 19.892 1.61963 13.472 1.61963C7.05206 1.61963 1.84766 6.82403 1.84766 13.244C1.84766 19.664 7.05206 24.8684 13.472 24.8684Z" fill="#FE2C55"/>
<path fill-rule="evenodd" clip-rule="evenodd" d="M14.2195 7.56513L19.0857 12.4313C19.292 12.6377 19.292 12.9722 19.0857 13.1785L18.3384 13.9258C18.1321 14.1321 17.7976 14.1321 17.5912 13.9258L14.529 10.8637V18.2636C14.529 18.5554 14.2925 18.7919 14.0006 18.7919H12.9438C12.6521 18.7919 12.4155 18.5554 12.4155 18.2636V10.8637L9.35336 13.9258C9.14701 14.1321 8.81245 14.1321 8.60611 13.9258L7.85886 13.1785C7.65251 12.9722 7.65251 12.6377 7.85886 12.4313L12.725 7.56513C13.1377 7.15244 13.8068 7.15244 14.2195 7.56513Z" fill="white"/>
</svg>
