<svg width="25" height="25" viewBox="0 0 25 25" fill="none" xmlns="http://www.w3.org/2000/svg">
<g clip-path="url(#clip0_578_99696)">
<path d="M12.1328 15.3633C13.7897 15.3633 15.1328 14.0201 15.1328 12.3633C15.1328 10.7064 13.7897 9.36328 12.1328 9.36328C10.476 9.36328 9.13281 10.7064 9.13281 12.3633C9.13281 14.0201 10.476 15.3633 12.1328 15.3633Z" stroke="black" stroke-width="1.25" stroke-linecap="round" stroke-linejoin="round"/>
<path d="M19.5328 15.3633C19.3997 15.6649 19.36 15.9995 19.4188 16.3239C19.4776 16.6483 19.6323 16.9476 19.8628 17.1833L19.9228 17.2433C20.1088 17.429 20.2563 17.6496 20.3569 17.8924C20.4576 18.1352 20.5094 18.3955 20.5094 18.6583C20.5094 18.9211 20.4576 19.1814 20.3569 19.4242C20.2563 19.667 20.1088 19.8875 19.9228 20.0733C19.7371 20.2592 19.5165 20.4068 19.2737 20.5074C19.0309 20.608 18.7706 20.6599 18.5078 20.6599C18.245 20.6599 17.9847 20.608 17.7419 20.5074C17.4991 20.4068 17.2786 20.2592 17.0928 20.0733L17.0328 20.0133C16.7971 19.7827 16.4978 19.6281 16.1734 19.5693C15.849 19.5105 15.5144 19.5502 15.2128 19.6833C14.917 19.81 14.6648 20.0205 14.4871 20.2888C14.3094 20.5571 14.2141 20.8715 14.2128 21.1933V21.3633C14.2128 21.8937 14.0021 22.4024 13.627 22.7775C13.252 23.1526 12.7432 23.3633 12.2128 23.3633C11.6824 23.3633 11.1737 23.1526 10.7986 22.7775C10.4235 22.4024 10.2128 21.8937 10.2128 21.3633V21.2733C10.2051 20.9423 10.0979 20.6213 9.90532 20.352C9.71272 20.0827 9.44355 19.8776 9.13281 19.7633C8.8312 19.6302 8.49662 19.5905 8.17222 19.6493C7.84783 19.7081 7.54849 19.8627 7.31281 20.0933L7.25281 20.1533C7.06707 20.3392 6.84649 20.4868 6.60369 20.5874C6.3609 20.688 6.10064 20.7399 5.83781 20.7399C5.57498 20.7399 5.31473 20.688 5.07193 20.5874C4.82914 20.4868 4.60856 20.3392 4.42281 20.1533C4.23686 19.9675 4.08934 19.747 3.98869 19.5042C3.88804 19.2614 3.83624 19.0011 3.83624 18.7383C3.83624 18.4755 3.88804 18.2152 3.98869 17.9724C4.08934 17.7296 4.23686 17.509 4.42281 17.3233L4.48281 17.2633C4.71335 17.0276 4.868 16.7283 4.92682 16.4039C4.98564 16.0795 4.94593 15.7449 4.81281 15.4433C4.68605 15.1475 4.47557 14.8953 4.20728 14.7176C3.93899 14.5399 3.6246 14.4446 3.30281 14.4433H3.13281C2.60238 14.4433 2.09367 14.2326 1.7186 13.8575C1.34353 13.4824 1.13281 12.9737 1.13281 12.4433C1.13281 11.9128 1.34353 11.4041 1.7186 11.0291C2.09367 10.654 2.60238 10.4433 3.13281 10.4433H3.22281C3.55381 10.4355 3.87482 10.3284 4.14411 10.1358C4.41341 9.94318 4.61853 9.67402 4.73281 9.36328C4.86593 9.06167 4.90564 8.72709 4.84682 8.40269C4.788 8.0783 4.63335 7.77896 4.40281 7.54328L4.34281 7.48328C4.15686 7.29753 4.00934 7.07696 3.90869 6.83416C3.80804 6.59137 3.75624 6.33111 3.75624 6.06828C3.75624 5.80545 3.80804 5.5452 3.90869 5.3024C4.00934 5.0596 4.15686 4.83903 4.34281 4.65328C4.52856 4.46733 4.74914 4.31981 4.99193 4.21916C5.23473 4.11851 5.49498 4.06671 5.75781 4.06671C6.02064 4.06671 6.2809 4.11851 6.52369 4.21916C6.76649 4.31981 6.98707 4.46733 7.17281 4.65328L7.23281 4.71328C7.46849 4.94382 7.76783 5.09847 8.09222 5.15729C8.41662 5.2161 8.7512 5.1764 9.05281 5.04328H9.13281C9.42858 4.91652 9.68083 4.70604 9.85851 4.43775C10.0362 4.16946 10.1315 3.85507 10.1328 3.53328V3.36328C10.1328 2.83285 10.3435 2.32414 10.7186 1.94907C11.0937 1.57399 11.6024 1.36328 12.1328 1.36328C12.6632 1.36328 13.172 1.57399 13.547 1.94907C13.9221 2.32414 14.1328 2.83285 14.1328 3.36328V3.45328C14.1341 3.77507 14.2294 4.08946 14.4071 4.35775C14.5848 4.62604 14.837 4.83652 15.1328 4.96328C15.4344 5.0964 15.769 5.1361 16.0934 5.07729C16.4178 5.01847 16.7171 4.86382 16.9528 4.63328L17.0128 4.57328C17.1986 4.38733 17.4191 4.23981 17.6619 4.13916C17.9047 4.03851 18.165 3.98671 18.4278 3.98671C18.6906 3.98671 18.9509 4.03851 19.1937 4.13916C19.4365 4.23981 19.6571 4.38733 19.8428 4.57328C20.0288 4.75903 20.1763 4.9796 20.2769 5.2224C20.3776 5.4652 20.4294 5.72545 20.4294 5.98828C20.4294 6.25111 20.3776 6.51137 20.2769 6.75416C20.1763 6.99696 20.0288 7.21754 19.8428 7.40328L19.7828 7.46328C19.5523 7.69896 19.3976 7.9983 19.3388 8.32269C19.28 8.64709 19.3197 8.98167 19.4528 9.28328V9.36328C19.5796 9.65905 19.7901 9.9113 20.0583 10.089C20.3266 10.2666 20.641 10.362 20.9628 10.3633H21.1328C21.6632 10.3633 22.172 10.574 22.547 10.9491C22.9221 11.3241 23.1328 11.8328 23.1328 12.3633C23.1328 12.8937 22.9221 13.4024 22.547 13.7775C22.172 14.1526 21.6632 14.3633 21.1328 14.3633H21.0428C20.721 14.3646 20.4066 14.4599 20.1383 14.6376C19.8701 14.8153 19.6596 15.0675 19.5328 15.3633Z" stroke="black" stroke-width="1.25" stroke-linecap="round" stroke-linejoin="round"/>
</g>
<defs>
<clipPath id="clip0_578_99696">
<rect width="24" height="24" fill="white" transform="translate(0.132812 0.363281)"/>
</clipPath>
</defs>
</svg>
