<svg width="31" height="31" viewBox="0 0 31 31" fill="none" xmlns="http://www.w3.org/2000/svg">
<g clip-path="url(#clip0_2515_45)">
<g opacity="0.9" filter="url(#filter0_d_2515_45)">
<path opacity="0.9" fill-rule="evenodd" clip-rule="evenodd" d="M16.8825 5.12612C16.8825 4.1603 18.0392 3.66454 18.7386 4.33061L29.3821 14.4668C30.3187 15.3587 30.286 16.8628 29.3114 17.7132L18.7033 26.9696C17.9927 27.5897 16.8825 27.0849 16.8825 26.1419V21.9473C16.8825 21.9473 5.49236 19.8955 1.83874 26.6018C1.49811 27.2271 0.170343 27.4459 0.440235 24.3262C1.56885 18.5844 3.87545 9.62055 16.8825 9.62055V5.12612Z" fill="white"/>
</g>
<path opacity="0.03" fill-rule="evenodd" clip-rule="evenodd" d="M24.7374 10.0781L26.8492 14.3016C27.2227 15.0487 27.0433 15.9539 26.4129 16.502L16.956 24.7254C16.956 24.7254 16.4983 27.0141 17.8715 27.0141C19.2447 27.0141 30.2302 16.944 30.2302 16.944C30.2302 16.944 30.6879 15.5709 29.3147 14.1977C27.9415 12.8245 24.7374 10.0781 24.7374 10.0781Z" fill="#161823"/>
<path opacity="0.09" fill-rule="evenodd" clip-rule="evenodd" d="M16.8825 10.1078V22.0088C16.8825 22.0088 5.98224 20.4728 2.56832 25.6706C-0.716593 30.672 -0.414904 20.0222 4.5303 14.7187C9.47547 9.41521 16.8825 10.1078 16.8825 10.1078Z" fill="url(#paint0_radial_2515_45)"/>
</g>
<defs>
<filter id="filter0_d_2515_45" x="-1.42662" y="3.10993" width="33.322" height="26.8786" filterUnits="userSpaceOnUse" color-interpolation-filters="sRGB">
<feFlood flood-opacity="0" result="BackgroundImageFix"/>
<feColorMatrix in="SourceAlpha" type="matrix" values="0 0 0 0 0 0 0 0 0 0 0 0 0 0 0 0 0 0 127 0" result="hardAlpha"/>
<feOffset dy="0.915456"/>
<feGaussianBlur stdDeviation="0.915456"/>
<feColorMatrix type="matrix" values="0 0 0 0 0 0 0 0 0 0 0 0 0 0 0 0 0 0 0.15 0"/>
<feBlend mode="normal" in2="BackgroundImageFix" result="effect1_dropShadow_2515_45"/>
<feBlend mode="normal" in="SourceGraphic" in2="effect1_dropShadow_2515_45" result="shape"/>
</filter>
<radialGradient id="paint0_radial_2515_45" cx="0" cy="0" r="1" gradientUnits="userSpaceOnUse" gradientTransform="translate(17.2825 29.7194) rotate(-113.046) scale(14.5676 14.32)">
<stop/>
<stop offset="0.995496" stop-opacity="0.01"/>
<stop offset="1" stop-opacity="0.01"/>
</radialGradient>
<clipPath id="clip0_2515_45">
<rect width="29.8989" height="29.8989" fill="white" transform="translate(0.404297 0.287109)"/>
</clipPath>
</defs>
</svg>
