<svg width="148" height="221" viewBox="0 0 148 221" fill="none" xmlns="http://www.w3.org/2000/svg">
<path d="M95.6978 0.934624C96.5583 0.832659 96.8265 1.13904 96.5024 1.85328C98.4552 2.43485 100.448 2.85588 102.479 3.11627C104.444 4.44249 106.513 5.59073 108.686 6.56109C114.266 11.3022 120.472 15.0531 127.306 17.8139C135.885 24.5432 142.551 32.8107 147.306 42.6164C145.811 46.0241 144.164 49.3541 142.364 52.6062C141.103 53.9802 139.609 54.9753 137.881 55.5917C138.612 59.6935 138.881 63.8272 138.686 67.9929C138.159 69.6367 137.853 71.3207 137.766 73.0452C136.762 74.4081 136.187 75.9393 136.042 77.6382V82.6905C136.518 84.4068 137.246 86.0143 138.226 87.5133C140.818 91.4042 143.5 95.2318 146.272 98.9958C147.955 101.776 147.533 104.187 145.007 106.23C143.136 107.142 141.565 108.405 140.295 110.019C140.203 112.785 140.279 115.541 140.525 118.287C139.729 119.682 138.656 120.831 137.306 121.731C137.645 123.456 137.721 125.217 137.536 127.013C137.345 128.123 136.693 128.774 135.582 128.965C135.228 129.328 134.96 129.749 134.778 130.228C134.624 131.224 134.624 132.219 134.778 133.214C136.192 136.976 135.464 140.268 132.594 143.089C131.448 144.194 130.145 145.074 128.686 145.73C122.397 146.968 116.113 148.232 109.835 149.519C108.527 149.719 107.224 149.949 105.928 150.208C105.621 150.361 105.314 150.514 105.008 150.667C104.124 150.758 103.281 150.988 102.479 151.356C101.743 151.628 101.053 152.01 100.41 152.505L99.9506 153.194C98.4332 153.848 97.5136 154.996 97.192 156.638C96.4532 158.49 95.9169 160.402 95.5829 162.38C95.4295 162.763 95.2764 163.145 95.1231 163.528C94.9829 163.732 94.9063 163.962 94.8932 164.217C94.8932 164.371 94.8166 164.447 94.6633 164.447C93.9422 166.456 93.176 168.445 92.3645 170.417C91.1154 173.01 90.0427 175.688 89.1462 178.455C87.5016 182.715 87.6166 186.925 89.491 191.086C91.0753 194.329 92.8378 197.468 94.7783 200.502C96.7901 203.497 98.8019 206.493 100.814 209.489C102.863 212.541 104.913 215.593 106.962 218.644C107.302 219.244 107.571 219.857 107.767 220.482C103.758 220.332 99.8497 219.604 96.0426 218.3C88.96 215.788 81.9105 213.186 74.8936 210.492C67.2742 207.883 59.4582 206.121 51.4457 205.21C44.0074 204.53 36.6512 204.874 29.3771 206.243C28.8983 206.698 28.2854 206.928 27.5381 206.932C27.1144 206.868 26.6928 206.792 26.2737 206.703C24.1671 206.918 22.0598 207.148 19.952 207.391C16.9279 207.251 13.9395 207.098 10.9866 206.932C8.75425 206.872 6.53223 206.682 4.32009 206.358C3.19758 206.112 2.12472 205.729 1.10175 205.21C0.780147 204.966 0.550266 204.661 0.412109 204.291C2.5815 198.848 4.84192 193.452 7.1936 188.101C9.18598 185.65 11.1781 183.202 13.1705 180.752C15.9505 178.129 18.5557 175.373 20.9865 172.484C29.4686 158.698 34.3729 143.694 35.6988 127.473C35.869 124.94 35.8308 122.414 35.5839 119.894C34.1798 120.029 32.9154 120.488 31.7909 121.272C31.1677 120.723 30.7079 120.034 30.4116 119.205C28.9447 115.553 28.0636 111.764 27.768 107.837C25.5606 100.405 22.6871 93.2472 19.1474 86.365C18.3493 84.3932 17.6212 82.4029 16.9635 80.3941L16.7337 80.3942C16.5445 79.7141 16.3911 79.0251 16.2739 78.3273C16.2339 77.785 16.1573 77.2492 16.044 76.7196C15.7884 76.2376 15.6351 75.7016 15.5843 75.1121C15.2574 73.7806 14.7976 72.4794 14.205 71.208L13.9751 71.2081C13.5813 70.9473 13.428 70.5646 13.5153 70.0598C13.4788 69.1892 13.3257 68.3471 13.0556 67.5336C12.8092 64.8028 12.9241 62.047 13.4004 59.2661C13.4537 58.982 13.5687 58.7524 13.7452 58.5772C13.8445 58.2993 13.9978 58.0697 14.205 57.8883C14.1928 56.5802 14.2693 55.2789 14.4349 53.9842C14.5452 52.6324 14.7751 51.3312 15.1245 50.0801C15.2877 49.2705 15.5176 48.5052 15.8141 47.7835C16.2093 45.9284 16.7072 44.0912 17.3084 42.2719C18.6053 39.534 19.6782 36.7017 20.5267 33.7748C22.2591 29.9306 24.1749 26.1795 26.2737 22.5218C30.1017 16.7075 35.1973 12.3825 41.5608 9.54655C45.0118 9.02936 48.46 8.49359 51.9055 7.93893C53.29 7.58045 54.5928 7.04468 55.8134 6.33141C58.4364 4.25763 61.4248 3.0327 64.7788 2.65699C65.8461 2.46633 66.919 2.31314 67.9971 2.19771C74.7368 1.86606 81.4799 1.67472 88.2267 1.62359L88.2296 1.6234C90.6948 1.49209 93.1844 1.2625 95.6978 0.934624Z" fill="white"/>
</svg>
