<svg width="206" height="150" viewBox="0 0 206 150" fill="none" xmlns="http://www.w3.org/2000/svg">
<path d="M175.082 1.9107H147.247C130.249 1.9107 116.65 15.5095 116.65 32.5079C116.65 46.1066 125.362 57.5806 137.685 61.6177V76.2788C137.685 77.5537 139.385 78.4036 140.235 77.3412L154.259 63.3175H175.082C192.08 63.3175 205.679 49.7188 205.679 32.7204C205.679 15.7219 191.868 1.9107 175.082 1.9107ZM179.119 45.8941H144.697C143.21 45.8941 141.935 44.6193 141.935 43.1319C141.935 41.6445 143.21 40.3697 144.697 40.3697H179.119C180.606 40.3697 181.881 41.6445 181.881 43.1319C181.881 44.6193 180.606 45.8941 179.119 45.8941ZM181.881 32.5079C181.881 33.9952 180.606 35.2701 179.119 35.2701H144.697C143.21 35.2701 141.935 33.9952 141.935 32.5079C141.935 31.0205 143.21 29.7456 144.697 29.7456H179.119C180.606 29.7456 181.881 31.0205 181.881 32.5079ZM181.881 21.8839C181.881 23.3712 180.606 24.6461 179.119 24.6461H144.697C143.21 24.6461 141.935 23.3712 141.935 21.8839C141.935 20.3965 143.21 19.1216 144.697 19.1216H179.119C180.606 19.1216 181.881 20.3965 181.881 21.8839ZM61.6174 149.585H-0.00195312V129.611C-0.00195312 125.362 1.91037 121.325 5.09758 118.775C23.1584 103.901 42.7066 93.9147 46.7437 92.0024C47.1687 91.7899 47.3812 91.365 47.3812 90.94V80.5285C44.6189 75.8539 43.1316 70.9668 42.4941 66.2923C41.0068 66.0798 38.882 63.955 36.5447 55.8807C33.57 45.6817 36.3322 43.5569 39.0944 43.5569C39.3069 43.5569 39.5194 43.5569 39.5194 43.5569C37.3946 37.8199 37.3946 32.2954 38.882 26.9834C40.3693 20.8215 43.5565 15.9344 47.3812 12.1098C49.7185 9.56 52.4807 7.43519 55.243 5.73535C57.5802 4.03551 60.13 2.76063 62.8923 1.9107C65.0171 1.27326 67.3543 0.635821 69.9041 0.635821C70.9665 0.635821 71.8164 0.42334 72.8788 0.42334C79.0408 0.42334 83.7153 2.12319 87.3275 4.24799C93.4894 7.64768 95.8267 12.1098 95.8267 12.1098C95.8267 12.1098 111.338 13.1722 104.538 45.4692C106.663 46.1066 108.151 49.0814 105.601 57.5806C103.264 65.8673 101.139 67.9921 99.4389 67.9921C99.0139 67.9921 98.589 67.7796 98.164 67.5672C97.5266 71.1793 96.4642 75.2165 94.5518 78.8286C94.5518 84.1406 94.5518 89.0277 94.5518 90.94C94.5518 91.365 94.7643 91.7899 95.1893 92.0024C99.2264 93.9147 118.775 103.901 136.835 118.775C140.023 121.537 141.935 125.362 141.935 129.611V149.585H80.3157H61.6174Z" fill="white"/>
</svg>
