<svg width="22" height="23" viewBox="0 0 22 23" fill="none" xmlns="http://www.w3.org/2000/svg">
<path fill-rule="evenodd" clip-rule="evenodd" d="M10.995 3.09126C6.49269 3.09126 2.84285 6.74111 2.84285 11.2434C2.84285 15.7458 6.49269 19.3956 10.995 19.3956C15.4973 19.3956 19.1472 15.7458 19.1472 11.2434C19.1472 6.74111 15.4973 3.09126 10.995 3.09126ZM1.03125 11.2434C1.03125 5.7406 5.49218 1.27966 10.995 1.27966C16.4978 1.27966 20.9588 5.7406 20.9588 11.2434C20.9588 16.7462 16.4978 21.2072 10.995 21.2072C5.49218 21.2072 1.03125 16.7462 1.03125 11.2434Z" fill="#151923"/>
<path fill-rule="evenodd" clip-rule="evenodd" d="M7.82452 10.7905C8.57491 10.7905 9.18321 9.97943 9.18321 8.97889C9.18321 7.97838 8.57491 7.1673 7.82452 7.1673C7.07413 7.1673 6.46582 7.97838 6.46582 8.97889C6.46582 9.97943 7.07413 10.7905 7.82452 10.7905Z" fill="#151923"/>
<path fill-rule="evenodd" clip-rule="evenodd" d="M14.1653 10.7905C14.9157 10.7905 15.524 9.97943 15.524 8.97889C15.524 7.97838 14.9157 7.1673 14.1653 7.1673C13.415 7.1673 12.8066 7.97838 12.8066 8.97889C12.8066 9.97943 13.415 10.7905 14.1653 10.7905Z" fill="#151923"/>
<path fill-rule="evenodd" clip-rule="evenodd" d="M7.37109 13.2104C7.37109 14.6254 8.99325 16.6782 10.9943 16.6782C12.9953 16.6782 14.6175 14.6254 14.6175 13.2104C14.6175 11.7955 7.37109 11.7955 7.37109 13.2104Z" fill="#151923"/>
</svg>
