<svg width="21" height="21" viewBox="0 0 21 21" fill="none" xmlns="http://www.w3.org/2000/svg">
<path fill-rule="evenodd" clip-rule="evenodd" d="M1.36914 10.1715C1.36914 5.10894 5.47319 1.00488 10.5358 1.00488C10.7568 1.00488 10.9688 1.09268 11.1251 1.24896L19.4584 9.58229C19.6147 9.73857 19.7025 9.95053 19.7025 10.1715C19.7025 15.2342 15.5984 19.3382 10.5358 19.3382C5.47319 19.3382 1.36914 15.2342 1.36914 10.1715ZM9.44139 2.75083C5.818 3.28058 3.03581 6.40115 3.03581 10.1715C3.03581 14.3137 6.39367 17.6715 10.5358 17.6715C14.3332 17.6715 17.4714 14.8494 17.9675 11.188C17.513 11.2459 16.944 11.2877 16.3128 11.2647C14.7572 11.2082 12.7354 10.7522 11.1751 9.07193C9.63284 7.41098 9.28303 5.51025 9.31202 4.06114C9.32187 3.56854 9.37523 3.12376 9.44139 2.75083ZM11.0171 3.49802L17.1118 9.59271C16.8812 9.60484 16.6332 9.60863 16.3734 9.59918C15.0644 9.55158 13.5446 9.17424 12.3965 7.93784C11.2304 6.68212 10.9552 5.24951 10.9783 4.09446C10.9826 3.88411 10.9967 3.68422 11.0171 3.49802Z" fill="black" fill-opacity="0.4"/>
</svg>
