<svg width="95" height="70" viewBox="0 0 95 70" fill="none" xmlns="http://www.w3.org/2000/svg">
<mask id="path-1-inside-1_578_89553" fill="white">
<path d="M26.7991 21.9108C34.7386 30.1992 50.8008 46.9596 51.5337 47.6924C49.9632 47.1252 46.6129 45.9385 45.7753 45.7291C44.9378 45.5197 43.7687 44.6821 43.2888 44.2895L37.2687 42.5882L34.2587 44.2895L32.0339 47.6924L32.95 51.3566L40.8023 54.6283L50.2249 60.1249L63.0503 67.4537H71.5569C74.3052 65.8396 79.9326 62.5853 80.4561 62.4806C80.9796 62.3759 84.7748 57.6384 86.607 55.2827L91.5801 48.87L92.8888 40.6252C91.2747 38.095 87.9681 32.93 87.654 32.5112C87.3399 32.0924 78.1004 22.4778 73.5199 17.7228L68.0234 13.5348L64.2281 15.1054L61.8724 17.7228L56.8993 16.1526L53.6276 18.6389L51.5337 21.9108H47.7384L45.7753 23.2194L44.4666 28.4542L32.95 16.1526H26.7991V21.9108Z"/>
<path d="M17.7266 0.474609L7.56668 0.54492C6.59405 0.55078 5.81477 1.34177 5.82063 2.3144C5.82649 3.28117 6.61163 4.06045 7.5784 4.06045H7.59012L14.7852 4.01357C6.93388 10.7106 2.0473 20.2729 1.01022 31.0363C-0.190916 43.5398 3.96326 56.5707 12.4064 66.7774C12.7521 67.1993 13.256 67.4161 13.7599 67.4161C14.1524 67.4161 14.5509 67.2813 14.879 67.0118C15.629 66.3907 15.7344 65.2833 15.1133 64.5392C7.262 55.0414 3.39492 42.9539 4.50817 31.3702C5.42807 21.8139 9.6467 13.3004 16.4317 7.23028L16.9824 13.1832C17.0703 14.0973 17.832 14.7769 18.7285 14.7769C18.7812 14.7769 18.8398 14.7769 18.8925 14.7711C19.8593 14.6832 20.5683 13.8219 20.4804 12.861L19.4785 2.07417C19.3964 1.166 18.6289 0.462891 17.7148 0.480469L17.7266 0.474609Z"/>
<path d="M90.1463 32.097L72.7679 14.742L72.3871 14.3377C69.2876 11.2382 65.4029 11.2616 62.2624 14.408C61.7585 14.9119 61.3893 15.492 61.1491 16.1189C60.8972 15.949 60.6394 15.7967 60.3698 15.6678C57.9734 14.5135 55.0848 15.0115 53.1864 16.9158C52.3486 17.7536 51.7802 18.7849 51.5107 19.8981C50.7959 19.6169 50.0225 19.4645 49.2256 19.4645C49.2022 19.4645 49.1846 19.4645 49.1612 19.4645C47.4972 19.4821 45.921 20.1442 44.7375 21.3278C44.0402 22.025 43.5305 22.857 43.2199 23.7593L34.5366 15.076C33.3706 13.91 31.8238 13.2713 30.1656 13.2713H30.107C28.4371 13.2889 26.8669 13.951 25.6775 15.1346C23.2166 17.5954 23.1931 21.568 25.6189 23.9937L44.8722 43.2471C41.2454 41.7413 38.6673 41.126 36.974 41.3487C34.3608 41.6827 32.2456 43.165 31.1675 45.415C30.2418 47.3485 30.2828 49.5516 31.273 51.1629C31.6773 51.8191 32.2105 52.5456 33.0952 52.9499C42.5227 57.2799 46.2726 59.6939 50.2451 62.2543C51.6513 63.1567 53.0986 64.0941 54.8446 65.1429C56.9188 66.3909 58.9812 67.6272 59.0574 67.6741C61.987 69.3323 64.7701 70.0002 67.3657 70.0002C75.2815 70.0002 81.4396 63.8012 84.4981 60.7192L87.5273 57.69C95.8298 49.3875 96.9079 38.8644 90.1405 32.097H90.1463ZM85.043 55.2057L82.0079 58.2466C77.924 62.3598 70.3188 70.0178 60.8151 64.6332C60.7038 64.5687 59.0691 63.5844 56.661 62.1372C54.9618 61.1118 53.5321 60.1919 52.1494 59.3072C48.0714 56.6822 44.2219 54.2038 34.6069 49.7918C34.5717 49.7625 34.478 49.6688 34.2729 49.3348C33.9096 48.7371 33.9331 47.8055 34.3432 46.9501C34.894 45.7958 36.019 45.0341 37.4252 44.8525C38.556 44.706 41.9426 45.2568 51.8974 50.5711C52.8525 51.0808 54.036 51.7136 54.9501 50.4832C55.4715 49.7859 55.3954 48.8016 54.7802 48.1864L28.1149 21.5211C27.0602 20.4665 27.0895 18.7204 28.1735 17.6365C28.7067 17.1033 29.4039 16.8103 30.148 16.7986C30.898 16.7986 31.5542 17.0681 32.0581 17.572L50.8545 36.3684C51.2002 36.7141 51.6455 36.884 52.0966 36.884C52.5478 36.884 52.999 36.7141 53.3388 36.3684C54.0243 35.6828 54.0243 34.5696 53.3388 33.8841L47.1632 27.7084C46.6593 27.2046 46.3839 26.5249 46.3898 25.7983C46.3956 25.0601 46.6944 24.357 47.2276 23.8238C47.7608 23.2906 48.4581 22.9976 49.2022 22.9859C49.9111 22.9859 50.6084 23.2554 51.1123 23.7593L52.5009 25.148C52.5771 25.2241 52.6591 25.2886 52.7411 25.3472C52.8642 25.4937 52.9931 25.6401 53.1337 25.7808L57.2938 29.9408C57.6394 30.2865 58.0847 30.4564 58.5359 30.4564C58.9871 30.4564 59.4382 30.2865 59.7781 29.9408C60.4636 29.2553 60.4636 28.142 59.7781 27.4565L55.618 23.2965C55.1141 22.7926 54.8387 22.1129 54.8446 21.3746C54.8446 20.6422 55.1434 19.945 55.6766 19.4118C56.5262 18.5622 57.7976 18.3396 58.8582 18.8493C59.116 18.9724 59.3503 19.1364 59.5613 19.3532L63.7154 23.5074C64.0611 23.8531 64.5064 24.023 64.9576 24.023C65.4088 24.023 65.8599 23.8531 66.1998 23.5074C66.8853 22.8219 66.8853 21.7086 66.1998 21.0231L65.5963 20.4196C64.3072 19.1306 63.9557 17.6833 64.7349 16.8982C67.0786 14.5545 68.8012 15.7381 69.8559 16.7927L70.2367 17.197L87.6503 34.593C92.9529 39.8956 91.8748 48.3739 85.0371 55.2174L85.043 55.2057Z"/>
</mask>
<path d="M26.7991 21.9108C34.7386 30.1992 50.8008 46.9596 51.5337 47.6924C49.9632 47.1252 46.6129 45.9385 45.7753 45.7291C44.9378 45.5197 43.7687 44.6821 43.2888 44.2895L37.2687 42.5882L34.2587 44.2895L32.0339 47.6924L32.95 51.3566L40.8023 54.6283L50.2249 60.1249L63.0503 67.4537H71.5569C74.3052 65.8396 79.9326 62.5853 80.4561 62.4806C80.9796 62.3759 84.7748 57.6384 86.607 55.2827L91.5801 48.87L92.8888 40.6252C91.2747 38.095 87.9681 32.93 87.654 32.5112C87.3399 32.0924 78.1004 22.4778 73.5199 17.7228L68.0234 13.5348L64.2281 15.1054L61.8724 17.7228L56.8993 16.1526L53.6276 18.6389L51.5337 21.9108H47.7384L45.7753 23.2194L44.4666 28.4542L32.95 16.1526H26.7991V21.9108Z" fill="white"/>
<path d="M17.7266 0.474609L7.56668 0.54492C6.59405 0.55078 5.81477 1.34177 5.82063 2.3144C5.82649 3.28117 6.61163 4.06045 7.5784 4.06045H7.59012L14.7852 4.01357C6.93388 10.7106 2.0473 20.2729 1.01022 31.0363C-0.190916 43.5398 3.96326 56.5707 12.4064 66.7774C12.7521 67.1993 13.256 67.4161 13.7599 67.4161C14.1524 67.4161 14.5509 67.2813 14.879 67.0118C15.629 66.3907 15.7344 65.2833 15.1133 64.5392C7.262 55.0414 3.39492 42.9539 4.50817 31.3702C5.42807 21.8139 9.6467 13.3004 16.4317 7.23028L16.9824 13.1832C17.0703 14.0973 17.832 14.7769 18.7285 14.7769C18.7812 14.7769 18.8398 14.7769 18.8925 14.7711C19.8593 14.6832 20.5683 13.8219 20.4804 12.861L19.4785 2.07417C19.3964 1.166 18.6289 0.462891 17.7148 0.480469L17.7266 0.474609Z" fill="white"/>
<path d="M90.1463 32.097L72.7679 14.742L72.3871 14.3377C69.2876 11.2382 65.4029 11.2616 62.2624 14.408C61.7585 14.9119 61.3893 15.492 61.1491 16.1189C60.8972 15.949 60.6394 15.7967 60.3698 15.6678C57.9734 14.5135 55.0848 15.0115 53.1864 16.9158C52.3486 17.7536 51.7802 18.7849 51.5107 19.8981C50.7959 19.6169 50.0225 19.4645 49.2256 19.4645C49.2022 19.4645 49.1846 19.4645 49.1612 19.4645C47.4972 19.4821 45.921 20.1442 44.7375 21.3278C44.0402 22.025 43.5305 22.857 43.2199 23.7593L34.5366 15.076C33.3706 13.91 31.8238 13.2713 30.1656 13.2713H30.107C28.4371 13.2889 26.8669 13.951 25.6775 15.1346C23.2166 17.5954 23.1931 21.568 25.6189 23.9937L44.8722 43.2471C41.2454 41.7413 38.6673 41.126 36.974 41.3487C34.3608 41.6827 32.2456 43.165 31.1675 45.415C30.2418 47.3485 30.2828 49.5516 31.273 51.1629C31.6773 51.8191 32.2105 52.5456 33.0952 52.9499C42.5227 57.2799 46.2726 59.6939 50.2451 62.2543C51.6513 63.1567 53.0986 64.0941 54.8446 65.1429C56.9188 66.3909 58.9812 67.6272 59.0574 67.6741C61.987 69.3323 64.7701 70.0002 67.3657 70.0002C75.2815 70.0002 81.4396 63.8012 84.4981 60.7192L87.5273 57.69C95.8298 49.3875 96.9079 38.8644 90.1405 32.097H90.1463ZM85.043 55.2057L82.0079 58.2466C77.924 62.3598 70.3188 70.0178 60.8151 64.6332C60.7038 64.5687 59.0691 63.5844 56.661 62.1372C54.9618 61.1118 53.5321 60.1919 52.1494 59.3072C48.0714 56.6822 44.2219 54.2038 34.6069 49.7918C34.5717 49.7625 34.478 49.6688 34.2729 49.3348C33.9096 48.7371 33.9331 47.8055 34.3432 46.9501C34.894 45.7958 36.019 45.0341 37.4252 44.8525C38.556 44.706 41.9426 45.2568 51.8974 50.5711C52.8525 51.0808 54.036 51.7136 54.9501 50.4832C55.4715 49.7859 55.3954 48.8016 54.7802 48.1864L28.1149 21.5211C27.0602 20.4665 27.0895 18.7204 28.1735 17.6365C28.7067 17.1033 29.4039 16.8103 30.148 16.7986C30.898 16.7986 31.5542 17.0681 32.0581 17.572L50.8545 36.3684C51.2002 36.7141 51.6455 36.884 52.0966 36.884C52.5478 36.884 52.999 36.7141 53.3388 36.3684C54.0243 35.6828 54.0243 34.5696 53.3388 33.8841L47.1632 27.7084C46.6593 27.2046 46.3839 26.5249 46.3898 25.7983C46.3956 25.0601 46.6944 24.357 47.2276 23.8238C47.7608 23.2906 48.4581 22.9976 49.2022 22.9859C49.9111 22.9859 50.6084 23.2554 51.1123 23.7593L52.5009 25.148C52.5771 25.2241 52.6591 25.2886 52.7411 25.3472C52.8642 25.4937 52.9931 25.6401 53.1337 25.7808L57.2938 29.9408C57.6394 30.2865 58.0847 30.4564 58.5359 30.4564C58.9871 30.4564 59.4382 30.2865 59.7781 29.9408C60.4636 29.2553 60.4636 28.142 59.7781 27.4565L55.618 23.2965C55.1141 22.7926 54.8387 22.1129 54.8446 21.3746C54.8446 20.6422 55.1434 19.945 55.6766 19.4118C56.5262 18.5622 57.7976 18.3396 58.8582 18.8493C59.116 18.9724 59.3503 19.1364 59.5613 19.3532L63.7154 23.5074C64.0611 23.8531 64.5064 24.023 64.9576 24.023C65.4088 24.023 65.8599 23.8531 66.1998 23.5074C66.8853 22.8219 66.8853 21.7086 66.1998 21.0231L65.5963 20.4196C64.3072 19.1306 63.9557 17.6833 64.7349 16.8982C67.0786 14.5545 68.8012 15.7381 69.8559 16.7927L70.2367 17.197L87.6503 34.593C92.9529 39.8956 91.8748 48.3739 85.0371 55.2174L85.043 55.2057Z" fill="white"/>
<path d="M26.7991 21.9108C34.7386 30.1992 50.8008 46.9596 51.5337 47.6924C49.9632 47.1252 46.6129 45.9385 45.7753 45.7291C44.9378 45.5197 43.7687 44.6821 43.2888 44.2895L37.2687 42.5882L34.2587 44.2895L32.0339 47.6924L32.95 51.3566L40.8023 54.6283L50.2249 60.1249L63.0503 67.4537H71.5569C74.3052 65.8396 79.9326 62.5853 80.4561 62.4806C80.9796 62.3759 84.7748 57.6384 86.607 55.2827L91.5801 48.87L92.8888 40.6252C91.2747 38.095 87.9681 32.93 87.654 32.5112C87.3399 32.0924 78.1004 22.4778 73.5199 17.7228L68.0234 13.5348L64.2281 15.1054L61.8724 17.7228L56.8993 16.1526L53.6276 18.6389L51.5337 21.9108H47.7384L45.7753 23.2194L44.4666 28.4542L32.95 16.1526H26.7991V21.9108Z" stroke="white" stroke-width="1.17184" mask="url(#path-1-inside-1_578_89553)"/>
<path d="M17.7266 0.474609L7.56668 0.54492C6.59405 0.55078 5.81477 1.34177 5.82063 2.3144C5.82649 3.28117 6.61163 4.06045 7.5784 4.06045H7.59012L14.7852 4.01357C6.93388 10.7106 2.0473 20.2729 1.01022 31.0363C-0.190916 43.5398 3.96326 56.5707 12.4064 66.7774C12.7521 67.1993 13.256 67.4161 13.7599 67.4161C14.1524 67.4161 14.5509 67.2813 14.879 67.0118C15.629 66.3907 15.7344 65.2833 15.1133 64.5392C7.262 55.0414 3.39492 42.9539 4.50817 31.3702C5.42807 21.8139 9.6467 13.3004 16.4317 7.23028L16.9824 13.1832C17.0703 14.0973 17.832 14.7769 18.7285 14.7769C18.7812 14.7769 18.8398 14.7769 18.8925 14.7711C19.8593 14.6832 20.5683 13.8219 20.4804 12.861L19.4785 2.07417C19.3964 1.166 18.6289 0.462891 17.7148 0.480469L17.7266 0.474609Z" stroke="white" stroke-width="1.17184" mask="url(#path-1-inside-1_578_89553)"/>
<path d="M90.1463 32.097L72.7679 14.742L72.3871 14.3377C69.2876 11.2382 65.4029 11.2616 62.2624 14.408C61.7585 14.9119 61.3893 15.492 61.1491 16.1189C60.8972 15.949 60.6394 15.7967 60.3698 15.6678C57.9734 14.5135 55.0848 15.0115 53.1864 16.9158C52.3486 17.7536 51.7802 18.7849 51.5107 19.8981C50.7959 19.6169 50.0225 19.4645 49.2256 19.4645C49.2022 19.4645 49.1846 19.4645 49.1612 19.4645C47.4972 19.4821 45.921 20.1442 44.7375 21.3278C44.0402 22.025 43.5305 22.857 43.2199 23.7593L34.5366 15.076C33.3706 13.91 31.8238 13.2713 30.1656 13.2713H30.107C28.4371 13.2889 26.8669 13.951 25.6775 15.1346C23.2166 17.5954 23.1931 21.568 25.6189 23.9937L44.8722 43.2471C41.2454 41.7413 38.6673 41.126 36.974 41.3487C34.3608 41.6827 32.2456 43.165 31.1675 45.415C30.2418 47.3485 30.2828 49.5516 31.273 51.1629C31.6773 51.8191 32.2105 52.5456 33.0952 52.9499C42.5227 57.2799 46.2726 59.6939 50.2451 62.2543C51.6513 63.1567 53.0986 64.0941 54.8446 65.1429C56.9188 66.3909 58.9812 67.6272 59.0574 67.6741C61.987 69.3323 64.7701 70.0002 67.3657 70.0002C75.2815 70.0002 81.4396 63.8012 84.4981 60.7192L87.5273 57.69C95.8298 49.3875 96.9079 38.8644 90.1405 32.097H90.1463ZM85.043 55.2057L82.0079 58.2466C77.924 62.3598 70.3188 70.0178 60.8151 64.6332C60.7038 64.5687 59.0691 63.5844 56.661 62.1372C54.9618 61.1118 53.5321 60.1919 52.1494 59.3072C48.0714 56.6822 44.2219 54.2038 34.6069 49.7918C34.5717 49.7625 34.478 49.6688 34.2729 49.3348C33.9096 48.7371 33.9331 47.8055 34.3432 46.9501C34.894 45.7958 36.019 45.0341 37.4252 44.8525C38.556 44.706 41.9426 45.2568 51.8974 50.5711C52.8525 51.0808 54.036 51.7136 54.9501 50.4832C55.4715 49.7859 55.3954 48.8016 54.7802 48.1864L28.1149 21.5211C27.0602 20.4665 27.0895 18.7204 28.1735 17.6365C28.7067 17.1033 29.4039 16.8103 30.148 16.7986C30.898 16.7986 31.5542 17.0681 32.0581 17.572L50.8545 36.3684C51.2002 36.7141 51.6455 36.884 52.0966 36.884C52.5478 36.884 52.999 36.7141 53.3388 36.3684C54.0243 35.6828 54.0243 34.5696 53.3388 33.8841L47.1632 27.7084C46.6593 27.2046 46.3839 26.5249 46.3898 25.7983C46.3956 25.0601 46.6944 24.357 47.2276 23.8238C47.7608 23.2906 48.4581 22.9976 49.2022 22.9859C49.9111 22.9859 50.6084 23.2554 51.1123 23.7593L52.5009 25.148C52.5771 25.2241 52.6591 25.2886 52.7411 25.3472C52.8642 25.4937 52.9931 25.6401 53.1337 25.7808L57.2938 29.9408C57.6394 30.2865 58.0847 30.4564 58.5359 30.4564C58.9871 30.4564 59.4382 30.2865 59.7781 29.9408C60.4636 29.2553 60.4636 28.142 59.7781 27.4565L55.618 23.2965C55.1141 22.7926 54.8387 22.1129 54.8446 21.3746C54.8446 20.6422 55.1434 19.945 55.6766 19.4118C56.5262 18.5622 57.7976 18.3396 58.8582 18.8493C59.116 18.9724 59.3503 19.1364 59.5613 19.3532L63.7154 23.5074C64.0611 23.8531 64.5064 24.023 64.9576 24.023C65.4088 24.023 65.8599 23.8531 66.1998 23.5074C66.8853 22.8219 66.8853 21.7086 66.1998 21.0231L65.5963 20.4196C64.3072 19.1306 63.9557 17.6833 64.7349 16.8982C67.0786 14.5545 68.8012 15.7381 69.8559 16.7927L70.2367 17.197L87.6503 34.593C92.9529 39.8956 91.8748 48.3739 85.0371 55.2174L85.043 55.2057Z" stroke="white" stroke-width="1.17184" mask="url(#path-1-inside-1_578_89553)"/>
</svg>
