<svg width="41" height="41" viewBox="0 0 41 41" fill="none" xmlns="http://www.w3.org/2000/svg">
<g clip-path="url(#clip0_578_91092)">
<path d="M40.1035 20.8848C40.1035 31.9348 31.1535 40.8848 20.1035 40.8848C9.05352 40.8848 0.103516 31.9348 0.103516 20.8848C0.103516 9.83477 9.05352 0.884766 20.1035 0.884766C31.1535 0.884766 40.1035 9.83477 40.1035 20.8848Z" fill="url(#paint0_linear_578_91092)"/>
<path d="M16.4362 30.0508C15.7862 30.0508 15.9029 29.8008 15.6695 29.1841L13.7695 22.9174L25.5695 15.5508L26.9529 15.9174L25.8029 19.0508L16.4362 30.0508Z" fill="#C8DAEA"/>
<path d="M16.4375 30.0514C16.9375 30.0514 17.1542 29.8181 17.4375 29.5514C17.8708 29.1348 23.4375 23.7181 23.4375 23.7181L20.0208 22.8848L16.8542 24.8848L16.4375 29.8848V30.0514Z" fill="#A9C9DD"/>
<path d="M16.7701 24.9509L24.8367 30.9009C25.7534 31.4009 26.4201 31.1509 26.6534 30.0509L29.9367 14.5842C30.2701 13.2342 29.4201 12.6342 28.5367 13.0342L9.27008 20.4675C7.95341 21.0009 7.97008 21.7342 9.03675 22.0509L13.9867 23.6009L25.4367 16.3842C25.9701 16.0509 26.4701 16.2342 26.0701 16.6009L16.7701 24.9509Z" fill="url(#paint1_linear_578_91092)"/>
</g>
<defs>
<linearGradient id="paint0_linear_578_91092" x1="25.9652" y1="7.20643" x2="15.9652" y2="30.5394" gradientUnits="userSpaceOnUse">
<stop stop-color="#37AEE2"/>
<stop offset="1" stop-color="#1E96C8"/>
</linearGradient>
<linearGradient id="paint1_linear_578_91092" x1="21.6019" y1="21.51" x2="25.7686" y2="28.1767" gradientUnits="userSpaceOnUse">
<stop stop-color="#EFF7FC"/>
<stop offset="1" stop-color="white"/>
</linearGradient>
<clipPath id="clip0_578_91092">
<rect width="40" height="40" fill="white" transform="translate(0.103516 0.884766)"/>
</clipPath>
</defs>
</svg>
