<svg width="41" height="41" viewBox="0 0 41 41" fill="none" xmlns="http://www.w3.org/2000/svg">
<circle cx="20.6035" cy="20.8848" r="20" fill="#2AA3EF"/>
<path fill-rule="evenodd" clip-rule="evenodd" d="M28.8087 15.796C28.2053 16.0636 27.5556 16.2446 26.875 16.3265C27.5701 15.9093 28.1039 15.2502 28.3549 14.4645C27.7043 14.8502 26.984 15.1302 26.2165 15.2807C25.6025 14.6264 24.7279 14.2178 23.7595 14.2178C21.9001 14.2178 20.3921 15.7245 20.3921 17.5837C20.3921 17.8485 20.423 18.1047 20.48 18.3514C17.6822 18.2114 15.202 16.8703 13.5415 14.834C13.2509 15.3312 13.0858 15.9093 13.0858 16.5265C13.0858 17.6942 13.6805 18.7248 14.5832 19.3277C14.031 19.3105 13.5116 19.1591 13.0588 18.9067C13.0588 18.921 13.0588 18.9353 13.0588 18.9495C13.0588 20.5801 14.2183 21.9402 15.7591 22.2498C15.4762 22.3269 15.1798 22.3679 14.8719 22.3679C14.6556 22.3679 14.4442 22.3469 14.2385 22.3069C14.6672 23.6442 15.9106 24.6176 17.3839 24.6452C16.2312 25.5472 14.7792 26.0853 13.2017 26.0853C12.9304 26.0853 12.662 26.07 12.3984 26.0386C13.8881 26.9939 15.6577 27.5511 17.5596 27.5511C23.7518 27.5511 27.1385 22.4222 27.1385 17.9742C27.1385 17.8276 27.1347 17.6837 27.1289 17.539C27.7863 17.0646 28.3578 16.4713 28.8087 15.7969V15.796Z" fill="white"/>
</svg>
