<svg width="21" height="16" viewBox="0 0 21 16" fill="none" xmlns="http://www.w3.org/2000/svg">
<mask id="path-1-outside-1_578_98175" maskUnits="userSpaceOnUse" x="-0.244141" y="-0.117188" width="22" height="16" fill="black">
<rect fill="white" x="-0.244141" y="-0.117188" width="22" height="16"/>
<path fill-rule="evenodd" clip-rule="evenodd" d="M13.2559 0.882812C14.0843 0.882812 14.7559 1.55439 14.7559 2.38281V13.3828C14.7559 14.2112 14.0843 14.8828 13.2559 14.8828H2.25586C1.42743 14.8828 0.755859 14.2112 0.755859 13.3828V2.38281C0.755859 1.55439 1.42743 0.882812 2.25586 0.882812H13.2559ZM20.642 3.07081C20.7168 3.21382 20.7559 3.3728 20.7559 3.53419V11.9901C20.7559 12.5424 20.3081 12.9901 19.7559 12.9901C19.5947 12.9901 19.4359 12.9512 19.293 12.8766L16.7559 11.5519V3.97445L19.2925 2.64803C19.7819 2.39211 20.3861 2.58139 20.642 3.07081ZM7.75586 2.88281C4.99444 2.88281 2.75586 5.12139 2.75586 7.88281C2.75586 10.6442 4.99444 12.8828 7.75586 12.8828C10.5173 12.8828 12.7559 10.6442 12.7559 7.88281C12.7559 5.12139 10.5173 2.88281 7.75586 2.88281ZM7.75586 4.88281C9.41271 4.88281 10.7559 6.22596 10.7559 7.88281C10.7559 9.53967 9.41271 10.8828 7.75586 10.8828C6.09901 10.8828 4.75586 9.53967 4.75586 7.88281C4.75586 6.22596 6.09901 4.88281 7.75586 4.88281Z"/>
</mask>
<path fill-rule="evenodd" clip-rule="evenodd" d="M13.2559 0.882812C14.0843 0.882812 14.7559 1.55439 14.7559 2.38281V13.3828C14.7559 14.2112 14.0843 14.8828 13.2559 14.8828H2.25586C1.42743 14.8828 0.755859 14.2112 0.755859 13.3828V2.38281C0.755859 1.55439 1.42743 0.882812 2.25586 0.882812H13.2559ZM20.642 3.07081C20.7168 3.21382 20.7559 3.3728 20.7559 3.53419V11.9901C20.7559 12.5424 20.3081 12.9901 19.7559 12.9901C19.5947 12.9901 19.4359 12.9512 19.293 12.8766L16.7559 11.5519V3.97445L19.2925 2.64803C19.7819 2.39211 20.3861 2.58139 20.642 3.07081ZM7.75586 2.88281C4.99444 2.88281 2.75586 5.12139 2.75586 7.88281C2.75586 10.6442 4.99444 12.8828 7.75586 12.8828C10.5173 12.8828 12.7559 10.6442 12.7559 7.88281C12.7559 5.12139 10.5173 2.88281 7.75586 2.88281ZM7.75586 4.88281C9.41271 4.88281 10.7559 6.22596 10.7559 7.88281C10.7559 9.53967 9.41271 10.8828 7.75586 10.8828C6.09901 10.8828 4.75586 9.53967 4.75586 7.88281C4.75586 6.22596 6.09901 4.88281 7.75586 4.88281Z" fill="#FEFFFE"/>
<path d="M20.642 3.07081L20.8193 2.97813L20.642 3.07081ZM19.293 12.8766L19.2005 13.0539L19.293 12.8766ZM16.7559 11.5519H16.5559V11.6731L16.6633 11.7292L16.7559 11.5519ZM16.7559 3.97445L16.6632 3.79722L16.5559 3.85334V3.97445H16.7559ZM19.2925 2.64803L19.3852 2.82526L19.2925 2.64803ZM13.2559 1.08281C13.9738 1.08281 14.5559 1.66484 14.5559 2.38281H14.9559C14.9559 1.44393 14.1947 0.682812 13.2559 0.682812V1.08281ZM14.5559 2.38281V13.3828H14.9559V2.38281H14.5559ZM14.5559 13.3828C14.5559 14.1008 13.9738 14.6828 13.2559 14.6828V15.0828C14.1947 15.0828 14.9559 14.3217 14.9559 13.3828H14.5559ZM13.2559 14.6828H2.25586V15.0828H13.2559V14.6828ZM2.25586 14.6828C1.53789 14.6828 0.955859 14.1008 0.955859 13.3828H0.555859C0.555859 14.3217 1.31698 15.0828 2.25586 15.0828V14.6828ZM0.955859 13.3828V2.38281H0.555859V13.3828H0.955859ZM0.955859 2.38281C0.955859 1.66484 1.53789 1.08281 2.25586 1.08281V0.682812C1.31698 0.682812 0.555859 1.44393 0.555859 2.38281H0.955859ZM2.25586 1.08281H13.2559V0.682812H2.25586V1.08281ZM20.4648 3.16348C20.5246 3.27789 20.5559 3.40508 20.5559 3.53419H20.9559C20.9559 3.34053 20.909 3.14974 20.8193 2.97813L20.4648 3.16348ZM20.5559 3.53419V11.9901H20.9559V3.53419H20.5559ZM20.5559 11.9901C20.5559 12.432 20.1977 12.7901 19.7559 12.7901V13.1901C20.4186 13.1901 20.9559 12.6529 20.9559 11.9901H20.5559ZM19.7559 12.7901C19.6269 12.7901 19.4999 12.759 19.3856 12.6993L19.2005 13.0539C19.3719 13.1434 19.5625 13.1901 19.7559 13.1901V12.7901ZM19.3856 12.6993L16.8484 11.3746L16.6633 11.7292L19.2005 13.0539L19.3856 12.6993ZM16.9559 11.5519V3.97445H16.5559V11.5519H16.9559ZM16.8485 4.15168L19.3852 2.82526L19.1998 2.4708L16.6632 3.79722L16.8485 4.15168ZM19.3852 2.82526C19.7767 2.62053 20.2601 2.77195 20.4648 3.16348L20.8193 2.97813C20.5121 2.39084 19.7871 2.16369 19.1998 2.4708L19.3852 2.82526ZM7.75586 2.68281C4.88398 2.68281 2.55586 5.01093 2.55586 7.88281H2.95586C2.95586 5.23185 5.10489 3.08281 7.75586 3.08281V2.68281ZM2.55586 7.88281C2.55586 10.7547 4.88398 13.0828 7.75586 13.0828V12.6828C5.10489 12.6828 2.95586 10.5338 2.95586 7.88281H2.55586ZM7.75586 13.0828C10.6277 13.0828 12.9559 10.7547 12.9559 7.88281H12.5559C12.5559 10.5338 10.4068 12.6828 7.75586 12.6828V13.0828ZM12.9559 7.88281C12.9559 5.01093 10.6277 2.68281 7.75586 2.68281V3.08281C10.4068 3.08281 12.5559 5.23185 12.5559 7.88281H12.9559ZM7.75586 5.08281C9.30226 5.08281 10.5559 6.33642 10.5559 7.88281H10.9559C10.9559 6.1155 9.52317 4.68281 7.75586 4.68281V5.08281ZM10.5559 7.88281C10.5559 9.42921 9.30226 10.6828 7.75586 10.6828V11.0828C9.52317 11.0828 10.9559 9.65012 10.9559 7.88281H10.5559ZM7.75586 10.6828C6.20946 10.6828 4.95586 9.42921 4.95586 7.88281H4.55586C4.55586 9.65012 5.98855 11.0828 7.75586 11.0828V10.6828ZM4.95586 7.88281C4.95586 6.33642 6.20946 5.08281 7.75586 5.08281V4.68281C5.98855 4.68281 4.55586 6.1155 4.55586 7.88281H4.95586Z" fill="black" fill-opacity="0.2" mask="url(#path-1-outside-1_578_98175)"/>
</svg>
