<svg width="21" height="21" viewBox="0 0 21 21" fill="none" xmlns="http://www.w3.org/2000/svg">
<path d="M14.2845 10.1715V4.75488C14.2845 2.68382 12.6056 1.00488 10.5345 1.00488C8.46342 1.00488 6.78451 2.68382 6.78451 4.75488V10.1715C6.78451 12.2426 8.46342 13.9215 10.5345 13.9215C12.6056 13.9215 14.2845 12.2426 14.2845 10.1715Z" fill="#E94057"/>
<path d="M4.28451 8.92155C4.74474 8.92155 5.11784 9.29464 5.11784 9.75488C5.11784 12.7464 7.54295 15.1715 10.5345 15.1715C13.5261 15.1715 15.9512 12.7464 15.9512 9.75488C15.9512 9.29464 16.3243 8.92155 16.7845 8.92155C17.2447 8.92155 17.6178 9.29464 17.6178 9.75488C17.6178 13.385 14.8872 16.3773 11.3678 16.7897V18.5049C11.3678 18.9651 10.9947 19.3382 10.5345 19.3382C10.0743 19.3382 9.70117 18.9651 9.70117 18.5049V16.7897C6.18185 16.3773 3.45117 13.385 3.45117 9.75488C3.45117 9.29464 3.82427 8.92155 4.28451 8.92155Z" fill="#E94057"/>
</svg>
