<svg width="41" height="41" viewBox="0 0 41 41" fill="none" xmlns="http://www.w3.org/2000/svg">
<circle cx="20.6035" cy="20.8848" r="20" fill="#00E676"/>
<path d="M16.8249 26.9168L17.0865 27.0484C18.1765 27.7065 19.3972 28.0137 20.6179 28.0137C24.4544 28.0137 27.5933 24.8547 27.5933 20.9936C27.5933 19.1509 26.8522 17.352 25.5443 16.0358C24.2364 14.7195 22.4925 13.9736 20.6179 13.9736C16.7814 13.9736 13.6424 17.1326 13.686 21.0375C13.686 22.3538 14.0784 23.6262 14.7323 24.723L14.9067 24.9863L14.2092 27.5749L16.8249 26.9168Z" fill="#00E676"/>
<path d="M26.2929 15.1896C24.8106 13.654 22.7615 12.8203 20.6689 12.8203C16.2221 12.8203 12.6471 16.4619 12.6907 20.8933C12.6907 22.2973 13.0831 23.6575 13.7371 24.886L12.6035 29.0541L16.8324 27.9572C18.0095 28.6154 19.3173 28.9225 20.6253 28.9225C25.0286 28.9225 28.6035 25.2808 28.6035 20.8495C28.6035 18.6996 27.7751 16.6813 26.2929 15.1896ZM20.6689 27.5624C19.4918 27.5624 18.3147 27.2553 17.3119 26.6411L17.0504 26.5094L14.5218 27.1675L15.1757 24.6667L15.0014 24.4034C13.0831 21.2883 13.9986 17.1639 17.1376 15.2334C20.2765 13.3029 24.331 14.2243 26.2493 17.3833C28.1675 20.5423 27.252 24.6227 24.1131 26.5533C23.1103 27.2114 21.8896 27.5624 20.6689 27.5624ZM24.5054 22.6923L24.0258 22.4729C24.0258 22.4729 23.3283 22.1658 22.8924 21.9464C22.8487 21.9464 22.8052 21.9025 22.7615 21.9025C22.6307 21.9025 22.5435 21.9464 22.4564 21.9903C22.4564 21.9903 22.4128 22.0342 21.8024 22.7362C21.7588 22.8239 21.6716 22.8678 21.5844 22.8678H21.5408C21.4973 22.8678 21.4101 22.8239 21.3664 22.7801L21.1484 22.6923C20.6689 22.4729 20.233 22.2096 19.8842 21.8587C19.797 21.7709 19.6662 21.6832 19.579 21.5954C19.2738 21.2883 18.9686 20.9373 18.7507 20.5424L18.707 20.4547C18.6635 20.4108 18.6635 20.3669 18.6199 20.2792C18.6199 20.1914 18.6199 20.1037 18.6635 20.0598C18.6635 20.0598 18.8379 19.8404 18.9686 19.7088C19.0559 19.621 19.0994 19.4894 19.1866 19.4017C19.2738 19.27 19.3174 19.0945 19.2738 18.9629C19.2302 18.7435 18.707 17.5589 18.5763 17.2957C18.489 17.164 18.4019 17.1202 18.2711 17.0763H17.7916C17.7043 17.0763 17.6172 17.1202 17.5299 17.1202L17.4863 17.164C17.3991 17.2079 17.3119 17.2957 17.2248 17.3395C17.1376 17.4273 17.0939 17.515 17.0068 17.6028C16.7016 17.9977 16.5272 18.4803 16.5272 18.9629C16.5272 19.3139 16.6144 19.6649 16.7452 19.972L16.7888 20.1037C17.1812 20.9373 17.7043 21.6832 18.4019 22.3413L18.5763 22.5168C18.707 22.6484 18.8379 22.7362 18.925 22.8677C19.8406 23.6576 20.8869 24.2279 22.064 24.5351C22.1948 24.5789 22.3692 24.5789 22.5 24.6228H22.9359C23.1539 24.6228 23.4155 24.5351 23.5899 24.4473C23.7207 24.3596 23.8078 24.3596 23.895 24.2718L23.9823 24.184C24.0695 24.0963 24.1566 24.0524 24.2438 23.9647C24.331 23.877 24.4182 23.7892 24.4618 23.7014C24.549 23.5259 24.5926 23.3065 24.6362 23.0872V22.7801C24.6362 22.7801 24.5926 22.7362 24.5054 22.6923Z" fill="white"/>
</svg>
